<svg width="190" height="61" viewBox="0 0 190 61" fill="none" xmlns="http://www.w3.org/2000/svg">
<path d="M12.3947 24.9484V24.7809L5.29252 17.3314L11.8473 10.2594V10.1757H8.39037L2.78228 16.4241V10.1757H0V24.9525H2.78228V18.4053L8.95704 24.9492L12.3947 24.9484Z" fill="#C7D4DB"/>
<path d="M13.9531 17.6645C13.9531 21.5492 16.3554 25.2815 21.5399 25.2815C26.7245 25.2815 29.0631 21.4604 29.1058 17.6394C29.1477 13.7757 26.619 9.87097 21.5399 9.87097C16.4399 9.87516 13.9531 13.7807 13.9531 17.6645ZM26.3662 17.6863C26.3244 20.1137 25.0178 22.7311 21.5399 22.7311C18.0621 22.7311 16.7555 20.1363 16.6927 17.7089C16.6291 15.2179 18.0629 12.4097 21.5399 12.4097C25.0169 12.4097 26.4089 15.1945 26.3646 17.688L26.3662 17.6863Z" fill="#C7D4DB"/>
<path d="M43.6249 22.3727H36.0381V10.1714H33.2559V24.9483H43.6249V22.3727Z" fill="#C7D4DB"/>
<path d="M50.4518 22.1611H58.165L59.4088 24.9475H62.4439L55.8263 10.1707H52.7921L46.1746 24.9475H49.1878L50.4518 22.1611ZM54.3088 13.2744L57.0483 19.5646H51.5692L54.3088 13.2744Z" fill="#C7D4DB"/>
<path d="M13.2903 47.8083L8.82228 42.7627C9.91483 42.6012 10.9061 42.033 11.5978 41.172C12.2895 40.311 12.6306 39.2206 12.5529 38.1189C12.5529 35.5643 10.7198 33.2424 7.24197 33.2215C4.90332 33.2215 2.56385 33.2006 0.224365 33.2006V47.9983H3.00662V43.0599H5.68511L9.98491 47.9983H13.2903V47.8083ZM3.0058 40.5463V35.8179H7.24197C7.56593 35.7959 7.89097 35.8408 8.19688 35.9496C8.5028 36.0585 8.78305 36.229 9.02029 36.4507C9.25754 36.6724 9.44671 36.9405 9.57603 37.2383C9.70535 37.5362 9.77208 37.8574 9.77208 38.1821C9.77208 38.5068 9.70535 38.8281 9.57603 39.1259C9.44671 39.4237 9.25754 39.6918 9.02029 39.9135C8.78305 40.1352 8.5028 40.3057 8.19688 40.4146C7.89097 40.5235 7.56593 40.5683 7.24197 40.5463H3.0058Z" fill="#C7D4DB"/>
<path d="M27.539 35.9234V33.2214H16.4961V47.9983H27.539V45.2537H19.2566V41.919H27.2444V39.3242H19.2566V35.9259L27.539 35.9234Z" fill="#C7D4DB"/>
<path d="M37.8639 45.8865C36.0726 45.8865 34.3651 45.1692 33.7114 43.5428L31.3928 44.7457C32.4885 47.4476 34.807 48.3767 37.8212 48.3767C41.109 48.3767 44.0152 46.9621 44.0152 43.6692C44.0152 40.1437 41.1492 39.3418 38.0723 38.9618C36.302 38.7509 34.7845 38.3918 34.7845 37.1044C34.7845 36.0071 35.7755 35.1408 37.8404 35.1408C38.5126 35.117 39.1806 35.254 39.7892 35.5404C40.3977 35.8267 40.9291 36.2542 41.3392 36.7872L43.5515 35.6472C42.434 33.3671 40.0535 32.7134 37.7559 32.7134C35.0372 32.7343 32.0449 33.9798 32.0449 37.0199C32.0449 40.3345 34.8271 41.1364 37.8404 41.4946C39.7999 41.7056 41.2547 42.2756 41.2547 43.6709C41.2572 45.2763 39.6132 45.8865 37.8639 45.8865Z" fill="#C7D4DB"/>
<path d="M59.2749 35.9234V33.2214H48.2312V47.9983H59.2749V45.2537H50.9884V41.919H58.9761V39.3242H50.9884V35.9259L59.2749 35.9234Z" fill="#C7D4DB"/>
<path d="M73.3093 47.9983H76.6181V47.8083L72.15 42.7627C73.2426 42.6012 74.2339 42.033 74.9255 41.172C75.6172 40.311 75.9584 39.2206 75.8807 38.1189C75.8807 35.5643 74.0476 33.2424 70.5697 33.2215C68.2302 33.2215 65.8916 33.2006 63.5521 33.2006V47.9983H66.3344V43.0599H69.0129L73.3093 47.9983ZM66.3336 35.8188H70.5697C70.8937 35.7968 71.2187 35.8416 71.5246 35.9505C71.8305 36.0593 72.1108 36.2299 72.3481 36.4516C72.5853 36.6733 72.7745 36.9413 72.9038 37.2392C73.0331 37.537 73.0999 37.8582 73.0999 38.1829C73.0999 38.5077 73.0331 38.8289 72.9038 39.1267C72.7745 39.4246 72.5853 39.6927 72.3481 39.9143C72.1108 40.136 71.8305 40.3066 71.5246 40.4154C71.2187 40.5243 70.8937 40.5691 70.5697 40.5471H66.3336V35.8188Z" fill="#C7D4DB"/>
<path d="M86.4154 44.7248L81.9683 33.2198H78.8495L84.9824 48.0595H87.8702L94.003 33.2198H90.8842L86.4154 44.7248Z" fill="#C7D4DB"/>
<path d="M97.7731 47.9983H108.816V45.2537H100.534V41.919H108.521V39.3242H100.534V35.9259H108.816V33.224H97.7731V47.9983Z" fill="#C7D4DB"/>
<path d="M135.289 37.3489C135.571 37.0735 135.838 36.7832 136.089 36.4792C136.197 36.322 136.279 36.1477 136.329 35.9636V35.9519C136.362 35.8328 136.377 35.7096 136.374 35.5861C136.487 34.5306 136.669 31.56 135.352 30.5137C135.177 30.3546 134.963 30.2436 134.732 30.1915C134.622 30.1648 134.51 30.1497 134.397 30.1463C133.955 30.1441 133.523 30.2837 133.165 30.5447C133.522 27.8428 135.163 18.8129 141.683 12.5093C139.798 14.1825 138.17 16.1246 136.852 18.273C137.425 17.2703 138.057 16.3029 138.746 15.3761C141.612 11.3492 145.713 8.36568 150.426 6.87692C150.323 6.88806 150.22 6.89225 150.117 6.88948C150.058 6.88992 150 6.89609 149.943 6.90789C149.806 6.93886 149.659 6.99829 149.525 7.04265C149.216 7.14142 148.909 7.25025 148.604 7.3691C147.984 7.60943 147.378 7.88411 146.789 8.19189C145.575 8.83006 144.425 9.5844 143.357 10.4443C142.254 11.3304 141.224 12.304 140.277 13.3555C139.962 13.7048 139.653 14.0622 139.352 14.4277C139.202 14.6102 139.054 14.7944 138.908 14.9802C138.757 15.1529 138.617 15.3352 138.49 15.5259C136.818 17.7194 135.46 20.1348 134.455 22.7026C134.097 23.4902 133.75 24.3239 133.425 25.2053C134.285 22.1394 135.617 19.2261 137.373 16.5697C140.151 12.2573 144.177 8.89337 148.915 6.92547C149.548 6.63025 150.239 6.47796 150.939 6.47934C151.15 6.4814 151.359 6.53369 151.546 6.6319C151.734 6.73012 151.896 6.87147 152.018 7.04434C152.105 7.20032 152.15 7.37573 152.15 7.55408C152.15 7.73243 152.105 7.90784 152.018 8.06382C151.899 8.10244 151.776 8.12606 151.651 8.13413C151.712 8.09139 151.763 8.03499 151.799 7.96935C151.835 7.90371 151.855 7.83061 151.859 7.7558C151.858 7.74283 151.856 7.72996 151.853 7.71731C151.779 7.39003 151.256 7.52562 150.99 7.62355C150.716 7.72482 150.448 7.84222 150.187 7.97511H150.182C150.063 8.03538 149.944 8.09731 149.828 8.16343C149.686 8.24714 149.547 8.33084 149.409 8.41454C137.833 15.2388 140.061 24.4536 140.061 24.4536C140.531 22.493 141.196 20.5845 142.048 18.7568L145.152 16.7831L143.114 16.6718C143.794 15.4342 144.595 14.267 145.505 13.1873C145.937 12.5923 146.543 12.1447 147.238 11.9049C147.287 11.9006 147.334 11.8866 147.377 11.8638C147.42 11.8409 147.458 11.8097 147.489 11.7719C147.496 11.7585 147.5 11.7436 147.5 11.7284C147.5 11.7133 147.497 11.6983 147.49 11.6848C147.483 11.6713 147.473 11.6597 147.461 11.6509C147.448 11.6422 147.434 11.6366 147.419 11.6346C147.534 11.5433 147.621 11.4215 147.67 11.283C148.704 11.0458 149.785 11.1218 150.775 11.5015C150.485 10.5423 149.855 9.72182 149.003 9.19382C149.047 9.15782 149.091 9.12351 149.136 9.08919C152.026 9.76486 155.047 9.63517 157.869 8.7142L154.327 4.72493L154.076 0.662842C152.777 1.70854 151.552 2.84142 150.407 4.05363C149.503 5.03841 148.489 5.91683 147.386 6.67185C147.292 6.69864 147.197 6.72961 147.103 6.75556C147.169 6.69535 147.213 6.61382 147.226 6.52493C147.239 6.43604 147.221 6.34531 147.175 6.26827C147.129 6.19124 147.057 6.13269 146.972 6.10263C146.888 6.07258 146.795 6.07288 146.711 6.10351C146.302 6.2889 145.949 6.57734 145.685 6.94054C144.63 7.91603 143.436 8.72854 142.141 9.35118C140.814 10.0849 139.566 10.9521 138.415 11.9393L138.007 9.95551C136.458 10.7333 134.782 11.2234 133.058 11.4019C132.734 13.5091 132.852 15.6607 133.405 17.7198C131.026 21.3312 129.756 25.5593 129.75 29.8834C129.809 33.8752 130.992 37.7696 133.164 41.1197C133.43 41.5382 133.845 41.9835 134.207 41.7424C134.612 41.4746 134.499 40.712 134.453 40.1261C134.359 39.1269 134.659 38.1304 135.289 37.3489ZM133.016 35.1216C133.333 35.1216 133.56 35.3048 133.663 35.7075C133.691 35.8129 133.703 35.9259 133.723 36.0356C133.723 36.0515 133.729 36.0791 133.723 36.0816C133.705 36.0942 133.704 36.0716 133.702 36.0557C133.632 35.9707 133.546 35.9013 133.448 35.8522C133.35 35.8032 133.242 35.7755 133.133 35.771C133.023 35.7665 132.914 35.7852 132.812 35.8261C132.71 35.8669 132.618 35.9289 132.542 36.008C132.463 36.0865 132.394 36.1742 132.336 36.2691C132.347 35.648 132.679 35.1207 133.016 35.1216ZM133.779 36.8165C133.758 37.0708 133.649 37.3099 133.471 37.492C133.392 37.5479 133.335 37.6296 133.31 37.723C133.459 37.648 133.592 37.5438 133.701 37.4167C133.68 37.6418 133.63 37.8634 133.554 38.0763C133.506 38.2557 133.397 38.4128 133.246 38.5207C133.04 38.6303 132.805 38.4889 132.652 38.283C132.485 38.0505 132.383 37.7778 132.357 37.4928C132.45 37.6136 132.576 37.7049 132.72 37.756C132.864 37.807 133.02 37.8157 133.169 37.7808C133.21 37.7741 133.248 37.7534 133.276 37.722C133.305 37.6906 133.321 37.6505 133.323 37.6083C133.256 37.6418 133.181 37.6585 133.106 37.6572C133.031 37.6559 132.957 37.6365 132.891 37.6008C133.014 37.5497 133.035 37.3321 133.124 37.2074C133.167 37.1569 133.214 37.1094 133.263 37.0651C133.316 37.0042 133.354 36.9313 133.373 36.8526C133.393 36.7739 133.392 36.6917 133.373 36.6131C133.356 36.5552 133.324 36.5029 133.279 36.4618C133.235 36.4207 133.181 36.3923 133.122 36.3796C133.046 36.366 132.969 36.3783 132.901 36.4143C132.834 36.4503 132.781 36.5079 132.75 36.578C132.713 36.6746 132.685 36.7743 132.666 36.8759C132.659 36.9235 132.641 36.9688 132.615 37.0088C132.588 37.0487 132.553 37.0822 132.511 37.107C132.447 36.866 132.463 36.6105 132.557 36.3796C132.76 35.9017 133.278 35.7435 133.579 36.1017C133.643 36.1802 133.692 36.2698 133.723 36.3662C133.773 36.5109 133.792 36.6642 133.779 36.8165Z" fill="#C7D4DB"/>
<path d="M180.431 43.6024C179.985 43.4082 179.4 43.9137 178.925 44.272C178.127 44.8893 177.121 45.1745 176.118 45.068C175.731 44.9804 175.34 44.9136 174.946 44.8679C174.755 44.8619 174.563 44.888 174.38 44.945L174.369 44.95C174.25 44.9867 174.137 45.0406 174.034 45.1098C173.067 45.5919 170.395 47.071 170.277 48.7618C170.251 48.975 170.275 49.1915 170.347 49.3937C170.384 49.4998 170.431 49.6016 170.489 49.6976C170.728 50.0702 171.08 50.356 171.494 50.5128C169.011 51.673 160.471 55.1726 151.61 53.1218C154.049 53.7958 156.573 54.1088 159.102 54.0509C157.944 54.1132 156.782 54.1065 155.624 54.0309C150.68 53.8126 145.94 51.9943 142.117 48.8497C142.182 48.9292 142.241 49.0131 142.295 49.1008C142.327 49.1492 142.364 49.1943 142.404 49.2355C142.505 49.3335 142.635 49.4247 142.747 49.516C142.997 49.7213 143.256 49.9205 143.523 50.1136C144.06 50.5023 144.619 50.8609 145.197 51.1875C146.395 51.8594 147.655 52.4138 148.959 52.8431C150.307 53.2877 151.687 53.6236 153.088 53.8476C153.555 53.9234 154.024 53.9884 154.496 54.0426C154.732 54.0699 154.968 54.0945 155.204 54.1162C155.432 54.1499 155.663 54.1689 155.893 54.1731C158.657 54.3858 161.436 54.2168 164.154 53.6709C165.014 53.5462 165.912 53.3855 166.832 53.1821C163.77 54.1168 160.583 54.5747 157.381 54.5398C152.241 54.5479 147.219 52.9973 142.979 50.0926C142.387 49.7233 141.885 49.2276 141.508 48.6412C141.396 48.4628 141.328 48.2601 141.31 48.0499C141.291 47.8398 141.324 47.6284 141.404 47.4334C141.491 47.2767 141.616 47.1444 141.767 47.0487C141.919 46.953 142.092 46.8971 142.271 46.886C142.367 46.9647 142.454 47.0553 142.528 47.1555C142.459 47.1272 142.384 47.1151 142.309 47.1203C142.233 47.1256 142.161 47.1479 142.096 47.1857C142.085 47.1935 142.075 47.2022 142.066 47.2116C141.829 47.4502 142.225 47.8143 142.452 47.9834C142.686 48.1583 142.931 48.3193 143.184 48.4655H143.189C143.304 48.5324 143.421 48.5977 143.539 48.6597C143.683 48.735 143.832 48.8053 143.98 48.8731C156.011 54.8712 162.62 48.0361 162.62 48.0361C160.705 48.7009 158.728 49.1739 156.719 49.4482L153.371 47.9172L154.376 49.6817C152.961 49.781 151.539 49.7412 150.132 49.5628C149.396 49.5228 148.691 49.2585 148.11 48.8053C148.079 48.7664 148.041 48.734 147.998 48.7101C147.955 48.6862 147.908 48.6713 147.859 48.6664C147.843 48.6674 147.829 48.6721 147.816 48.6801C147.803 48.6881 147.792 48.6991 147.784 48.7122C147.776 48.7253 147.772 48.7401 147.771 48.7553C147.77 48.7705 147.773 48.7856 147.78 48.7994C147.64 48.7514 147.489 48.7436 147.345 48.7769C146.587 48.0421 146.067 47.0963 145.854 46.0623C145.201 46.82 144.846 47.7899 144.857 48.7902C144.802 48.7735 144.748 48.7534 144.694 48.7342C143.703 45.9487 141.962 43.4911 139.663 41.6328L138.193 46.7479L134.885 49.1485C136.473 49.6703 138.095 50.0839 139.739 50.3864C141.061 50.6105 142.353 50.984 143.59 51.4997C143.663 51.5642 143.74 51.6269 143.812 51.6922C143.726 51.6669 143.633 51.6728 143.55 51.7089C143.467 51.745 143.399 51.8091 143.359 51.8899C143.318 51.9707 143.307 52.0631 143.328 52.1512C143.348 52.2392 143.399 52.3173 143.471 52.3719C143.847 52.6134 144.28 52.7538 144.726 52.7795C146.121 53.1343 147.454 53.6949 148.683 54.4427C150.022 55.157 151.431 55.733 152.887 56.1619L151.426 57.574C152.918 58.4467 154.238 59.5844 155.321 60.9313C157.28 60.0671 159.04 58.8079 160.49 57.2325C164.837 57.2717 169.102 56.0535 172.773 53.7245C176.118 51.5298 178.78 48.4404 180.456 44.8077C180.68 44.3615 180.832 43.7748 180.431 43.6024ZM175.46 48.1675C175.374 48.0324 175.341 47.8701 175.368 47.7121C175.394 47.554 175.479 47.4115 175.604 47.3121C175.679 47.2284 175.772 47.1606 175.85 47.0852C175.863 47.076 175.884 47.0576 175.889 47.0593C175.909 47.0677 175.889 47.081 175.879 47.0911C175.795 47.6376 175.973 47.9482 176.465 48.0863C176.575 48.1101 176.687 48.1208 176.8 48.1181C176.268 48.442 175.642 48.4487 175.46 48.1667V48.1675ZM178.337 46.7655C178.229 47.0297 178.053 47.2607 177.827 47.4351C177.879 47.2918 177.889 47.1363 177.854 46.9877C177.82 46.839 177.743 46.7036 177.632 46.5981C177.604 46.5669 177.566 46.5464 177.524 46.5399C177.482 46.5333 177.44 46.5412 177.403 46.5621C177.468 46.6002 177.522 46.6534 177.562 46.717C177.601 46.7807 177.625 46.853 177.631 46.9278C177.521 46.8525 177.324 46.9513 177.171 46.9446C177.105 46.9358 177.04 46.9227 176.975 46.9053C176.895 46.8933 176.813 46.901 176.736 46.9275C176.659 46.954 176.589 46.9986 176.533 47.0576C176.494 47.1025 176.467 47.1573 176.455 47.2162C176.444 47.2751 176.449 47.336 176.469 47.3924C176.498 47.463 176.551 47.5215 176.618 47.5585C176.685 47.5954 176.763 47.6085 176.838 47.5958C176.94 47.5741 177.04 47.5436 177.136 47.5046C177.18 47.4852 177.228 47.4757 177.276 47.4765C177.325 47.4774 177.372 47.4886 177.416 47.5096C177.246 47.6941 177.021 47.8184 176.774 47.8637C176.26 47.9524 175.846 47.6042 175.988 47.1597C176.021 47.0635 176.07 46.9741 176.135 46.8961C176.264 46.7389 176.434 46.6194 176.625 46.5503C176.817 46.4813 177.023 46.4651 177.223 46.5035C177.313 46.5394 177.413 46.5429 177.505 46.5135C177.36 46.4287 177.2 46.3738 177.034 46.352C177.236 46.2483 177.451 46.1701 177.673 46.1193C177.85 46.0625 178.042 46.0687 178.216 46.1369C178.422 46.2524 178.428 46.5253 178.337 46.7647V46.7655Z" fill="#C7D4DB"/>
<path d="M188.269 34.621C187.702 33.4151 187.275 32.1478 186.998 30.8443C187.009 30.7472 187.017 30.6493 187.03 30.5531C187.062 30.6358 187.121 30.7054 187.197 30.7503C187.273 30.7952 187.363 30.8129 187.45 30.8003C187.538 30.7877 187.619 30.7457 187.679 30.6812C187.74 30.6166 187.777 30.5334 187.784 30.4451C187.769 29.999 187.638 29.5644 187.404 29.1845C186.903 27.8439 186.608 26.4356 186.527 25.0069C186.355 23.5071 186.029 22.0289 185.555 20.5958L187.556 20.9842C187.429 19.2667 187.619 17.5405 188.116 15.8917C186.281 14.7832 184.237 14.0641 182.111 13.779C179.659 10.2004 176.22 7.41099 172.213 5.74946C168.481 4.26774 164.411 3.85444 160.457 4.55586C159.964 4.63957 159.393 4.84798 159.476 5.27319C159.569 5.74778 160.321 5.93778 160.884 6.12026C161.848 6.4175 162.658 7.07786 163.144 7.96172C163.292 8.32678 163.46 8.6836 163.646 9.03061C163.751 9.19074 163.882 9.33221 164.033 9.44913L164.043 9.45498C164.142 9.53083 164.25 9.59202 164.366 9.63662C165.304 10.1455 167.994 11.4555 169.472 10.6511C169.687 10.5519 169.872 10.3988 170.01 10.2066C170.076 10.116 170.132 10.0186 170.178 9.91617C170.35 9.51093 170.387 9.06071 170.282 8.63302C172.655 9.99905 180.415 14.9777 183.765 23.3797C182.933 21.0038 181.754 18.7642 180.266 16.7337C180.978 17.6438 181.634 18.5959 182.231 19.5847C184.866 23.7453 186.063 28.6564 185.636 33.563C185.665 33.4647 185.701 33.3685 185.743 33.2751C185.765 33.2211 185.782 33.165 185.792 33.1077C185.817 32.9704 185.818 32.8122 185.83 32.6691C185.857 32.3471 185.875 32.0226 185.883 31.6956C185.898 31.0347 185.876 30.3736 185.817 29.7152C185.691 28.3539 185.432 27.0083 185.044 25.6975C184.644 24.3441 184.135 23.0254 183.522 21.7542C183.319 21.3301 183.106 20.91 182.882 20.4937C182.771 20.2861 182.656 20.0793 182.54 19.8734C182.437 19.6678 182.322 19.469 182.194 19.2783C180.795 16.8987 179.073 14.7248 177.077 12.819C176.483 12.1873 175.84 11.5512 175.147 10.9106C177.662 12.8746 179.856 15.2165 181.653 17.8529C184.586 22.0424 186.163 27.0303 186.173 32.1442C186.204 32.8386 186.08 33.5311 185.81 34.1715C185.726 34.3654 185.596 34.5364 185.433 34.6707C185.27 34.805 185.077 34.8987 184.87 34.9441C184.692 34.9628 184.512 34.9363 184.346 34.8672C184.181 34.798 184.035 34.6883 183.923 34.5482C183.933 34.4241 183.959 34.3018 184 34.1841C184.016 34.257 184.049 34.325 184.096 34.3831C184.143 34.4412 184.203 34.4876 184.271 34.5189C184.283 34.523 184.296 34.526 184.309 34.5281C184.644 34.5858 184.717 34.0552 184.728 33.7748C184.739 33.484 184.733 33.1927 184.71 32.9026C184.7 32.7703 184.688 32.6381 184.672 32.5058C184.652 32.3451 184.626 32.1844 184.597 32.0245C182.708 18.7861 173.288 17.2837 173.288 17.2837C174.928 18.4675 176.445 19.812 177.818 21.2972L178.458 24.9031L179.345 23.0776C180.233 24.1755 181.009 25.3587 181.663 26.6098C182.049 27.2331 182.233 27.9606 182.188 28.6924C182.173 28.7387 182.168 28.7876 182.172 28.836C182.177 28.8845 182.191 28.9316 182.214 28.9744C182.224 28.9863 182.236 28.9956 182.25 29.0016C182.264 29.0076 182.279 29.0102 182.295 29.009C182.31 29.0079 182.325 29.0031 182.338 28.995C182.351 28.9869 182.361 28.9759 182.369 28.9627C182.409 29.1046 182.488 29.2323 182.598 29.331C182.419 30.3712 181.932 31.3337 181.2 32.0932C182.2 32.1964 183.204 31.9345 184.026 31.3558C184.043 31.4093 184.057 31.4637 184.072 31.5173C182.333 33.9031 181.29 36.7248 181.059 39.6683L186.129 37.9549L190 39.2891C189.53 37.6954 188.952 36.1357 188.269 34.621ZM166.088 6.73129C166.025 6.8792 165.909 6.99864 165.763 7.06687C165.618 7.13509 165.452 7.14732 165.298 7.10125C165.189 7.08618 165.079 7.05355 164.97 7.03011C164.955 7.02425 164.928 7.01839 164.926 7.01253C164.922 6.99077 164.943 6.99915 164.959 7.0025C165.461 6.75641 165.614 6.43749 165.449 5.95787C165.405 5.85499 165.349 5.75775 165.282 5.66825C165.858 5.91518 166.22 6.42327 166.09 6.73129H166.088ZM163.135 6.08761C162.987 5.97539 162.883 5.81533 162.84 5.63479C162.818 5.40461 163.04 5.24389 163.289 5.18195C163.57 5.11867 163.862 5.13023 164.137 5.21544C163.989 5.25395 163.856 5.33423 163.753 5.44663C163.65 5.55904 163.582 5.69878 163.557 5.84906C163.547 5.88993 163.552 5.93284 163.57 5.97062C163.589 6.0084 163.619 6.03878 163.657 6.05665C163.652 5.98183 163.665 5.9069 163.696 5.83825C163.726 5.7696 163.772 5.70925 163.831 5.66241C163.831 5.79466 164.025 5.89846 164.107 6.0282C164.137 6.08722 164.163 6.14817 164.185 6.21066C164.221 6.28356 164.275 6.34662 164.34 6.39445C164.406 6.44227 164.483 6.47342 164.563 6.4852C164.631 6.49489 164.7 6.48282 164.76 6.45072C164.821 6.41862 164.87 6.36815 164.9 6.30657C164.93 6.245 164.94 6.17546 164.928 6.108C164.916 6.04053 164.883 5.97861 164.833 5.9311C164.757 5.86017 164.675 5.79603 164.588 5.73942C164.504 5.67581 164.429 5.59043 164.432 5.5084C164.681 5.5413 164.912 5.65411 165.091 5.82982C165.458 6.19979 165.405 6.73549 164.956 6.87276C164.859 6.90149 164.757 6.91198 164.655 6.90372C164.502 6.89239 164.353 6.84996 164.217 6.77901C163.99 6.66291 163.81 6.4711 163.708 6.23661C163.686 6.14244 163.632 6.05891 163.555 6.00056C163.568 6.16675 163.614 6.32873 163.69 6.47683C163.49 6.37054 163.304 6.2398 163.137 6.08761H163.135Z" fill="#C7D4DB"/>
</svg>
