<svg width="768" height="624" viewBox="0 0 768 624" fill="none" xmlns="http://www.w3.org/2000/svg">
<rect y="224" width="768" height="400" fill="#182B34"/>
<path d="M582.535 49.609C581.835 48.4566 581.299 47.2104 580.557 46.0465C578.288 42.5434 575.581 39.4734 572.393 36.8251L572.405 36.7823C572.405 36.7823 572.405 36.7823 572.393 36.8251C571.832 36.3527 571.259 35.9231 570.687 35.4935C566.538 32.4948 562.467 29.3791 558.253 26.4545C553.805 23.3752 548.99 20.9776 543.727 19.5616C543.214 19.4234 542.735 19.1568 542.333 18.7733C540.217 16.9183 538.155 15.032 536.051 13.1342C534.102 11.508 531.803 10.8435 529.289 10.8096C526.087 10.7744 523.011 11.4619 519.892 12.1379C519.753 12.1462 519.609 12.3373 519.575 12.4657C519.382 13.0108 519.014 13.187 518.466 13.1773C518.1 13.1709 517.735 13.1644 517.432 13.2665C517.172 13.3802 516.952 13.6882 516.883 13.9451C516.848 14.0735 517.187 14.3484 517.389 14.4488C518.059 14.8586 518.806 15.1514 519.422 15.5925C519.687 15.8015 519.808 16.2016 519.996 16.5276C519.693 16.6297 519.39 16.7319 519.111 16.7485C517.658 16.8625 516.122 16.7708 514.72 17.0363C512.607 17.386 510.565 17.9843 508.449 18.5168C504.519 19.4795 500.617 20.6794 497.025 22.6052C487.865 27.4867 481.831 34.9078 478.676 44.7566C477.275 49.1088 476.656 53.6255 476.811 58.1666C476.844 58.7264 476.974 59.2664 477.158 59.7751C477.507 60.6954 477.704 61.6668 477.408 62.5972C477.02 63.8701 476.503 65.1084 475.955 66.2925C475.372 67.6049 474.79 68.9174 474.861 70.3597C474.944 72.2647 475.157 74.2043 475.435 76.0697C475.713 77.9352 476.445 79.6474 478.112 80.7846C478.42 81.0051 478.77 81.2372 479.09 81.4149C479.218 81.4495 479.346 81.484 479.432 81.507C480.047 80.7544 480.062 80.5288 479.562 79.6596C479.374 79.3336 479.101 78.9846 478.968 78.6274C478.866 78.3245 478.872 77.9589 478.879 77.5934C478.859 77.4962 479.057 77.2739 479.142 77.2969C479.881 77.4498 479.86 76.8472 479.975 76.4191C480.079 76.0338 480.159 75.7341 480.684 75.8294C480.813 75.8639 481.064 75.6103 481.11 75.439C481.333 74.4428 481.519 74.2633 482.587 74.0456C482.608 73.4545 482.934 73.2667 483.513 73.3308C483.867 73.3801 484.189 73.375 484.347 72.9584C484.382 72.83 484.619 72.8019 484.77 72.7508C485.279 72.5662 485.787 72.3817 486.296 72.1971C487.918 71.6236 489.549 71.1901 491.327 71.5765C491.455 71.611 491.661 71.5286 491.781 71.4232C492.141 71.107 492.483 71.1991 492.768 71.5053C493.232 71.9974 493.68 72.2097 494.16 71.7881C494.767 72.0892 495.332 72.3788 495.854 72.6569C496.364 72.9778 497.037 73.2049 497.372 73.6625C497.856 74.2518 498.463 74.5529 499.071 74.8541C499.316 74.966 499.716 74.844 499.953 74.8159C499.443 73.3013 498.983 71.9381 498.524 70.5749C497.904 68.6174 497.012 66.8163 495.686 65.2657C494.453 63.878 493.101 62.5958 491.791 61.325C490.079 59.6708 488.314 58.0478 486.614 56.3508C486.255 55.9788 486.028 55.4585 485.887 54.9613C485.372 53.124 485.404 51.2963 485.76 49.4636C486.158 47.6424 486.662 45.9414 488.127 44.5908C490.017 42.8498 492.107 41.392 494.706 40.9434C495.094 40.8642 495.459 40.8707 495.848 40.7916C495.9 41.4485 495.7 41.8536 495.285 42.2012C495.165 42.3066 495.087 42.4235 494.999 42.5832C494.864 42.9142 494.74 43.2024 494.648 43.5449C494.579 43.8018 494.467 44.0472 494.452 44.2728C494.53 45.3496 494.661 46.3951 494.77 47.5262C497.217 47.1287 499.628 46.3541 501.772 44.8649C502.392 44.435 502.962 43.8536 503.582 43.4237C505.126 42.4616 506.747 42.5764 508.369 43.1967C510.653 44.0868 512.722 45.6075 515.322 45.6644C515.284 45.9756 515.3 46.2555 515.243 46.4696C514.968 48.0026 514.214 49.269 513.289 50.4893C513.146 50.6804 513.089 50.8944 513 51.0542C513.062 51.1628 513.179 51.2402 513.242 51.3488C513.385 51.1578 513.528 50.9668 513.702 50.83C514.509 50.2206 515.284 49.5568 516.164 49.0132C516.99 48.5009 517.902 48.0116 518.822 47.6622C519.288 47.4661 519.898 47.5845 520.415 47.5399C520.359 49.4532 520.295 51.2265 520.23 52.9999C520.68 52.5239 521.152 51.9623 521.656 51.455C522.38 50.6397 523.092 49.8673 523.89 49.1179C524.088 48.8955 524.519 48.8279 524.83 48.8657C527.521 49.2683 530.2 49.7137 532.933 50.1278C533.94 50.3069 534.959 50.4433 536.106 50.6142C535.622 51.2186 535.215 51.7061 534.809 52.1936C534.027 53.2229 533.203 54.2407 532.452 55.3244C532.077 55.8662 531.936 56.5627 531.284 56.9383C531.284 56.9383 531.304 57.0355 531.312 57.1754C531.56 57.1045 531.797 57.0765 532.003 56.9941C533.055 56.4965 534.044 55.8903 535.115 55.4899C536.446 54.9758 537.883 54.5818 539.288 54.1335C539.44 54.0824 539.591 54.0313 539.708 54.1087C540.284 54.3555 540.718 54.1051 541.176 53.7691C541.459 53.5698 541.816 53.4363 542.204 53.3571C543.035 53.1675 543.886 53.0751 544.748 52.9398C544.942 52.9002 545.183 52.6894 545.24 52.4753C545.433 51.9303 545.775 52.0224 546.183 52.0403C549.142 52.4692 551.986 53.3262 554.841 54.1404C557.342 54.9053 559.878 55.5417 562.457 56.1897C563.141 56.3739 563.892 56.484 564.634 56.4541C566.569 56.4239 568.496 56.2537 570.408 56.3091C573.276 56.3922 576.105 56.281 578.7 54.8214C580.058 54.0389 581.447 53.3107 582.395 52.0048C582.844 51.5288 583.183 50.6099 582.535 49.609Z" fill="#182B34"/>
<path d="M460.454 213.85C456.969 214.519 453.076 214.073 448.698 213.243C442.898 218.401 443.927 217.361 435.693 215.125C428.615 216.271 429.696 223.874 405.176 224.163C404.12 226.099 424.591 228.545 424.004 230.848C423.401 233.212 429.62 258.729 437.837 242.874C438.083 246.797 441.55 250.089 442.21 253.927C443.344 260.527 448.822 247.855 450.274 254.343C451.148 258.253 452.136 262.036 453.31 265.816C454.712 270.328 455.315 275.145 456.842 279.615C460.456 290.195 464.581 301.009 471.454 308.972C475.67 313.855 481.185 316.433 486.688 318.357L487.204 318.538C492.286 320.316 497.347 322.086 502.555 323.29C509.41 324.874 516.352 326.914 523.357 327.247C531.393 327.629 539.499 327.534 547.546 327.056C567.394 325.877 586.809 320.075 605.879 313.2C615.426 309.759 624.709 306.265 633.516 300.335C639.632 296.219 645.86 291.619 651.137 285.966C660.717 275.7 668.863 263.643 674.664 249.734C678.132 241.418 697.866 243.361 696.442 234.16C694.825 223.71 696.311 226.655 683.759 223.29C668.743 223.467 640.091 219.437 622.87 206.932C621.149 205.682 619.136 205.135 617.415 203.859C615.585 202.502 613.794 202.867 611.75 203.448L605.961 205.093C604.366 205.546 601.047 206.349 599.828 204.738C599.278 204.011 597.982 203.714 597.224 203.36C596.378 202.967 595.32 202.237 594.349 202.448C592.781 202.789 591.187 203.363 590.287 205.079C588.09 209.268 589.441 214.694 586.148 217.988C584.684 219.453 581.614 217.317 580.614 216.491C578.863 215.044 576.187 214.384 574.697 212.578C573.294 210.878 571.682 209.469 570.392 207.507C569.75 206.53 568.782 205.344 567.972 204.524C567.588 204.134 567.432 203.167 566.973 202.962C566.56 202.778 566.107 202.833 565.707 202.623C564.541 202.011 562.025 203.241 560.788 203.593C558.947 204.116 557.115 203.046 555.432 202.395C554.111 201.884 552.224 199.428 551.775 197.762C551.512 196.786 550.926 196.149 550.743 195.083C550.595 194.226 550.141 192.769 549.713 192.054C548.664 190.296 548.794 188.818 546.625 189.435C545.048 189.883 543.962 190.537 542.718 191.672C541.607 192.685 538.801 192.848 537.624 191.993C536.147 190.92 534.442 189.531 532.8 188.895C531.65 188.45 529.928 188.576 528.898 187.829C528.486 187.53 526.896 185.584 527.825 185.006C527.928 184.941 527.43 185.085 527.186 184.896C526.865 184.647 526.638 184.259 526.256 184.111C525.111 183.668 523.648 180.588 523.418 179.246C523.031 176.994 522.557 174.867 522.272 172.578C521.788 168.698 525.358 165.611 526.824 162.815C527.246 162.012 528.353 160.847 528.362 159.833C528.374 158.649 527.47 158.82 526.924 158.396C526.001 157.681 524.897 155.91 523.931 155.595C522.232 155.04 520.947 154.294 519.771 152.659C519.156 151.804 518.577 151.22 517.78 150.602C516.946 149.955 515.749 150.654 514.83 150.915C513.27 151.359 511.192 153.053 511.572 155.26C511.699 156 511.844 157.524 512.452 157.885C512.749 158.062 513.743 159.572 513.808 159.948C514.157 161.983 514.109 164.173 512.802 165.75C511.858 166.888 510.449 168.851 510.111 170.439C509.74 172.184 509.015 174.858 509.236 176.632C509.431 178.195 509.47 181.866 508.888 183.297C508.214 184.952 507.48 186.419 506.248 187.543C505.079 188.61 503.348 188.795 501.893 189.208C500.782 189.524 498.002 189.721 497.3 190.785C496.884 191.416 496.278 191.637 495.938 192.474C495.603 193.296 495.28 194.196 494.873 194.971C494.07 196.502 493.242 199.07 492.745 200.899C492.259 202.681 490.491 204.193 489.274 205.304C488.139 206.34 486.511 206.582 485.38 207.615C484.362 208.544 482.424 209.426 481.174 209.781C477.823 210.733 474.699 212.79 471.355 211.998C469.634 211.59 467.658 212.657 465.905 212.924L465.878 212.928C465.156 213.038 462.903 213.38 460.454 213.85Z" fill="#182B34"/>
<path d="M498.255 166.165C498.813 166.006 499.542 165.512 500.112 165.35C500.502 165.239 501.392 164.495 501.29 163.901C501.195 163.346 501.159 162.217 500.782 161.865C500.473 161.577 500.323 161.109 499.97 160.835C499.653 160.589 499.293 160.48 498.965 160.292C498.319 159.922 497.359 159.833 496.661 160.031C495.555 160.346 494.627 160.71 493.888 161.788C493.341 162.587 493.264 164.767 494.051 165.376C494.809 165.964 495.734 166.476 496.663 166.502C497.26 166.519 497.688 166.326 498.255 166.165Z" fill="#182B34"/>
<path d="M490.698 162.501C491.365 163.018 492.157 162.523 492.8 162.216C493.023 162.11 493.159 161.921 493.348 161.748C493.626 161.494 493.965 160.954 493.892 160.528C493.731 159.595 493.355 158.451 492.392 158.725C491.387 159.011 490.404 159.799 490.229 161.132C490.167 161.607 490.369 162.246 490.698 162.501Z" fill="#182B34"/>
<path d="M505.687 159.496C505.942 160.982 507.56 161.088 508.591 160.655C508.98 160.242 509.358 159.634 509.236 158.924C509.074 157.983 508.706 156.803 507.729 157.08C506.663 157.383 505.39 157.769 505.687 159.496Z" fill="#182B34"/>
<path d="M493.63 171.359C494.221 172.393 495.267 171.94 495.705 171.544C496.195 171.18 495.934 170.501 495.757 170.027C495.545 169.458 494.86 169.459 494.455 169.574C493.854 169.744 493.186 170.584 493.63 171.359Z" fill="#182B34"/>
<path d="M490.799 191.878C491.113 192.815 492.488 191.783 492.953 191.514C493.411 191.173 493.094 189.961 492.711 189.645C492.357 189.353 492.317 189.272 491.892 189.393C491.61 189.473 491.369 189.579 491.102 189.719C490.336 190.123 490.563 191.171 490.799 191.878Z" fill="#182B34"/>
<path d="M518.924 147.94C519.27 149.955 520.513 150.469 521.517 149.087C521.959 148.645 522.287 147.702 522.175 147.053C522.035 146.235 520.979 146.198 520.377 146.24C519.704 146.287 518.756 146.959 518.924 147.94Z" fill="#182B34"/>
<path d="M522.231 145.035C522.473 146.221 523.717 147.231 524.577 146.37C525.033 145.914 525.165 145.175 525.336 144.923C525.548 144.61 525.629 144.293 525.81 143.948C526.116 143.365 526.573 142.174 527.125 141.884C527.706 141.578 528.892 140.655 528.702 139.783C528.502 138.862 527.791 138.103 527.007 138.326C526.176 138.562 525.756 139.529 525.17 140.248C524.905 140.573 524.569 140.974 524.216 141.159C523.894 141.329 523.333 141.5 523.132 141.796C522.996 141.998 522.72 142.125 522.602 142.35C522.477 142.589 522.383 142.897 522.287 143.156C522.033 143.838 522.089 144.339 522.231 145.035Z" fill="#182B34"/>
<path d="M523.506 148.409C524.074 147.326 526.582 147.008 526.876 148.539C527.049 149.54 526.68 150.145 525.887 150.37C525.24 150.554 524.274 150.551 523.673 150.176C523.128 149.835 523.23 148.936 523.506 148.409Z" fill="#182B34"/>
<path d="M533.652 151.313C534.529 152.128 536.076 151.52 536.941 150.815C537.666 150.275 538.061 148.729 537.4 147.949C537.029 147.513 536.438 147.237 535.942 147.104C535.404 146.96 534.758 147.462 534.248 147.607C533.636 147.781 533.131 148.598 532.918 149.298C532.837 149.564 533.007 150.195 533.078 150.459C533.192 150.881 533.375 151.055 533.652 151.313Z" fill="#182B34"/>
<path d="M540.228 152.153C540.748 152.793 541.485 152.491 542.088 152.163C542.57 152.026 542.747 150 542.65 149.435C542.476 148.424 542.443 147.166 541.544 146.793C540.996 146.566 540.156 146.856 539.854 147.467C539.589 148.005 539.444 149.236 539.547 149.832C539.672 150.563 539.777 151.599 540.228 152.153Z" fill="#182B34"/>
<path d="M538.559 154.232C538.762 155.415 539.434 157.262 540.65 156.254C541.083 155.7 541.149 155 541.022 154.264C540.913 153.63 540.319 152.665 539.707 152.839C539.016 153.036 538.381 153.195 538.559 154.232Z" fill="#182B34"/>
<path d="M545.976 171.096C546.201 172.404 547.607 172.014 548.362 171.602C548.735 171.23 548.632 170.192 548.447 169.786C548.081 168.985 547.75 169.063 547.082 169.253C546.16 169.515 545.776 169.932 545.976 171.096Z" fill="#182B34"/>
<path d="M546.333 179.738C546.8 179.195 547.678 179.014 548.196 179.402C548.475 179.485 548.648 180.444 548.539 180.705C548.3 181.275 547.924 181.749 547.463 182.055C547.211 182.222 547.03 182.522 546.779 182.691C546.595 182.814 546.375 182.927 546.226 183.112C545.981 183.415 545.848 183.778 545.726 184.174C545.444 185.089 544.882 185.965 544.09 186.19C543.564 186.339 542.65 186.737 542.235 186.135C541.949 185.721 541.966 184.633 542.203 184.206C542.616 183.462 543.227 183.063 543.839 182.627C544.542 182.125 545.149 181.644 545.665 180.848C545.903 180.482 546.048 180.07 546.333 179.738Z" fill="#182B34"/>
<path d="M513.37 136.381C513.835 136.314 514.203 136.066 514.624 135.837C515.393 135.265 515 133.444 514.484 132.921C513.802 132.229 512.905 132.191 512.067 132.493C511.764 132.602 511.2 133.451 511.196 133.855C511.192 134.302 511.198 134.857 511.468 135.231C511.723 135.587 511.988 136.324 512.476 136.253C512.758 136.212 513.064 136.426 513.37 136.381Z" fill="#182B34"/>
<path d="M473.956 142.435C474.763 143.557 474.12 145.21 473.765 146.39C473.428 146.726 474.311 149.134 474.532 149.505C475.113 150.478 475.179 152.02 474.99 153.142C474.882 153.781 474.674 154.642 474.077 154.812L472.842 155.163C472.281 155.322 471.817 154.975 471.375 154.618C470.781 154.137 470.817 153.404 470.5 152.715C470.291 152.261 470.398 151.501 470.14 151.108C469.724 150.475 469.13 149.889 468.642 149.335C467.846 148.429 466.703 146.706 467.249 145.318C467.762 144.015 468.965 143.31 469.478 142.005C469.713 141.409 469.408 140.991 469.179 140.49C468.955 139.999 468.831 138.973 468.977 138.452C469.607 136.203 470.71 134.973 472.604 134.38C473.825 133.997 475.019 133.551 476.257 133.2C477.115 132.956 477.974 132.299 478.614 131.537C478.991 131.089 479.298 130.687 479.62 130.187C479.954 129.67 480.154 128.918 480.549 128.466C480.919 128.043 481.201 127.301 481.539 126.797C481.97 126.155 482.11 126.005 482.788 125.812C484.339 125.372 485.871 125.253 487.344 124.407C488.274 123.873 489.243 122.391 488.072 121.442C487.681 121.126 487.057 120.774 486.757 120.358C486.474 119.964 486.464 118.896 486.506 118.405C486.604 117.245 486.347 114.588 484.957 114.983C484.207 115.197 483.458 115.555 482.699 115.31C482.237 115.161 482.351 114.364 482.342 113.946C482.313 112.638 483.747 112.367 484.296 111.475C484.799 110.659 484.027 108.859 483.877 107.985C483.628 106.536 484.305 106.091 485.369 105.788C486.227 105.545 487.523 105.357 488.349 105.793C488.964 106.118 488.994 107.373 489.111 108.051C489.279 109.034 489.333 110.021 489.501 110.997C489.619 111.682 489.753 112.426 490.412 112.582C491.593 112.862 492.803 114.237 493.307 115.589C494.02 117.501 496.314 117.552 496.694 119.765C496.878 120.838 496.784 121.707 496.562 122.749C496.339 123.799 495.261 124.286 494.539 124.632C492.345 125.684 490.127 126.697 487.949 127.781C486.808 128.35 485.66 129.264 484.678 130.169C483.976 130.815 483.142 131.732 482.3 132.05C481.924 132.192 481.662 132.515 481.264 132.628L480.103 132.958C479.46 133.141 478.795 133.188 478.143 133.373C477.023 133.691 476.908 135.932 476.71 137.042C476.391 138.84 474.54 139.259 473.831 140.697C473.627 141.113 473.702 142.083 473.956 142.435Z" fill="#182B34"/>
<path d="M483.601 139.623C484.319 140.715 485.05 140.061 485.798 139.425C486.471 138.924 486.297 137.975 485.843 137.284C485.592 136.903 485.404 136.571 484.953 136.686C484.583 136.78 483.889 136.902 483.631 137.282C483.203 137.914 483.158 138.948 483.601 139.623Z" fill="#182B34"/>
<path d="M494.476 134.547C494.93 134.877 495.658 134.079 495.979 133.837C496.553 133.41 496.791 133.194 497.212 132.572C497.633 131.951 498.578 132.108 499.084 131.646L499.085 131.645C499.602 131.173 499.987 130.822 499.841 129.974C499.714 129.236 499.36 129.046 498.781 129.211C498.008 129.43 497.394 130.172 496.606 130.396C495.915 130.593 495.255 130.679 494.559 130.978C493.959 131.236 493.874 132.394 493.977 132.995C494.043 133.38 494.2 134.347 494.476 134.547Z" fill="#182B34"/>
<path d="M463.121 129.021C462.662 130.282 462.846 130.793 463.686 130.956C464.771 131.462 465.678 129.036 464.68 128.263C464.162 127.861 463.358 128.369 463.121 129.021Z" fill="#182B34"/>
<path d="M479.247 161.098C479.916 161.145 480.308 161.41 480.956 161.226C482.13 160.353 481.558 159.32 481.342 158.066C481.199 157.234 479.634 155.979 478.954 155.987C477.933 155.999 476.337 156.661 476.249 157.993C476.196 158.795 476.798 159.714 477.288 160.14C477.971 160.735 478.361 161.036 479.247 161.098Z" fill="#182B34"/>
<path d="M539.375 131.103C539.751 132.403 540.976 132.387 541.861 132.136C542.533 131.636 543.07 131.247 542.887 130.179C542.783 129.572 542.391 127.843 541.737 127.851C540.842 127.861 539.75 128.36 539.261 129.294C539.016 129.761 539.23 130.603 539.375 131.103Z" fill="#182B34"/>
<path d="M525.827 122.075C526.027 123.512 526.577 123.99 527.734 123.661C528.23 123.52 529.169 123.291 529.013 122.382C528.908 121.773 528.617 120.601 527.959 120.609C527.351 120.616 525.677 120.998 525.827 122.075Z" fill="#182B34"/>
<path d="M519.383 128.541C519.739 129.39 519.98 129.528 520.67 129.332C521.348 129.139 521.921 128.884 522.144 127.997C522.239 127.615 521.88 126.185 521.505 126.264C520.899 126.391 519.819 126.507 519.404 127.12C519.081 127.596 519.17 128.03 519.383 128.541Z" fill="#182B34"/>
</svg>
