<svg width="1022" height="704" viewBox="0 0 1022 704" fill="none" xmlns="http://www.w3.org/2000/svg">
<path d="M847.288 50.571C846.575 49.3963 846.028 48.1259 845.272 46.9394C842.959 43.3683 840.199 40.2388 836.95 37.5392L836.962 37.4955C836.962 37.4955 836.962 37.4955 836.95 37.5392C836.378 37.0576 835.794 36.6197 835.21 36.1818C830.981 33.1249 826.831 29.9489 822.535 26.9675C818.001 23.8285 813.093 21.3844 807.728 19.9409C807.205 19.8001 806.716 19.5283 806.307 19.1373C804.15 17.2464 802.048 15.3235 799.903 13.3889C797.916 11.7311 795.573 11.0537 793.01 11.0193C789.745 10.9833 786.61 11.6842 783.431 12.3733C783.288 12.3817 783.143 12.5765 783.107 12.7074C782.911 13.2631 782.535 13.4428 781.977 13.4329C781.604 13.4263 781.232 13.4197 780.923 13.5238C780.658 13.6397 780.433 13.9536 780.363 14.2155C780.328 14.3464 780.673 14.6266 780.879 14.729C781.562 15.1467 782.324 15.4452 782.951 15.8949C783.221 16.108 783.345 16.5158 783.537 16.8481C783.228 16.9522 782.919 17.0564 782.634 17.0732C781.153 17.1895 779.588 17.096 778.158 17.3666C776.005 17.7231 773.923 18.333 771.765 18.8758C767.759 19.8573 763.782 21.0804 760.12 23.0436C750.783 28.0197 744.631 35.5847 741.415 45.6245C739.987 50.0611 739.357 54.6654 739.514 59.2945C739.548 59.8652 739.68 60.4157 739.868 60.9343C740.224 61.8724 740.425 62.8626 740.123 63.8111C739.727 65.1086 739.2 66.371 738.642 67.578C738.048 68.9159 737.454 70.2538 737.526 71.7241C737.611 73.6661 737.828 75.6432 738.111 77.5449C738.395 79.4465 739.141 81.1918 740.84 82.3511C741.154 82.576 741.511 82.8125 741.837 82.9937C741.968 83.0289 742.099 83.0641 742.186 83.0876C742.813 82.3203 742.828 82.0904 742.318 81.2043C742.127 80.872 741.849 80.5163 741.713 80.1521C741.609 79.8433 741.616 79.4707 741.622 79.098C741.602 78.999 741.803 78.7724 741.891 78.7958C742.644 78.9517 742.622 78.3374 742.739 77.901C742.845 77.5082 742.927 77.2027 743.463 77.2999C743.593 77.3351 743.85 77.0765 743.897 76.9019C744.123 75.8864 744.313 75.7034 745.402 75.4815C745.424 74.8789 745.756 74.6875 746.346 74.7528C746.707 74.803 747.036 74.7979 747.197 74.3732C747.232 74.2423 747.474 74.2136 747.628 74.1616C748.146 73.9734 748.665 73.7853 749.183 73.5971C750.837 73.0125 752.499 72.5706 754.311 72.9645C754.442 72.9997 754.652 72.9157 754.774 72.8082C755.142 72.4859 755.49 72.5798 755.781 72.8919C756.254 73.3936 756.71 73.61 757.2 73.1801C757.819 73.4871 758.394 73.7823 758.926 74.0658C759.446 74.393 760.132 74.6244 760.474 75.0909C760.967 75.6917 761.586 75.9986 762.205 76.3056C762.455 76.4197 762.863 76.2953 763.105 76.2667C762.585 74.7227 762.117 73.3331 761.649 71.9435C761.016 69.948 760.107 68.112 758.755 66.5313C757.499 65.1167 756.12 63.8096 754.784 62.5142C753.04 60.8279 751.24 59.1735 749.507 57.4435C749.141 57.0643 748.91 56.534 748.766 56.0271C748.241 54.1541 748.274 52.291 748.637 50.4228C749.043 48.5663 749.556 46.8323 751.049 45.4555C752.977 43.6808 755.107 42.1947 757.756 41.7373C758.152 41.6567 758.524 41.6633 758.92 41.5826C758.974 42.2523 758.769 42.6652 758.346 43.0195C758.224 43.127 758.145 43.2462 758.054 43.409C757.917 43.7464 757.791 44.0402 757.697 44.3893C757.627 44.6512 757.513 44.9013 757.497 45.1313C757.576 46.229 757.71 47.2947 757.821 48.4478C760.316 48.0426 762.773 47.2529 764.959 45.7349C765.591 45.2967 766.172 44.704 766.804 44.2657C768.378 43.285 770.03 43.402 771.684 44.0343C774.013 44.9417 776.121 46.4919 778.772 46.5499C778.733 46.8671 778.75 47.1525 778.691 47.3707C778.411 48.9334 777.643 50.2244 776.7 51.4684C776.554 51.6631 776.495 51.8814 776.405 52.0442C776.468 52.155 776.587 52.2338 776.651 52.3446C776.797 52.1498 776.943 51.9551 777.121 51.8157C777.943 51.1944 778.733 50.5178 779.63 49.9636C780.473 49.4414 781.402 48.9426 782.34 48.5865C782.814 48.3866 783.437 48.5072 783.964 48.4618C783.906 50.4122 783.841 52.2199 783.776 54.0276C784.234 53.5424 784.715 52.9699 785.228 52.4528C785.966 51.6217 786.693 50.8343 787.506 50.0703C787.708 49.8437 788.147 49.7747 788.464 49.8133C791.207 50.2237 793.938 50.6777 796.724 51.0998C797.751 51.2825 798.789 51.4215 799.959 51.5957C799.465 52.2118 799.051 52.7088 798.637 53.2057C797.84 54.255 796.999 55.2925 796.234 56.3972C795.852 56.9495 795.708 57.6596 795.043 58.0425C795.043 58.0425 795.063 58.1415 795.072 58.2841C795.325 58.2119 795.567 58.1833 795.776 58.0993C796.848 57.5921 797.857 56.9741 798.949 56.5659C800.306 56.0418 801.77 55.6402 803.203 55.1833C803.357 55.1312 803.511 55.0791 803.631 55.158C804.218 55.4095 804.661 55.1543 805.127 54.8117C805.415 54.6086 805.78 54.4725 806.175 54.3918C807.023 54.1985 807.89 54.1043 808.769 53.9664C808.967 53.926 809.212 53.7111 809.27 53.4929C809.467 52.9373 809.816 53.0312 810.232 53.0495C813.248 53.4867 816.147 54.3603 819.057 55.1902C821.607 55.97 824.192 56.6187 826.821 57.2793C827.518 57.467 828.283 57.5793 829.04 57.5488C831.013 57.518 832.977 57.3445 834.926 57.401C837.85 57.4858 840.734 57.3724 843.379 55.8845C844.763 55.0868 846.179 54.3445 847.145 53.0132C847.603 52.528 847.949 51.5913 847.288 50.571Z" fill="#182B34"/>
<path d="M722.84 217.997C719.287 218.679 715.318 218.224 710.856 217.378C704.943 222.636 705.992 221.576 697.598 219.296C690.383 220.465 691.485 228.215 666.49 228.51C665.413 230.483 686.282 232.976 685.683 235.324C685.068 237.734 691.408 263.746 699.784 247.583C700.035 251.583 703.569 254.938 704.241 258.851C705.398 265.579 710.983 252.661 712.462 259.275C713.354 263.26 714.361 267.117 715.557 270.97C716.986 275.57 717.601 280.481 719.157 285.037C722.842 295.822 727.047 306.846 734.053 314.963C738.351 319.941 743.972 322.569 749.583 324.531L750.109 324.715C755.29 326.527 760.448 328.332 765.757 329.559C772.745 331.174 779.822 333.253 786.962 333.593C795.154 333.982 803.417 333.885 811.62 333.398C831.854 332.196 851.645 326.282 871.085 319.274C880.817 315.765 890.28 312.204 899.258 306.159C905.492 301.963 911.842 297.274 917.22 291.511C926.986 281.046 935.29 268.756 941.203 254.577C944.739 246.099 964.856 248.08 963.404 238.701C961.756 228.048 963.27 231.05 950.475 227.619C935.168 227.8 905.96 223.692 888.405 210.945C886.651 209.671 884.599 209.113 882.844 207.812C880.979 206.429 879.154 206.801 877.069 207.393L871.168 209.07C869.543 209.532 866.159 210.35 864.917 208.708C864.356 207.967 863.035 207.664 862.262 207.304C861.4 206.903 860.321 206.159 859.331 206.374C857.733 206.722 856.108 207.306 855.191 209.056C852.951 213.326 854.328 218.858 850.971 222.215C849.479 223.708 846.349 221.531 845.33 220.689C843.545 219.214 840.817 218.541 839.298 216.7C837.868 214.968 836.225 213.531 834.91 211.531C834.255 210.534 833.268 209.326 832.443 208.489C832.051 208.092 831.892 207.106 831.424 206.898C831.004 206.71 830.542 206.766 830.134 206.552C828.946 205.928 826.381 207.182 825.119 207.541C823.243 208.074 821.375 206.984 819.66 206.32C818.313 205.798 816.39 203.295 815.932 201.597C815.663 200.602 815.066 199.952 814.879 198.866C814.729 197.993 814.266 196.507 813.83 195.778C812.76 193.987 812.893 192.48 810.682 193.108C809.075 193.565 807.967 194.232 806.699 195.388C805.567 196.422 802.706 196.587 801.506 195.716C800 194.622 798.263 193.206 796.589 192.558C795.416 192.104 793.661 192.233 792.611 191.471C792.191 191.166 790.571 189.182 791.517 188.593C791.622 188.528 791.114 188.674 790.866 188.481C790.538 188.228 790.307 187.832 789.918 187.681C788.751 187.23 787.259 184.089 787.024 182.721C786.63 180.427 786.148 178.258 785.856 175.924C785.363 171.969 789.003 168.822 790.497 165.972C790.926 165.153 792.055 163.966 792.065 162.932C792.076 161.725 791.155 161.9 790.598 161.468C789.658 160.739 788.533 158.934 787.548 158.612C785.816 158.046 784.506 157.286 783.307 155.619C782.68 154.748 782.09 154.152 781.278 153.522C780.428 152.863 779.207 153.576 778.27 153.842C776.68 154.294 774.562 156.021 774.949 158.271C775.078 159.025 775.226 160.579 775.846 160.947C776.149 161.127 777.162 162.666 777.228 163.049C777.584 165.124 777.536 167.356 776.203 168.964C775.241 170.125 773.804 172.125 773.46 173.744C773.082 175.523 772.342 178.249 772.568 180.057C772.767 181.65 772.806 185.393 772.213 186.851C771.526 188.538 770.778 190.034 769.522 191.18C768.33 192.267 766.565 192.456 765.082 192.877C763.95 193.199 761.116 193.4 760.401 194.484C759.977 195.128 759.359 195.353 759.012 196.206C758.671 197.044 758.341 197.962 757.926 198.752C757.108 200.313 756.264 202.93 755.756 204.794C755.262 206.612 753.46 208.152 752.218 209.285C751.061 210.341 749.402 210.588 748.249 211.641C747.211 212.588 745.235 213.487 743.962 213.849C740.545 214.82 737.361 216.916 733.952 216.108C732.197 215.693 730.183 216.781 728.396 217.053L728.369 217.057C727.633 217.169 725.336 217.518 722.84 217.997Z" fill="#182B34"/>
<path d="M761.373 169.387C761.942 169.225 762.686 168.721 763.266 168.556C763.664 168.443 764.572 167.685 764.467 167.079C764.37 166.514 764.334 165.363 763.949 165.003C763.635 164.71 763.482 164.233 763.122 163.954C762.798 163.703 762.432 163.592 762.098 163.4C761.439 163.023 760.461 162.932 759.748 163.135C758.621 163.455 757.675 163.826 756.922 164.926C756.364 165.74 756.286 167.962 757.088 168.583C757.861 169.183 758.804 169.704 759.75 169.731C760.36 169.748 760.796 169.551 761.373 169.387Z" fill="#182B34"/>
<path d="M753.67 165.652C754.35 166.179 755.157 165.675 755.813 165.362C756.041 165.253 756.179 165.06 756.372 164.885C756.655 164.626 757 164.075 756.926 163.641C756.762 162.689 756.378 161.524 755.397 161.803C754.372 162.094 753.371 162.898 753.192 164.257C753.129 164.741 753.335 165.392 753.67 165.652Z" fill="#182B34"/>
<path d="M768.95 162.589C769.21 164.103 770.859 164.211 771.91 163.77C772.306 163.349 772.692 162.73 772.567 162.006C772.403 161.046 772.028 159.843 771.032 160.126C769.945 160.435 768.647 160.828 768.95 162.589Z" fill="#182B34"/>
<path d="M756.659 174.682C757.262 175.736 758.328 175.274 758.775 174.871C759.274 174.499 759.008 173.808 758.828 173.324C758.611 172.744 757.913 172.745 757.5 172.862C756.888 173.036 756.207 173.892 756.659 174.682Z" fill="#182B34"/>
<path d="M753.774 195.599C754.093 196.554 755.495 195.502 755.968 195.228C756.436 194.88 756.112 193.645 755.722 193.322C755.362 193.024 755.32 192.942 754.887 193.065C754.6 193.147 754.354 193.255 754.082 193.398C753.301 193.81 753.532 194.878 753.774 195.599Z" fill="#182B34"/>
<path d="M782.444 150.808C782.797 152.862 784.063 153.386 785.087 151.978C785.537 151.528 785.872 150.566 785.758 149.905C785.615 149.07 784.539 149.033 783.924 149.076C783.238 149.124 782.272 149.808 782.444 150.808Z" fill="#182B34"/>
<path d="M785.814 147.847C786.061 149.057 787.33 150.086 788.206 149.209C788.672 148.743 788.806 147.991 788.98 147.734C789.197 147.414 789.278 147.091 789.463 146.739C789.775 146.145 790.241 144.931 790.803 144.635C791.396 144.323 792.605 143.382 792.411 142.493C792.207 141.555 791.483 140.781 790.683 141.009C789.836 141.249 789.408 142.235 788.811 142.968C788.54 143.299 788.198 143.708 787.839 143.897C787.51 144.07 786.938 144.244 786.733 144.546C786.594 144.751 786.313 144.881 786.193 145.111C786.065 145.354 785.97 145.668 785.871 145.932C785.613 146.627 785.67 147.137 785.814 147.847Z" fill="#182B34"/>
<path d="M787.115 151.287C787.694 150.183 790.25 149.859 790.55 151.419C790.726 152.44 790.35 153.056 789.542 153.286C788.882 153.474 787.897 153.47 787.285 153.088C786.729 152.74 786.833 151.824 787.115 151.287Z" fill="#182B34"/>
<path d="M797.457 154.247C798.351 155.078 799.928 154.458 800.81 153.739C801.549 153.189 801.952 151.613 801.278 150.818C800.9 150.374 800.297 150.092 799.791 149.957C799.243 149.81 798.585 150.321 798.065 150.469C797.441 150.646 796.926 151.48 796.709 152.193C796.627 152.464 796.8 153.108 796.872 153.376C796.988 153.807 797.174 153.984 797.457 154.247Z" fill="#182B34"/>
<path d="M804.16 155.103C804.691 155.756 805.442 155.448 806.057 155.113C806.548 154.973 806.729 152.909 806.63 152.333C806.453 151.302 806.419 150.02 805.502 149.64C804.943 149.408 804.087 149.703 803.78 150.327C803.509 150.875 803.362 152.129 803.466 152.738C803.594 153.482 803.701 154.539 804.16 155.103Z" fill="#182B34"/>
<path d="M802.459 157.222C802.666 158.429 803.351 160.312 804.591 159.284C805.033 158.719 805.099 158.006 804.97 157.255C804.859 156.609 804.254 155.626 803.629 155.803C802.925 156.003 802.277 156.166 802.459 157.222Z" fill="#182B34"/>
<path d="M810.02 174.414C810.249 175.747 811.683 175.349 812.453 174.93C812.832 174.55 812.728 173.492 812.539 173.078C812.166 172.262 811.829 172.341 811.148 172.535C810.208 172.802 809.816 173.228 810.02 174.414Z" fill="#182B34"/>
<path d="M810.384 183.223C810.86 182.67 811.755 182.485 812.283 182.881C812.567 182.965 812.744 183.943 812.633 184.209C812.39 184.79 812.006 185.274 811.536 185.585C811.279 185.755 811.094 186.061 810.839 186.233C810.652 186.359 810.427 186.474 810.275 186.662C810.025 186.972 809.89 187.341 809.765 187.746C809.478 188.678 808.905 189.571 808.097 189.8C807.562 189.952 806.63 190.358 806.206 189.745C805.915 189.322 805.932 188.213 806.174 187.778C806.595 187.019 807.217 186.613 807.842 186.168C808.559 185.657 809.177 185.166 809.703 184.355C809.946 183.982 810.094 183.562 810.384 183.223Z" fill="#182B34"/>
<path d="M776.782 139.026C777.256 138.957 777.631 138.704 778.06 138.471C778.844 137.888 778.444 136.031 777.918 135.498C777.223 134.793 776.308 134.754 775.454 135.062C775.145 135.173 774.57 136.039 774.566 136.451C774.561 136.906 774.568 137.472 774.843 137.854C775.103 138.216 775.373 138.967 775.87 138.895C776.158 138.854 776.47 139.071 776.782 139.026Z" fill="#182B34"/>
<path d="M736.603 145.197C737.426 146.341 736.771 148.026 736.409 149.229C736.066 149.572 736.965 152.026 737.191 152.404C737.783 153.396 737.85 154.968 737.657 156.111C737.547 156.763 737.336 157.641 736.727 157.814L735.468 158.171C734.896 158.334 734.423 157.981 733.972 157.616C733.367 157.126 733.404 156.379 733.081 155.677C732.867 155.214 732.977 154.439 732.713 154.038C732.289 153.393 731.684 152.796 731.187 152.231C730.375 151.308 729.21 149.551 729.767 148.136C730.289 146.808 731.516 146.089 732.039 144.759C732.278 144.151 731.967 143.725 731.734 143.215C731.506 142.713 731.38 141.668 731.528 141.137C732.17 138.844 733.295 137.59 735.225 136.986C736.47 136.595 737.688 136.141 738.949 135.783C739.824 135.534 740.699 134.865 741.352 134.088C741.736 133.631 742.049 133.222 742.378 132.712C742.718 132.184 742.922 131.418 743.325 130.957C743.701 130.526 743.989 129.77 744.334 129.256C744.773 128.602 744.916 128.448 745.607 128.252C747.187 127.803 748.75 127.682 750.251 126.82C751.2 126.275 752.187 124.764 750.993 123.797C750.595 123.475 749.958 123.116 749.653 122.692C749.364 122.29 749.354 121.202 749.397 120.701C749.497 119.518 749.235 116.81 747.818 117.213C747.053 117.43 746.29 117.796 745.516 117.546C745.045 117.394 745.161 116.582 745.152 116.155C745.122 114.823 746.584 114.546 747.144 113.637C747.657 112.805 746.87 110.97 746.717 110.079C746.463 108.602 747.153 108.148 748.238 107.84C749.112 107.591 750.434 107.4 751.275 107.844C751.902 108.175 751.933 109.455 752.052 110.146C752.224 111.148 752.279 112.155 752.45 113.15C752.57 113.848 752.707 114.606 753.378 114.766C754.583 115.051 755.816 116.452 756.33 117.831C757.057 119.78 759.395 119.831 759.782 122.087C759.97 123.181 759.874 124.067 759.648 125.13C759.421 126.199 758.322 126.696 757.586 127.049C755.349 128.121 753.088 129.153 750.868 130.259C749.705 130.839 748.534 131.771 747.534 132.693C746.818 133.352 745.968 134.287 745.109 134.611C744.726 134.755 744.459 135.085 744.054 135.2L742.869 135.536C742.215 135.722 741.536 135.771 740.872 135.959C739.73 136.284 739.613 138.568 739.411 139.7C739.086 141.533 737.199 141.96 736.476 143.426C736.268 143.849 736.345 144.838 736.603 145.197Z" fill="#182B34"/>
<path d="M746.436 142.331C747.168 143.444 747.913 142.777 748.675 142.128C749.361 141.618 749.184 140.651 748.721 139.946C748.465 139.557 748.274 139.22 747.814 139.336C747.436 139.432 746.729 139.557 746.466 139.944C746.03 140.589 745.984 141.642 746.436 142.331Z" fill="#182B34"/>
<path d="M757.522 137.156C757.985 137.493 758.726 136.679 759.053 136.432C759.638 135.997 759.881 135.777 760.311 135.143C760.74 134.51 761.704 134.669 762.219 134.199L762.22 134.198C762.747 133.717 763.139 133.359 762.99 132.494C762.861 131.742 762.5 131.549 761.91 131.716C761.122 131.94 760.496 132.697 759.693 132.925C758.988 133.125 758.316 133.213 757.606 133.518C756.994 133.781 756.908 134.961 757.013 135.574C757.081 135.967 757.24 136.952 757.522 137.156Z" fill="#182B34"/>
<path d="M725.558 131.523C725.09 132.809 725.278 133.33 726.134 133.496C727.241 134.011 728.165 131.538 727.147 130.75C726.62 130.341 725.8 130.858 725.558 131.523Z" fill="#182B34"/>
<path d="M741.997 164.222C742.679 164.27 743.079 164.54 743.74 164.352C744.936 163.462 744.352 162.41 744.133 161.132C743.987 160.283 742.392 159.003 741.698 159.012C740.657 159.024 739.031 159.698 738.941 161.056C738.887 161.874 739.501 162.811 740.001 163.246C740.697 163.852 741.094 164.159 741.997 164.222Z" fill="#182B34"/>
<path d="M803.291 133.645C803.675 134.97 804.924 134.954 805.825 134.698L805.844 134.684C806.52 134.181 807.057 133.782 806.871 132.703C806.765 132.085 806.366 130.322 805.699 130.33C804.786 130.341 803.674 130.849 803.175 131.802C802.925 132.277 803.143 133.136 803.291 133.645Z" fill="#182B34"/>
<path d="M789.48 124.442C789.684 125.907 790.245 126.394 791.424 126.059C791.93 125.915 792.887 125.682 792.728 124.755C792.621 124.135 792.325 122.94 791.654 122.948C791.034 122.955 789.327 123.344 789.48 124.442Z" fill="#182B34"/>
<path d="M782.912 131.033C783.274 131.899 783.52 132.039 784.223 131.839C784.915 131.643 785.499 131.384 785.726 130.479C785.823 130.09 785.457 128.632 785.075 128.712C784.457 128.841 783.356 128.96 782.933 129.584C782.604 130.07 782.694 130.512 782.912 131.033Z" fill="#182B34"/>
<rect y="228" width="1024" height="476" fill="#182B34"/>
</svg>
