<svg width="97" height="32" viewBox="0 0 97 32" fill="none" xmlns="http://www.w3.org/2000/svg">
<path d="M6.39313 12.5262V12.4399L2.72989 8.59748L6.11078 4.94979V4.90662H4.32773L1.43513 8.12948V4.90662H6.10352e-05V12.5284H1.43513V9.15139L4.62001 12.5266L6.39313 12.5262Z" fill="white"/>
<path d="M7.19696 8.76935C7.19696 10.773 8.43602 12.6981 11.1102 12.6981C13.7843 12.6981 14.9906 10.7272 15.0126 8.7564C15.0342 6.76354 13.7299 4.74951 11.1102 4.74951C8.47963 4.75167 7.19696 6.76612 7.19696 8.76935ZM13.5995 8.78058C13.5779 10.0326 12.904 11.3826 11.1102 11.3826C9.31632 11.3826 8.6424 10.0443 8.61002 8.79224C8.57721 7.50741 9.31675 6.05896 11.1102 6.05896C12.9036 6.05896 13.6215 7.49532 13.5987 8.78145L13.5995 8.78058Z" fill="white"/>
<path d="M22.5016 11.1979H18.5884V4.90454H17.1533V12.5263H22.5016V11.1979Z" fill="white"/>
<path d="M26.0225 11.0886H30.0009L30.6425 12.5258H32.2079L28.7947 4.90405H27.2297L23.8164 12.5258H25.3706L26.0225 11.0886ZM28.012 6.50491L29.425 9.74937H26.5989L28.012 6.50491Z" fill="white"/>
<path d="M6.8549 24.3173L4.55032 21.7148C5.11385 21.6314 5.62513 21.3384 5.9819 20.8943C6.33867 20.4502 6.51462 19.8878 6.47454 19.3196C6.47454 18.0019 5.52905 16.8043 3.73521 16.7935C2.52896 16.7935 1.32229 16.7827 0.115601 16.7827V24.4153H1.55066V21.8681H2.9322L5.15 24.4153H6.8549V24.3173ZM1.55024 20.5716V18.1327H3.73521C3.90231 18.1214 4.06996 18.1445 4.22775 18.2007C4.38553 18.2568 4.53009 18.3448 4.65246 18.4591C4.77483 18.5735 4.8724 18.7117 4.9391 18.8654C5.0058 19.019 5.04022 19.1847 5.04022 19.3522C5.04022 19.5196 5.0058 19.6853 4.9391 19.8389C4.8724 19.9926 4.77483 20.1308 4.65246 20.2452C4.53009 20.3595 4.38553 20.4475 4.22775 20.5036C4.06996 20.5598 3.90231 20.5829 3.73521 20.5716H1.55024Z" fill="white"/>
<path d="M14.2044 18.1871V16.7935H8.50861V24.4152H14.2044V22.9996H9.93245V21.2796H14.0525V19.9412H9.93245V18.1884L14.2044 18.1871Z" fill="white"/>
<path d="M19.5298 23.3259C18.6059 23.3259 17.7251 22.956 17.388 22.1171L16.1921 22.7375C16.7572 24.1311 17.9531 24.6104 19.5078 24.6104C21.2036 24.6104 22.7026 23.8807 22.7026 22.1823C22.7026 20.3638 21.2243 19.9503 19.6373 19.7542C18.7242 19.6455 17.9414 19.4602 17.9414 18.7962C17.9414 18.2302 18.4526 17.7834 19.5177 17.7834C19.8644 17.7711 20.209 17.8418 20.5228 17.9895C20.8367 18.1372 21.1108 18.3577 21.3223 18.6326L22.4634 18.0446C21.887 16.8686 20.6592 16.5314 19.4741 16.5314C18.0718 16.5422 16.5284 17.1846 16.5284 18.7526C16.5284 20.4623 17.9635 20.8759 19.5177 21.0607C20.5284 21.1695 21.2787 21.4635 21.2787 22.1832C21.28 23.0112 20.4321 23.3259 19.5298 23.3259Z" fill="white"/>
<path d="M30.5735 18.1871V16.7935H24.8773V24.4152H30.5735V22.9996H26.2994V21.2796H30.4194V19.9412H26.2994V18.1884L30.5735 18.1871Z" fill="white"/>
<path d="M37.8122 24.4153H39.5188V24.3173L37.2143 21.7148C37.7778 21.6314 38.2891 21.3384 38.6458 20.8943C39.0026 20.4502 39.1786 19.8878 39.1385 19.3196C39.1385 18.0019 38.193 16.8043 36.3992 16.7935C35.1925 16.7935 33.9862 16.7827 32.7795 16.7827V24.4153H34.2146V21.8681H35.5961L37.8122 24.4153ZM34.2142 18.1332H36.3992C36.5662 18.1218 36.7339 18.1449 36.8917 18.2011C37.0495 18.2572 37.194 18.3452 37.3164 18.4596C37.4388 18.5739 37.5363 18.7122 37.603 18.8658C37.6697 19.0194 37.7042 19.1851 37.7042 19.3526C37.7042 19.5201 37.6697 19.6857 37.603 19.8394C37.5363 19.993 37.4388 20.1313 37.3164 20.2456C37.194 20.36 37.0495 20.4479 36.8917 20.5041C36.7339 20.5602 36.5662 20.5834 36.3992 20.572H34.2142V18.1332Z" fill="white"/>
<path d="M44.5724 22.7267L42.2786 16.7926H40.67L43.8333 24.4467H45.3228L48.486 16.7926H46.8774L44.5724 22.7267Z" fill="white"/>
<path d="M50.4302 24.4153H56.126V22.9996H51.8541V21.2796H55.9741V19.9412H51.8541V18.1884H56.126V16.7948H50.4302V24.4153Z" fill="white"/>
<path d="M69.7804 18.9223C69.9259 18.7803 70.0637 18.6305 70.1931 18.4737C70.2491 18.3927 70.291 18.3028 70.317 18.2078V18.2017C70.334 18.1403 70.3418 18.0768 70.3404 18.0131C70.3982 17.4687 70.4923 15.9365 69.8132 15.3968C69.7227 15.3147 69.6125 15.2575 69.4933 15.2306C69.4367 15.2168 69.3788 15.209 69.3206 15.2073C69.0923 15.2062 68.8696 15.2782 68.6851 15.4128C68.869 14.0191 69.7156 9.36164 73.0784 6.11028C72.1062 6.97329 71.2666 7.97504 70.5869 9.08317C70.8822 8.56598 71.2083 8.06701 71.5634 7.58895C73.0421 5.51193 75.157 3.97305 77.5882 3.20516C77.5352 3.21091 77.4818 3.21307 77.4285 3.21164C77.3985 3.21187 77.3685 3.21505 77.3391 3.22114C77.2683 3.23711 77.1923 3.26776 77.1233 3.29064C76.9638 3.34159 76.8055 3.39772 76.6484 3.45902C76.3286 3.58298 76.016 3.72466 75.7119 3.88341C75.0858 4.21257 74.493 4.60166 73.9418 5.0452C73.3729 5.50224 72.8418 6.00438 72.3535 6.54676C72.1906 6.72693 72.0316 6.91128 71.8765 7.0998C71.799 7.19392 71.7226 7.2889 71.6472 7.38474C71.5693 7.47382 71.4971 7.56785 71.4313 7.66623C70.5693 8.7976 69.869 10.0434 69.3504 11.3679C69.1656 11.7741 68.9869 12.2041 68.8189 12.6588C69.2627 11.0774 69.9497 9.57473 70.8554 8.2046C72.2885 5.98033 74.365 4.24523 76.8085 3.2302C77.1354 3.07793 77.4918 2.99938 77.8525 3.00009C77.9617 3.00116 78.0692 3.02812 78.166 3.07878C78.2628 3.12944 78.3462 3.20235 78.4094 3.29151C78.454 3.37197 78.4774 3.46244 78.4774 3.55443C78.4774 3.64643 78.454 3.7369 78.4094 3.81736C78.348 3.83727 78.2843 3.84945 78.2199 3.85362C78.2516 3.83157 78.2777 3.80248 78.2963 3.76863C78.3149 3.73477 78.3254 3.69707 78.3269 3.65848C78.3265 3.65179 78.3254 3.64515 78.3239 3.63862C78.2859 3.46982 78.0161 3.53975 77.8792 3.59026C77.7376 3.6425 77.5992 3.70305 77.4648 3.7716H77.4622C77.4009 3.80268 77.3396 3.83463 77.2796 3.86873C77.2066 3.91191 77.1349 3.95508 77.0637 3.99825C71.0929 7.51815 72.2417 12.2711 72.2417 12.2711C72.4841 11.2598 72.8275 10.2754 73.2666 9.33271L74.8679 8.31469L73.8166 8.25727C74.1673 7.61892 74.5803 7.01687 75.0497 6.45998C75.2729 6.15312 75.585 5.92224 75.9438 5.79857C75.9689 5.79634 75.9932 5.78913 76.0155 5.77734C76.0377 5.76555 76.0574 5.74943 76.0733 5.72992C76.077 5.72303 76.079 5.71534 76.079 5.70752C76.0791 5.6997 76.0773 5.69198 76.0737 5.68501C76.0702 5.67805 76.065 5.67205 76.0586 5.66754C76.0522 5.66303 76.0448 5.66014 76.037 5.65912C76.0964 5.61204 76.1413 5.5492 76.1666 5.47779C76.6998 5.35542 77.2574 5.39465 77.7683 5.59047C77.6186 5.09572 77.2936 4.67253 76.8543 4.40019C76.8767 4.38163 76.8996 4.36393 76.9225 4.34623C78.4135 4.69473 79.9715 4.62784 81.4272 4.15281L79.6001 2.09518L79.4706 0C78.8009 0.539362 78.1686 1.12369 77.5783 1.74894C77.112 2.25687 76.5892 2.70996 76.0202 3.09939C75.9714 3.11321 75.9226 3.12918 75.8738 3.14257C75.9082 3.11151 75.9308 3.06945 75.9376 3.02361C75.9445 2.97776 75.9351 2.93096 75.9113 2.89123C75.8874 2.85149 75.8505 2.82129 75.8068 2.80579C75.7631 2.79029 75.7154 2.79045 75.6718 2.80625C75.461 2.90186 75.2788 3.05064 75.1429 3.23798C74.5987 3.74113 73.9825 4.16021 73.3145 4.48136C72.6303 4.8598 71.9864 5.30709 71.3929 5.81627L71.1822 4.79307C70.3836 5.19427 69.5188 5.44705 68.6298 5.5391C68.4626 6.62596 68.5235 7.73574 68.8086 8.7978C67.5819 10.6605 66.9267 12.8413 66.9236 15.0717C66.954 17.1306 67.5642 19.1393 68.6842 20.8672C68.8215 21.0831 69.0357 21.3128 69.2226 21.1884C69.4316 21.0503 69.3733 20.657 69.3495 20.3548C69.301 19.8394 69.4556 19.3254 69.7804 18.9223ZM68.6083 17.7735C68.7719 17.7735 68.8889 17.868 68.942 18.0757C68.9562 18.1301 68.9627 18.1884 68.9731 18.2449C68.9731 18.2531 68.9757 18.2674 68.9731 18.2687C68.9636 18.2751 68.9631 18.2635 68.9618 18.2553C68.9261 18.2114 68.8815 18.1757 68.8309 18.1504C68.7803 18.125 68.7249 18.1108 68.6684 18.1084C68.6119 18.1061 68.5555 18.1158 68.503 18.1369C68.4505 18.1579 68.4031 18.1899 68.3639 18.2307C68.3231 18.2712 68.2873 18.3164 68.2573 18.3654C68.2629 18.045 68.4343 17.773 68.6083 17.7735ZM69.0016 18.6477C68.9911 18.7789 68.9348 18.9022 68.8427 18.9961C68.802 19.0249 68.7726 19.0671 68.7598 19.1153C68.8368 19.0766 68.9054 19.0228 68.9614 18.9573C68.9504 19.0734 68.9249 19.1877 68.8854 19.2975C68.8607 19.39 68.8045 19.4711 68.7265 19.5267C68.6208 19.5833 68.4995 19.5103 68.4205 19.4041C68.3344 19.2842 68.2818 19.1435 68.2681 18.9966C68.3163 19.0588 68.3814 19.106 68.4556 19.1323C68.5299 19.1586 68.6101 19.1631 68.6868 19.1451C68.7083 19.1416 68.728 19.1309 68.7425 19.1147C68.757 19.0986 68.7656 19.0779 68.7667 19.0561C68.7319 19.0734 68.6935 19.082 68.6546 19.0813C68.6158 19.0807 68.5777 19.0707 68.5435 19.0522C68.607 19.0259 68.6182 18.9137 68.6639 18.8493C68.6862 18.8233 68.7101 18.7988 68.7356 18.7759C68.7631 18.7445 68.7827 18.7069 68.7925 18.6663C68.8024 18.6257 68.8022 18.5833 68.7922 18.5428C68.7834 18.5129 68.7668 18.4859 68.744 18.4647C68.7212 18.4435 68.6931 18.4289 68.6627 18.4224C68.6239 18.4154 68.5838 18.4217 68.549 18.4402C68.5143 18.4588 68.4868 18.4885 68.471 18.5247C68.4521 18.5745 68.4376 18.626 68.4278 18.6784C68.4241 18.7029 68.415 18.7263 68.4012 18.7469C68.3874 18.7675 68.3692 18.7848 68.3479 18.7975C68.3145 18.6732 68.3228 18.5414 68.3717 18.4224C68.4761 18.1758 68.7434 18.0942 68.8984 18.279C68.9315 18.3195 68.9568 18.3657 68.9731 18.4155C68.9985 18.4901 69.0082 18.5692 69.0016 18.6477Z" fill="white"/>
<path d="M93.0646 22.1478C92.8345 22.0476 92.5327 22.3084 92.2874 22.4931C91.8759 22.8116 91.3573 22.9587 90.8399 22.9037C90.6404 22.8585 90.4386 22.8241 90.2354 22.8005C90.1365 22.7974 90.0377 22.8109 89.9431 22.8403L89.9375 22.8428C89.8763 22.8618 89.8181 22.8896 89.7648 22.9253C89.2662 23.174 87.8881 23.9369 87.8272 24.809C87.8135 24.9189 87.8258 25.0306 87.8631 25.1349C87.8819 25.1896 87.9065 25.2421 87.9365 25.2916C88.0595 25.4838 88.2412 25.6313 88.4545 25.7121C87.174 26.3105 82.7691 28.1156 78.1988 27.0578C79.4566 27.4054 80.7586 27.5669 82.0632 27.537C81.4656 27.5692 80.8666 27.5657 80.2694 27.5267C77.7189 27.4141 75.274 26.4763 73.3025 24.8543C73.336 24.8953 73.3666 24.9386 73.3941 24.9838C73.4106 25.0088 73.4295 25.032 73.4506 25.0533C73.5024 25.1038 73.5694 25.1509 73.6272 25.1979C73.7564 25.3039 73.8898 25.4066 74.0274 25.5062C74.3047 25.7067 74.593 25.8916 74.8909 26.0601C75.5087 26.4067 76.1586 26.6926 76.8315 26.9141C77.5264 27.1434 78.2386 27.3166 78.9612 27.4321C79.2018 27.4713 79.4439 27.5048 79.6874 27.5327C79.8089 27.5468 79.9306 27.5595 80.0526 27.5707C80.1703 27.5881 80.289 27.5979 80.408 27.6001C81.8334 27.7097 83.2671 27.6226 84.6687 27.341C85.1125 27.2767 85.5753 27.1938 86.0502 27.0889C84.4709 27.571 82.8268 27.8072 81.1756 27.7892C78.5243 27.7934 75.9341 26.9936 73.7468 25.4954C73.4418 25.3049 73.1828 25.0492 72.9882 24.7468C72.9303 24.6547 72.8952 24.5502 72.8858 24.4418C72.8765 24.3334 72.8933 24.2244 72.9347 24.1238C72.9795 24.043 73.0439 23.9747 73.122 23.9254C73.2001 23.876 73.2893 23.8471 73.3816 23.8414C73.4315 23.882 73.4762 23.9287 73.5145 23.9805C73.4786 23.9658 73.4398 23.9596 73.4011 23.9623C73.3624 23.965 73.3249 23.9765 73.2913 23.996C73.2859 24.0001 73.2809 24.0045 73.2762 24.0094C73.1536 24.1324 73.3582 24.3202 73.4752 24.4074C73.596 24.4977 73.722 24.5807 73.8526 24.6561H73.8552C73.9147 24.6907 73.9748 24.7243 74.0361 24.7563C74.1103 24.7951 74.1867 24.8314 74.2631 24.8664C80.4688 27.9601 83.8778 24.4346 83.8778 24.4346C82.8898 24.7775 81.8702 25.0215 80.8341 25.163L79.1072 24.3733L79.6252 25.2834C78.8954 25.3346 78.1622 25.3141 77.4364 25.2221C77.0569 25.2015 76.6929 25.0651 76.3933 24.8314C76.3777 24.8113 76.3581 24.7946 76.3359 24.7823C76.3136 24.77 76.2891 24.7623 76.2638 24.7597C76.256 24.7603 76.2484 24.7627 76.2417 24.7668C76.235 24.7709 76.2294 24.7766 76.2254 24.7834C76.2214 24.7901 76.2191 24.7978 76.2188 24.8056C76.2184 24.8134 76.2199 24.8213 76.2232 24.8284C76.1509 24.8036 76.0731 24.7996 75.9987 24.8167C75.6077 24.4378 75.3398 23.9499 75.2298 23.4166C74.8929 23.8074 74.71 24.3077 74.7156 24.8236C74.6871 24.815 74.6595 24.8046 74.6314 24.7947C74.1206 23.358 73.2226 22.0904 72.0367 21.1319L71.2786 23.7702L69.572 25.0084C70.3913 25.2775 71.2279 25.4909 72.076 25.6469C72.7576 25.7625 73.4239 25.9551 74.062 26.2211C74.1 26.2544 74.1397 26.2868 74.1768 26.3204C74.132 26.3074 74.0841 26.3104 74.0413 26.329C73.9986 26.3477 73.9637 26.3807 73.9428 26.4224C73.9218 26.4641 73.9161 26.5117 73.9267 26.5572C73.9373 26.6026 73.9635 26.6429 74.0007 26.671C74.1949 26.7956 74.4179 26.868 74.6482 26.8813C75.3673 27.0643 76.0551 27.3534 76.689 27.7391C77.3799 28.1075 78.1065 28.4047 78.8576 28.6259L78.1038 29.3542C78.8734 29.8043 79.5543 30.3912 80.1131 31.0859C81.1235 30.6401 82.0311 29.9906 82.779 29.1781C85.021 29.1983 87.2211 28.5699 89.1142 27.3687C90.8396 26.2367 92.2126 24.6432 93.0771 22.7695C93.1928 22.5393 93.2714 22.2367 93.0646 22.1478ZM90.5005 24.5024C90.4561 24.4327 90.439 24.349 90.4527 24.2675C90.4665 24.186 90.51 24.1125 90.5748 24.0612C90.6132 24.018 90.6611 23.9831 90.7013 23.9442C90.7082 23.9394 90.719 23.9299 90.7216 23.9308C90.7319 23.9351 90.7216 23.942 90.7164 23.9472C90.6732 24.2291 90.7652 24.3893 91.0186 24.4605C91.0753 24.4728 91.1333 24.4783 91.1913 24.4769C90.9171 24.644 90.5942 24.6479 90.5005 24.5024ZM91.9844 23.7793C91.9285 23.9156 91.8377 24.0347 91.721 24.1246C91.7481 24.0507 91.753 23.9705 91.7352 23.8939C91.7174 23.8172 91.6777 23.7474 91.6209 23.6929C91.6062 23.6769 91.5865 23.6663 91.565 23.6629C91.5435 23.6595 91.5215 23.6636 91.5026 23.6744C91.5359 23.694 91.564 23.7214 91.5844 23.7543C91.6049 23.7871 91.6171 23.8244 91.62 23.863C91.5634 23.8242 91.462 23.8751 91.383 23.8717C91.3489 23.8671 91.3151 23.8603 91.2819 23.8514C91.2404 23.8452 91.1981 23.8492 91.1584 23.8628C91.1187 23.8765 91.0829 23.8995 91.054 23.9299C91.0335 23.9531 91.0196 23.9814 91.0137 24.0117C91.0079 24.0421 91.0103 24.0735 91.0208 24.1026C91.036 24.1391 91.0631 24.1692 91.0977 24.1883C91.1322 24.2073 91.1722 24.2141 91.2111 24.2075C91.2637 24.1964 91.3151 24.1806 91.3648 24.1605C91.3876 24.1505 91.4123 24.1456 91.4372 24.146C91.4621 24.1465 91.4866 24.1523 91.509 24.1631C91.4216 24.2582 91.3055 24.3223 91.1783 24.3457C90.9128 24.3915 90.6995 24.2119 90.7729 23.9826C90.7895 23.933 90.8151 23.8869 90.8485 23.8466C90.9152 23.7655 91.0025 23.7039 91.1013 23.6683C91.2001 23.6327 91.3066 23.6243 91.4097 23.6441C91.4562 23.6627 91.5076 23.6645 91.5552 23.6493C91.4806 23.6056 91.3979 23.5772 91.3122 23.566C91.4166 23.5125 91.5272 23.4722 91.6416 23.446C91.7332 23.4167 91.8322 23.4199 91.9218 23.4551C92.028 23.5146 92.0314 23.6558 91.9844 23.7793Z" fill="white"/>
<path d="M95.8554 17.5154C95.5628 16.8933 95.3427 16.2397 95.1996 15.5674C95.2052 15.5173 95.2095 15.4668 95.2164 15.4171C95.2327 15.4598 95.263 15.4957 95.3023 15.5189C95.3417 15.542 95.3878 15.5511 95.433 15.5447C95.4782 15.5382 95.5199 15.5165 95.5511 15.4832C95.5824 15.4499 95.6014 15.407 95.605 15.3614C95.5974 15.1313 95.5299 14.9072 95.409 14.7113C95.1509 14.0198 94.9983 13.2934 94.9565 12.5565C94.8679 11.7829 94.7 11.0205 94.4553 10.2813L95.4876 10.4816C95.422 9.59574 95.5199 8.70539 95.7764 7.85496C94.8296 7.2832 93.7754 6.91228 92.6792 6.76526C91.4142 4.91946 89.6405 3.48068 87.5735 2.62368C85.6488 1.85943 83.5493 1.64625 81.5103 2.00804C81.256 2.05121 80.9611 2.15871 81.0043 2.37803C81.0522 2.62282 81.4399 2.72082 81.7305 2.81493C82.2276 2.96825 82.6456 3.30885 82.8961 3.76475C82.9725 3.95304 83.059 4.13708 83.1552 4.31607C83.2092 4.39866 83.2766 4.47163 83.3546 4.53193L83.3598 4.53495C83.4106 4.57407 83.4667 4.60564 83.5265 4.62864C84.01 4.89113 85.3976 5.56678 86.16 5.15189C86.2708 5.10073 86.3664 5.02176 86.4376 4.92265C86.4716 4.87589 86.5005 4.82567 86.524 4.77283C86.6129 4.56381 86.6317 4.33159 86.5775 4.11099C87.8019 4.81558 91.8045 7.3835 93.5323 11.7172C93.1032 10.4917 92.4951 9.33657 91.7276 8.28927C92.0945 8.75869 92.4329 9.24973 92.7409 9.75974C94.1003 11.9058 94.7173 14.4388 94.4972 16.9696C94.5122 16.9189 94.5307 16.8693 94.5524 16.8211C94.5638 16.7933 94.5723 16.7643 94.5779 16.7348C94.5904 16.664 94.5909 16.5824 94.5973 16.5086C94.6114 16.3425 94.6205 16.1751 94.6245 16.0064C94.6323 15.6656 94.6209 15.3246 94.5904 14.985C94.5256 14.2829 94.3921 13.5888 94.1919 12.9127C93.9857 12.2146 93.7232 11.5344 93.407 10.8788C93.3023 10.66 93.1922 10.4433 93.0768 10.2286C93.0192 10.1215 92.9603 10.0149 92.9002 9.90869C92.8474 9.80263 92.7879 9.7001 92.7219 9.60173C92.0005 8.37435 91.1121 7.25309 90.0823 6.27007C89.7761 5.94425 89.4443 5.61614 89.0872 5.28572C90.384 6.29878 91.5161 7.5067 92.443 8.86649C93.9555 11.0274 94.7692 13.6002 94.7743 16.2379C94.7903 16.596 94.7263 16.9532 94.587 17.2835C94.5434 17.3835 94.4767 17.4717 94.3924 17.541C94.3082 17.6103 94.2087 17.6586 94.1021 17.682C94.0102 17.6916 93.9172 17.678 93.8319 17.6423C93.7466 17.6066 93.6716 17.5501 93.6138 17.4778C93.619 17.4138 93.6322 17.3507 93.6531 17.29C93.6616 17.3276 93.6787 17.3627 93.7029 17.3926C93.7272 17.4226 93.758 17.4465 93.793 17.4627C93.7995 17.4648 93.8061 17.4664 93.8129 17.4674C93.9856 17.4972 94.0231 17.2235 94.0287 17.0789C94.0347 16.9289 94.0317 16.7786 94.0197 16.629C94.0145 16.5608 94.008 16.4926 93.9998 16.4244C93.9895 16.3415 93.9761 16.2586 93.9614 16.1761C92.987 9.34787 88.1283 8.57292 88.1283 8.57292C88.9741 9.18352 89.7568 9.87701 90.4648 10.6431L90.7947 12.503L91.2523 11.5614C91.7101 12.1276 92.1107 12.7379 92.4482 13.3833C92.6472 13.7047 92.7418 14.08 92.7189 14.4574C92.7111 14.4813 92.7083 14.5065 92.7106 14.5315C92.7129 14.5565 92.7203 14.5808 92.7323 14.6029C92.7372 14.609 92.7436 14.6138 92.7508 14.6169C92.7581 14.62 92.7659 14.6213 92.7738 14.6207C92.7816 14.6201 92.7892 14.6177 92.7959 14.6135C92.8026 14.6093 92.8081 14.6036 92.8121 14.5969C92.8327 14.67 92.8735 14.7359 92.93 14.7868C92.8381 15.3233 92.5869 15.8198 92.209 16.2115C92.725 16.2647 93.2427 16.1297 93.6669 15.8312C93.6756 15.8588 93.6829 15.8869 93.6907 15.9145C92.7935 17.145 92.2555 18.6005 92.1365 20.1187L94.7515 19.2349L96.7482 19.9231C96.5059 19.1011 96.2076 18.2966 95.8554 17.5154ZM84.4145 3.1301C84.3819 3.20639 84.3223 3.268 84.2471 3.30319C84.172 3.33838 84.0865 3.34468 84.007 3.32092C83.9509 3.31315 83.8943 3.29632 83.8378 3.28423C83.83 3.2812 83.8162 3.27818 83.8153 3.27516C83.8131 3.26394 83.8239 3.26826 83.8321 3.26998C84.0912 3.14306 84.1702 2.97856 84.0851 2.73118C84.0624 2.67811 84.0334 2.62796 83.9988 2.5818C84.2958 2.70916 84.4819 2.97122 84.4145 3.1301ZM82.8914 2.7981C82.8152 2.74021 82.7615 2.65765 82.7394 2.56454C82.7278 2.44581 82.8422 2.36291 82.9708 2.33096C83.1156 2.29833 83.2664 2.30429 83.4082 2.34824C83.3321 2.3681 83.2634 2.40951 83.2104 2.46749C83.1573 2.52547 83.1221 2.59754 83.109 2.67505C83.1041 2.69613 83.1065 2.71826 83.116 2.73775C83.1254 2.75724 83.1412 2.77291 83.1608 2.78213C83.1582 2.74354 83.1649 2.70489 83.1805 2.66948C83.1961 2.63407 83.22 2.60294 83.2502 2.57878C83.2502 2.64699 83.3503 2.70053 83.3926 2.76745C83.4082 2.79789 83.4218 2.82933 83.4332 2.86156C83.4518 2.89916 83.4792 2.93169 83.5131 2.95636C83.547 2.98102 83.5864 2.99709 83.6279 3.00317C83.6629 3.00816 83.6986 3.00194 83.7298 2.98538C83.761 2.96883 83.7862 2.9428 83.8017 2.91103C83.8172 2.87927 83.8222 2.84341 83.8161 2.80861C83.8099 2.77381 83.7929 2.74187 83.7674 2.71737C83.7282 2.68078 83.6859 2.6477 83.6409 2.6185C83.5977 2.58569 83.5589 2.54165 83.5606 2.49934C83.6888 2.51631 83.8081 2.5745 83.9003 2.66513C84.0894 2.85595 84.0623 3.13226 83.8308 3.20307C83.7805 3.21789 83.7278 3.2233 83.6754 3.21904C83.5966 3.21319 83.5197 3.19131 83.4496 3.15471C83.3322 3.09483 83.2394 2.99589 83.1871 2.87495C83.1758 2.82638 83.1479 2.78329 83.1081 2.75319C83.1146 2.83892 83.1382 2.92246 83.1776 2.99885C83.0746 2.94403 82.9778 2.8766 82.8914 2.7981Z" fill="white"/>
</svg>
