<svg width="33" height="38" fill="none" xmlns="http://www.w3.org/2000/svg"><path d="M22.57 0H3.748A3.757 3.757 0 000 3.754v30.477C0 36.315 1.683 38 3.749 38H28.98a3.757 3.757 0 003.75-3.754V10.19L22.57 0z" fill="#E2574C"/><path d="M22.57 0v6.481a3.758 3.758 0 003.749 3.755h6.472L22.57 0z" fill="#B53629"/><path d="M12.025 18.448c0 1.793-1.377 2.927-3.534 2.927H7.374v1.915H4.757v-7.768h3.734c2.157 0 3.534 1.134 3.534 2.926zm-2.631 0c0-.567-.337-.904-1.056-.904h-.949v1.824h.949c.704 0 1.056-.353 1.056-.92zm3.488-2.926h3.825c2.586 0 4.376 1.47 4.376 3.876 0 2.406-1.79 3.892-4.376 3.892h-3.825v-7.768zm3.703 5.73c1.101 0 1.851-.658 1.851-1.838 0-1.18-.75-1.839-1.851-1.839h-1.102v3.677h1.102zm8.063-3.754v1.333h3.229v1.977h-3.229v2.482h-2.616v-7.768h6.304v1.976h-3.688z" fill="#fff"/></svg>