<svg width="1750" height="615" fill="none" xmlns="http://www.w3.org/2000/svg"><path d="M1266.29 51.043c-.72-1.175-1.26-2.446-2.02-3.632a41.23 41.23 0 00-8.32-9.4l.01-.044-.01.044c-.57-.482-1.16-.92-1.74-1.358-4.23-3.056-8.38-6.232-12.68-9.214-4.53-3.139-9.44-5.583-14.8-7.026a3.258 3.258 0 01-1.42-.804c-2.16-1.891-4.26-3.814-6.41-5.749-1.98-1.657-4.33-2.335-6.89-2.37-3.27-.035-6.4.666-9.58 1.355-.14.008-.29.203-.32.334-.2.556-.58.735-1.13.726-.38-.007-.75-.014-1.06.09-.26.116-.49.43-.56.692-.03.131.31.411.52.514.68.417 1.44.716 2.07 1.165.27.214.39.622.59.954-.31.104-.62.208-.91.225-1.48.116-3.04.023-4.47.293-2.16.357-4.24.967-6.4 1.51-4 .98-7.98 2.204-11.64 4.167-9.34 4.976-15.49 12.541-18.71 22.581a40.442 40.442 0 00-1.9 13.67c.04.57.17 1.121.36 1.64.35.938.55 1.928.25 2.877-.39 1.297-.92 2.56-1.48 3.767-.59 1.338-1.19 2.675-1.11 4.146.08 1.942.3 3.919.58 5.82.28 1.902 1.03 3.647 2.73 4.807.31.225.67.461 1 .642.13.036.26.07.35.094.62-.767.64-.997.13-1.883-.19-.332-.47-.688-.61-1.052-.1-.309-.09-.682-.09-1.054-.02-.1.18-.326.27-.302.75.155.73-.459.85-.895.1-.393.19-.699.72-.602.13.036.39-.223.44-.397.22-1.016.41-1.199 1.5-1.42.02-.603.36-.795.95-.73.36.05.69.046.85-.38.03-.13.27-.159.43-.21.52-.189 1.03-.377 1.55-.565 1.66-.585 3.32-1.027 5.13-.633.13.035.34-.049.46-.156.37-.322.72-.229 1.01.084.47.501.93.718 1.42.288.62.307 1.19.602 1.73.885.52.328 1.2.56 1.54 1.026.5.6 1.12.907 1.73 1.214.25.114.66-.01.9-.039-.52-1.544-.98-2.933-1.45-4.323-.63-1.995-1.54-3.831-2.9-5.412-1.25-1.415-2.63-2.722-3.97-4.017-1.74-1.686-3.54-3.34-5.27-5.07-.37-.38-.6-.91-.74-1.417-.53-1.873-.5-3.736-.13-5.605.4-1.856.92-3.59 2.41-4.967 1.93-1.775 4.06-3.26 6.71-3.718.39-.08.76-.074 1.16-.155.05.67-.15 1.083-.57 1.437a1.24 1.24 0 00-.3.39c-.13.337-.26.63-.35.98-.07.262-.19.512-.2.742.08 1.098.21 2.163.32 3.316 2.5-.405 4.95-1.194 7.14-2.712.63-.439 1.21-1.031 1.84-1.47 1.58-.98 3.23-.863 4.88-.231 2.33.907 4.44 2.458 7.09 2.516-.04.317-.02.602-.08.82-.28 1.563-1.05 2.854-1.99 4.098-.15.195-.21.413-.3.576.07.11.19.19.25.3.15-.195.29-.39.47-.529.82-.62 1.61-1.297 2.51-1.852.84-.522 1.77-1.02 2.71-1.377.47-.2 1.1-.08 1.62-.125-.05 1.95-.12 3.759-.18 5.566.45-.485.93-1.057 1.45-1.575.74-.83 1.46-1.618 2.28-2.382.2-.227.64-.296.95-.257 2.75.41 5.48.864 8.26 1.287 1.03.182 2.07.321 3.24.495-.5.617-.91 1.114-1.32 1.61-.8 1.05-1.64 2.087-2.41 3.192-.38.552-.52 1.262-1.19 1.645 0 0 .02.1.03.242.25-.072.5-.101.71-.185 1.07-.507 2.08-1.125 3.17-1.533 1.36-.524 2.82-.926 4.25-1.383.16-.052.31-.104.43-.025.59.251 1.03-.004 1.5-.347.28-.203.65-.339 1.04-.42.85-.193 1.72-.287 2.6-.425.2-.04.44-.255.5-.473.2-.556.55-.462.96-.444 3.02.437 5.92 1.311 8.83 2.14 2.55.78 5.13 1.43 7.76 2.09.7.188 1.46.3 2.22.27 1.97-.031 3.94-.205 5.89-.148 2.92.084 5.8-.029 8.45-1.517 1.38-.797 2.8-1.54 3.76-2.871.46-.485.81-1.422.15-2.442zm-124.45 167.426c-3.55.681-7.52.227-11.98-.619-5.92 5.258-4.87 4.198-13.26 1.918-7.22 1.169-6.12 8.919-31.11 9.214-1.08 1.973 19.79 4.466 19.19 6.814-.61 2.41 5.73 28.422 14.1 12.259.25 4 3.79 7.355 4.46 11.268 1.16 6.728 6.74-6.19 8.22.424.89 3.985 1.9 7.842 3.1 11.695 1.43 4.599 2.04 9.511 3.6 14.067 3.68 10.785 7.89 21.809 14.89 29.926 4.3 4.978 9.92 7.606 15.53 9.568l.53.184c5.18 1.812 10.34 3.617 15.65 4.843 6.98 1.615 14.06 3.695 21.2 4.035 8.19.389 16.46.292 24.66-.195 20.23-1.202 40.02-7.116 59.46-14.124 9.74-3.509 19.2-7.07 28.18-13.115 6.23-4.196 12.58-8.885 17.96-14.648 9.77-10.465 18.07-22.756 23.98-36.934 3.54-8.478 23.66-6.497 22.2-15.876-1.64-10.653-.13-7.651-12.93-11.082-15.3.181-44.51-3.927-62.07-16.674-1.75-1.274-3.8-1.832-5.56-3.133-1.86-1.383-3.69-1.011-5.77-.419l-5.9 1.677c-1.63.462-5.01 1.28-6.25-.362-.56-.741-1.89-1.044-2.66-1.404-.86-.401-1.94-1.145-2.93-.93-1.6.347-3.22.932-4.14 2.681-2.24 4.271-.86 9.803-4.22 13.16-1.49 1.493-4.62-.684-5.64-1.526-1.79-1.475-4.51-2.148-6.03-3.989-1.43-1.733-3.08-3.169-4.39-5.169a22.026 22.026 0 00-2.47-3.042c-.39-.397-.55-1.383-1.02-1.591-.42-.188-.88-.132-1.29-.346-1.18-.624-3.75.63-5.01.989-1.88.533-3.75-.557-5.46-1.221-1.35-.522-3.27-3.025-3.73-4.723-.27-.995-.86-1.645-1.05-2.731-.15-.873-.61-2.359-1.05-3.088-1.07-1.792-.94-3.298-3.15-2.67-1.61.457-2.71 1.123-3.98 2.28-1.13 1.034-3.99 1.199-5.19.327-1.51-1.093-3.25-2.509-4.92-3.157-1.17-.454-2.93-.325-3.98-1.087-.42-.305-2.04-2.289-1.09-2.878.1-.065-.41.081-.65-.112-.33-.253-.56-.649-.95-.8-1.17-.452-2.66-3.592-2.9-4.96-.39-2.294-.87-4.463-1.16-6.797-.5-3.955 3.14-7.102 4.64-9.952.43-.819 1.55-2.006 1.56-3.04.02-1.207-.91-1.032-1.46-1.464-.94-.729-2.07-2.535-3.05-2.856-1.73-.566-3.04-1.326-4.24-2.993a9.616 9.616 0 00-2.03-2.097c-.85-.659-2.07.054-3.01.32-1.59.452-3.71 2.179-3.32 4.429.13.754.28 2.308.9 2.676.3.18 1.31 1.719 1.38 2.102.35 2.075.31 4.307-1.03 5.915-.96 1.161-2.4 3.161-2.74 4.78-.38 1.779-1.12 4.505-.89 6.313.2 1.593.24 5.335-.36 6.794-.68 1.687-1.43 3.183-2.69 4.329-1.19 1.087-2.96 1.275-4.44 1.697-1.13.322-3.96.522-4.68 1.607-.42.644-1.04.869-1.39 1.722-.34.838-.67 1.755-1.08 2.546-.82 1.561-1.67 4.178-2.17 6.042-.5 1.818-2.3 3.358-3.54 4.491-1.16 1.056-2.82 1.303-3.97 2.356-1.04.946-3.02 1.846-4.29 2.208-3.42.971-6.6 3.067-10.01 2.259-1.75-.415-3.77.673-5.55.945l-.03.004c-.74.112-3.03.461-5.53.94z" fill="#182B34"/><path d="M1180.37 169.858c.57-.161 1.32-.665 1.9-.83.39-.114 1.3-.872 1.2-1.478-.1-.565-.14-1.716-.52-2.075-.32-.294-.47-.771-.83-1.049-.32-.252-.69-.363-1.02-.554-.66-.378-1.64-.468-2.35-.266-1.13.32-2.08.692-2.83 1.791-.56.815-.63 3.036.17 3.657.77.6 1.71 1.121 2.66 1.148.61.018 1.05-.179 1.62-.344zm-7.7-3.734c.68.527 1.49.023 2.14-.29.23-.109.37-.302.56-.477.29-.259.63-.81.56-1.244-.17-.952-.55-2.117-1.53-1.838-1.03.291-2.03 1.095-2.21 2.454-.06.484.15 1.135.48 1.395zm15.28-3.063c.26 1.514 1.91 1.622 2.96 1.181.4-.421.78-1.041.66-1.765-.17-.959-.54-2.162-1.54-1.879-1.09.308-2.38.702-2.08 2.463zm-12.29 12.092c.6 1.055 1.67.593 2.12.189.49-.371.23-1.063.05-1.546-.22-.581-.92-.58-1.33-.462-.61.174-1.29 1.03-.84 1.819zm-2.89 20.917c.32.956 1.73-.097 2.2-.371.47-.347.14-1.583-.25-1.906-.36-.297-.4-.38-.83-.257-.29.082-.54.191-.81.333-.78.412-.55 1.48-.31 2.201zm28.67-44.79c.36 2.054 1.62 2.578 2.65 1.17.45-.45.78-1.413.67-2.074-.14-.834-1.22-.871-1.84-.828-.68.048-1.65.732-1.48 1.732zm3.38-2.961c.24 1.209 1.51 2.238 2.39 1.361.46-.465.6-1.218.77-1.475.22-.32.3-.642.48-.994.32-.595.78-1.808 1.34-2.104.6-.312 1.81-1.253 1.61-2.142-.2-.939-.93-1.712-1.73-1.485-.84.241-1.27 1.227-1.87 1.959-.27.332-.61.74-.97.929-.33.174-.9.348-1.11.649-.14.206-.42.336-.54.566-.12.243-.22.557-.32.821-.26.695-.2 1.205-.05 1.915zm1.3 3.439c.57-1.104 3.13-1.428 3.43.132.18 1.021-.2 1.638-1.01 1.868-.66.187-1.64.184-2.25-.199-.56-.347-.46-1.263-.17-1.801zm10.34 2.961c.89.831 2.47.211 3.35-.508.74-.55 1.14-2.127.47-2.921-.38-.445-.98-.726-1.49-.862-.55-.147-1.2.365-1.72.513-.63.177-1.14 1.011-1.36 1.724-.08.271.09.915.16 1.183.12.431.3.608.59.871zm6.7.855c.53.653 1.28.346 1.9.01.49-.139.67-2.204.57-2.78-.18-1.031-.21-2.313-1.13-2.693-.56-.232-1.41.064-1.72.687-.27.549-.42 1.803-.31 2.411.12.744.23 1.801.69 2.365zm-1.7 2.12c.21 1.207.89 3.09 2.13 2.062.44-.565.51-1.278.38-2.029-.11-.646-.72-1.629-1.34-1.452-.7.2-1.35.363-1.17 1.419zm7.56 17.191c.23 1.333 1.66.936 2.43.517.38-.38.28-1.438.09-1.852-.37-.817-.71-.737-1.39-.544-.94.267-1.33.693-1.13 1.879zm.36 8.81c.48-.554 1.37-.738 1.9-.342.29.084.46 1.061.35 1.327-.24.582-.62 1.065-1.1 1.377-.25.17-.44.476-.69.648-.19.126-.41.241-.57.429-.25.309-.38.679-.51 1.083-.28.932-.86 1.825-1.66 2.055-.54.152-1.47.558-1.89-.056-.3-.423-.28-1.531-.04-1.966.42-.759 1.05-1.165 1.67-1.61.72-.511 1.34-1.003 1.86-1.813.24-.373.39-.794.68-1.132zm-33.6-44.198c.47-.069.85-.321 1.28-.555.78-.583.38-2.44-.14-2.973-.7-.704-1.61-.743-2.47-.436-.31.112-.88.977-.89 1.389 0 .455.01 1.021.28 1.403.26.362.53 1.114 1.03 1.041.29-.041.6.176.91.131zm-40.18 6.172c.83 1.144.17 2.829-.19 4.032-.35.343.55 2.797.78 3.175.59.992.66 2.564.47 3.708-.11.651-.33 1.529-.93 1.702l-1.26.358c-.57.162-1.05-.191-1.5-.556-.6-.49-.57-1.237-.89-1.939-.21-.463-.1-1.238-.37-1.639-.42-.645-1.03-1.242-1.52-1.807-.82-.923-1.98-2.68-1.42-4.095.52-1.328 1.74-2.046 2.27-3.377.24-.608-.07-1.034-.31-1.544-.23-.502-.35-1.547-.2-2.078.64-2.293 1.76-3.546 3.69-4.151 1.25-.391 2.47-.845 3.73-1.203.87-.249 1.75-.918 2.4-1.695.39-.457.7-.866 1.03-1.376.34-.528.54-1.294.94-1.755.38-.431.67-1.187 1.01-1.701.44-.654.59-.808 1.28-1.004 1.58-.449 3.14-.57 4.64-1.432.95-.545 1.94-2.056.74-3.023-.4-.322-1.03-.681-1.34-1.105-.29-.402-.3-1.49-.25-1.991.1-1.183-.17-3.891-1.58-3.488-.77.217-1.53.583-2.31.333-.47-.152-.35-.964-.36-1.391-.03-1.332 1.43-1.608 1.99-2.518.52-.832-.27-2.667-.42-3.558-.26-1.477.43-1.931 1.52-2.239.87-.249 2.19-.44 3.03.004.63.331.66 1.611.78 2.302.17 1.002.23 2.009.4 3.004.12.698.26 1.457.93 1.616 1.2.285 2.44 1.687 2.95 3.065.73 1.949 3.06 2 3.45 4.256.19 1.094.09 1.98-.13 3.043-.23 1.069-1.33 1.566-2.07 1.919-2.23 1.072-4.49 2.105-6.71 3.21-1.17.58-2.34 1.512-3.34 2.434-.71.659-1.56 1.594-2.42 1.918-.39.144-.65.474-1.06.589l-1.18.336c-.66.186-1.33.235-2 .423-1.14.325-1.26 2.609-1.46 3.741-.33 1.833-2.21 2.26-2.93 3.726-.21.423-.14 1.412.12 1.771z" fill="#182B34"/><path d="M1165.44 142.803c.73 1.113 1.47.446 2.23-.203.69-.51.51-1.477.05-2.182-.26-.389-.45-.726-.91-.61-.37.096-1.08.221-1.34.608-.44.645-.49 1.698-.03 2.387zm11.08-5.175c.46.336 1.21-.478 1.53-.724.59-.435.83-.655 1.26-1.289.43-.633 1.39-.474 1.91-.944v-.001c.53-.481.92-.839.77-1.705-.13-.751-.49-.945-1.08-.777-.79.224-1.41.98-2.22 1.208-.7.201-1.37.288-2.08.593-.62.263-.7 1.444-.6 2.057.07.392.23 1.377.51 1.582zm-31.96-5.633c-.47 1.286-.28 1.807.57 1.973 1.11.515 2.03-1.957 1.02-2.746-.53-.409-1.35.109-1.59.773zm16.44 32.699c.68.048 1.08.317 1.74.129 1.2-.889.61-1.942.39-3.22-.14-.849-1.74-2.128-2.43-2.12-1.04.013-2.67.687-2.76 2.045-.05.818.56 1.754 1.06 2.189.7.606 1.09.913 2 .977zm61.29-30.577c.39 1.325 1.63 1.309 2.54 1.053l.01-.014c.68-.503 1.22-.902 1.03-1.981-.1-.619-.5-2.382-1.17-2.374-.91.011-2.03.52-2.53 1.472-.24.476-.03 1.334.12 1.844zm-13.81-9.203c.2 1.465.77 1.952 1.94 1.617.51-.144 1.47-.377 1.31-1.304-.11-.62-.41-1.815-1.08-1.807-.62.007-2.32.396-2.17 1.494zm-6.57 6.591c.37.865.61 1.006 1.31.806.7-.197 1.28-.456 1.51-1.361.09-.389-.27-1.847-.65-1.767-.62.13-1.72.248-2.15.873-.32.485-.24.928-.02 1.449zM0 228.472h1750v386H0z" fill="#182B34"/></svg>