<svg width="1280" height="603" fill="none" xmlns="http://www.w3.org/2000/svg"><path d="M1154.29 39.57c-.71-1.174-1.26-2.444-2.02-3.63a41.233 41.233 0 00-8.32-9.401l.01-.044-.01.044c-.57-.482-1.16-.92-1.74-1.358-4.23-3.056-8.38-6.233-12.67-9.214-4.54-3.139-9.45-5.583-14.81-7.026a3.258 3.258 0 01-1.42-.804c-2.16-1.891-4.26-3.814-6.41-5.748-1.98-1.658-4.33-2.336-6.89-2.37-3.26-.036-6.4.665-9.58 1.354-.14.008-.29.203-.32.334-.2.556-.57.735-1.13.726-.38-.007-.75-.014-1.06.09-.26.116-.49.43-.56.692-.03.131.31.411.52.514.68.417 1.44.716 2.07 1.166.27.213.4.62.59.953-.31.104-.62.208-.91.225-1.48.116-3.04.023-4.47.293-2.16.357-4.24.967-6.39 1.51-4.01.98-7.99 2.204-11.65 4.167-9.34 4.976-15.49 12.541-18.7 22.581a40.203 40.203 0 00-1.91 13.67c.04.57.17 1.121.36 1.64.35.938.55 1.928.25 2.877-.39 1.297-.92 2.56-1.48 3.767-.59 1.337-1.19 2.675-1.11 4.146.08 1.942.3 3.919.58 5.82.28 1.902 1.03 3.648 2.73 4.807.31.225.67.461 1 .642l.35.094c.62-.767.64-.997.13-1.883-.19-.332-.47-.688-.61-1.052-.1-.31-.09-.682-.09-1.054-.02-.1.18-.326.27-.302.75.155.73-.459.85-.895.11-.393.19-.699.72-.602.13.036.39-.223.44-.397.22-1.016.41-1.199 1.5-1.42.02-.603.36-.795.95-.73.36.05.69.045.85-.38.03-.13.27-.159.43-.21.52-.189 1.03-.377 1.55-.565 1.66-.585 3.32-1.027 5.13-.633.13.035.34-.049.46-.156.37-.322.72-.229 1.01.084.47.501.93.718 1.42.288.62.307 1.19.602 1.73.886.52.327 1.2.558 1.54 1.025.5.6 1.12.907 1.74 1.214.25.114.65-.01.89-.039-.52-1.544-.98-2.933-1.45-4.323-.63-1.995-1.54-3.831-2.89-5.412-1.26-1.415-2.64-2.722-3.98-4.017-1.74-1.687-3.54-3.34-5.27-5.07-.37-.38-.6-.91-.74-1.417-.53-1.873-.5-3.736-.13-5.605.4-1.856.92-3.59 2.41-4.967 1.93-1.775 4.06-3.26 6.71-3.718.39-.08.76-.074 1.16-.155.05.67-.15 1.083-.57 1.437-.13.108-.2.227-.3.39-.13.337-.26.63-.35.98-.07.262-.19.512-.2.742.08 1.098.21 2.163.32 3.316 2.5-.405 4.95-1.194 7.14-2.712.63-.439 1.21-1.031 1.84-1.47 1.58-.98 3.23-.863 4.88-.231 2.33.907 4.44 2.458 7.09 2.516-.04.317-.02.602-.08.82-.28 1.563-1.05 2.854-1.99 4.098-.15.195-.2.413-.3.576.07.11.19.19.25.3.15-.194.29-.39.47-.529.82-.62 1.61-1.298 2.51-1.852.84-.522 1.77-1.02 2.71-1.377.47-.2 1.1-.08 1.62-.125-.05 1.95-.12 3.758-.18 5.566.45-.485.93-1.058 1.45-1.575.74-.83 1.46-1.618 2.28-2.382.2-.227.64-.296.95-.257 2.75.41 5.48.864 8.26 1.286 1.03.183 2.07.322 3.24.496-.49.617-.91 1.113-1.32 1.61-.8 1.05-1.64 2.087-2.41 3.192-.38.552-.52 1.262-1.19 1.645 0 0 .02.1.03.242.26-.072.5-.101.71-.185 1.07-.507 2.08-1.125 3.17-1.533 1.36-.525 2.82-.926 4.25-1.383.16-.052.31-.104.43-.025.59.251 1.03-.004 1.5-.347.29-.203.65-.339 1.05-.42.84-.193 1.71-.287 2.59-.425.2-.04.44-.255.5-.474.2-.555.55-.461.96-.443 3.02.437 5.92 1.31 8.83 2.14 2.55.78 5.13 1.43 7.76 2.09.7.188 1.46.3 2.22.27 1.97-.031 3.94-.205 5.89-.148 2.92.084 5.8-.029 8.45-1.517 1.38-.797 2.8-1.54 3.77-2.871.45-.485.8-1.422.14-2.442zm-124.45 167.427c-3.55.681-7.52.227-11.98-.619-5.92 5.257-4.87 4.198-13.26 1.918-7.217 1.168-6.115 8.918-31.11 9.213-1.077 1.973 19.792 4.467 19.193 6.815-.615 2.41 5.725 28.422 14.097 12.259.25 4 3.79 7.355 4.46 11.268 1.16 6.728 6.74-6.19 8.22.424.89 3.985 1.9 7.841 3.1 11.695 1.43 4.599 2.04 9.51 3.6 14.066 3.68 10.785 7.89 21.81 14.89 29.926 4.3 4.979 9.92 7.607 15.53 9.568l.53.184c5.18 1.813 10.34 3.617 15.65 4.844 6.98 1.615 14.06 3.695 21.2 4.034 8.19.39 16.46.293 24.66-.194 20.23-1.202 40.03-7.117 59.46-14.125 9.74-3.508 19.2-7.07 28.18-13.114 6.23-4.197 12.58-8.885 17.96-14.649 9.77-10.464 18.07-22.755 23.98-36.934 3.54-8.477 23.66-6.497 22.2-15.876-1.64-10.653-.13-7.65-12.92-11.081-15.31.181-44.52-3.927-62.07-16.675-1.76-1.274-3.81-1.832-5.57-3.133-1.86-1.382-3.69-1.01-5.77-.418l-5.9 1.677c-1.63.462-5.01 1.28-6.25-.363-.56-.741-1.89-1.044-2.66-1.404-.86-.401-1.94-1.145-2.93-.929-1.6.347-3.22.932-4.14 2.681-2.24 4.271-.86 9.802-4.22 13.16-1.49 1.493-4.62-.684-5.64-1.526-1.79-1.475-4.51-2.149-6.03-3.989-1.43-1.733-3.08-3.17-4.39-5.169a21.967 21.967 0 00-2.47-3.042c-.39-.397-.55-1.383-1.02-1.592-.42-.187-.88-.131-1.29-.346-1.18-.623-3.75.631-5.01.989-1.88.534-3.74-.557-5.46-1.221-1.35-.521-3.27-3.024-3.73-4.723-.27-.995-.86-1.644-1.05-2.73-.15-.874-.61-2.359-1.05-3.088-1.07-1.792-.94-3.299-3.15-2.67-1.61.457-2.71 1.123-3.98 2.28-1.13 1.033-3.99 1.199-5.19.327-1.51-1.093-3.25-2.509-4.92-3.157-1.17-.454-2.93-.325-3.98-1.088-.42-.304-2.04-2.288-1.09-2.877.1-.066-.41.081-.65-.112-.33-.254-.56-.65-.95-.8-1.17-.452-2.66-3.592-2.9-4.96-.39-2.295-.87-4.463-1.16-6.797-.5-3.955 3.14-7.102 4.64-9.953.43-.818 1.56-2.005 1.57-3.039.01-1.207-.91-1.033-1.47-1.465-.94-.728-2.07-2.534-3.05-2.856-1.73-.565-3.04-1.325-4.24-2.993a9.611 9.611 0 00-2.03-2.096c-.85-.659-2.07.053-3.01.319-1.59.452-3.71 2.18-3.32 4.43.13.753.28 2.307.9 2.675.3.18 1.31 1.719 1.38 2.103.35 2.075.31 4.307-1.03 5.915-.96 1.16-2.4 3.161-2.74 4.779-.38 1.779-1.12 4.505-.89 6.313.2 1.594.24 5.336-.36 6.794-.68 1.688-1.43 3.183-2.69 4.329-1.19 1.088-2.95 1.276-4.44 1.698-1.13.321-3.96.522-4.68 1.607-.42.643-1.04.868-1.39 1.722-.34.837-.67 1.755-1.08 2.546-.82 1.56-1.67 4.178-2.17 6.042-.5 1.817-2.3 3.358-3.54 4.49-1.16 1.056-2.82 1.304-3.97 2.356-1.04.947-3.01 1.847-4.29 2.208-3.41.971-6.6 3.068-10.01 2.26-1.75-.416-3.77.672-5.55.944l-.03.005c-.74.111-3.03.461-5.53.94z" fill="#182B34"/><path d="M1068.37 158.387c.57-.162 1.32-.666 1.9-.831.39-.113 1.3-.871 1.2-1.477-.1-.566-.14-1.716-.52-2.076-.32-.294-.47-.77-.83-1.049-.32-.251-.69-.363-1.02-.554-.66-.378-1.64-.468-2.35-.266-1.13.321-2.08.692-2.83 1.791-.56.815-.63 3.036.17 3.658.77.599 1.71 1.121 2.66 1.148.61.017 1.05-.18 1.62-.344zm-7.7-3.735c.68.527 1.49.022 2.14-.29.23-.109.37-.302.56-.478.29-.259.63-.809.56-1.244-.17-.951-.55-2.116-1.53-1.838-1.03.292-2.03 1.096-2.21 2.455-.06.484.14 1.135.48 1.395zm15.28-3.063c.26 1.514 1.91 1.622 2.96 1.181.4-.421.78-1.041.66-1.765-.17-.959-.54-2.162-1.54-1.879-1.08.309-2.38.702-2.08 2.463zm-12.29 12.092c.6 1.055 1.67.593 2.11.189.5-.371.24-1.063.06-1.546-.22-.581-.92-.58-1.33-.462-.61.174-1.29 1.03-.84 1.819zm-2.89 20.917c.32.956 1.72-.097 2.2-.371.47-.347.14-1.583-.25-1.905-.36-.298-.4-.38-.83-.257-.29.081-.54.19-.81.333-.78.411-.55 1.48-.31 2.2zm28.67-44.79c.36 2.054 1.62 2.578 2.65 1.17.45-.451.78-1.413.67-2.074-.15-.834-1.22-.872-1.84-.828-.68.048-1.65.732-1.48 1.732zm3.37-2.961c.25 1.209 1.52 2.238 2.4 1.361.46-.465.6-1.218.77-1.475.22-.32.3-.642.48-.994.31-.595.78-1.808 1.34-2.104.6-.312 1.8-1.253 1.61-2.142-.2-.939-.93-1.712-1.73-1.485-.84.241-1.27 1.227-1.87 1.959-.27.332-.61.74-.97.929-.33.174-.9.348-1.11.649-.14.206-.42.336-.54.566-.12.243-.22.557-.32.821-.26.695-.2 1.205-.06 1.915zm1.3 3.439c.58-1.103 3.14-1.428 3.44.133.18 1.02-.2 1.637-1.01 1.867-.66.187-1.64.184-2.25-.199-.56-.347-.46-1.263-.18-1.801zm10.35 2.961c.89.831 2.47.211 3.35-.508.74-.55 1.14-2.127.47-2.921-.38-.445-.98-.726-1.49-.862-.55-.147-1.21.365-1.72.513-.63.177-1.14 1.01-1.36 1.724-.08.271.09.915.16 1.183.12.43.3.608.59.871zm6.7.856c.53.652 1.28.345 1.9.01.49-.14.67-2.205.57-2.781-.18-1.03-.21-2.313-1.13-2.693-.56-.231-1.41.064-1.72.688-.27.548-.42 1.802-.31 2.41.12.745.23 1.801.69 2.366zm-1.7 2.119c.21 1.206.89 3.089 2.13 2.061.44-.564.51-1.278.38-2.028-.11-.646-.72-1.63-1.34-1.452-.7.2-1.35.363-1.17 1.419zm7.56 17.191c.23 1.333 1.66.936 2.43.517.38-.38.28-1.438.09-1.852-.37-.817-.71-.737-1.39-.544-.94.267-1.33.693-1.13 1.879zm.36 8.81c.48-.554 1.37-.738 1.9-.342.29.084.46 1.061.35 1.327-.24.582-.62 1.065-1.09 1.377-.26.17-.45.476-.7.648-.19.126-.41.241-.57.429-.25.309-.38.679-.5 1.083-.29.932-.87 1.825-1.67 2.055-.54.152-1.47.558-1.89-.056-.3-.422-.28-1.531-.04-1.966.43-.759 1.05-1.165 1.67-1.61.72-.511 1.34-1.003 1.86-1.813.25-.373.39-.794.68-1.132zm-33.6-44.197c.48-.069.85-.322 1.28-.556.78-.583.38-2.439-.14-2.972-.7-.705-1.61-.744-2.47-.436-.3.111-.88.976-.88 1.388-.01.456 0 1.021.27 1.403.26.362.53 1.114 1.03 1.042.29-.042.6.176.91.131zm-40.18 6.171c.83 1.143.17 2.829-.19 4.031-.34.343.56 2.798.78 3.176.59.991.66 2.564.47 3.707-.11.652-.32 1.529-.93 1.702l-1.26.358c-.57.162-1.05-.191-1.5-.555-.6-.49-.57-1.237-.89-1.94-.21-.462-.1-1.238-.37-1.638-.42-.645-1.03-1.243-1.52-1.808-.82-.923-1.98-2.679-1.42-4.095.52-1.328 1.75-2.046 2.27-3.377.24-.608-.07-1.034-.31-1.544-.22-.501-.35-1.547-.2-2.078.64-2.292 1.76-3.546 3.7-4.151 1.24-.39 2.46-.844 3.72-1.203.87-.248 1.75-.918 2.4-1.695.39-.457.7-.866 1.03-1.375.34-.528.54-1.295.94-1.756.38-.431.67-1.186 1.01-1.7.44-.655.59-.808 1.28-1.005 1.58-.449 3.14-.569 4.64-1.432.95-.545 1.94-2.055.74-3.022-.39-.323-1.03-.681-1.34-1.105-.29-.402-.3-1.491-.25-1.992.1-1.182-.17-3.89-1.58-3.487-.77.217-1.53.583-2.3.332-.47-.152-.36-.964-.37-1.39-.03-1.333 1.43-1.609 1.99-2.518.52-.832-.27-2.667-.42-3.558-.26-1.478.43-1.931 1.52-2.24.87-.248 2.19-.44 3.04.005.62.331.65 1.61.77 2.302.17 1.002.23 2.008.4 3.003.12.699.26 1.457.93 1.616 1.2.286 2.44 1.687 2.95 3.065.73 1.949 3.06 2.001 3.45 4.257.19 1.094.09 1.98-.13 3.042-.23 1.07-1.33 1.567-2.06 1.92-2.24 1.072-4.5 2.104-6.72 3.21-1.16.579-2.34 1.512-3.34 2.433-.71.66-1.56 1.594-2.42 1.918-.38.145-.65.474-1.06.589l-1.18.337c-.66.186-1.33.234-2 .423-1.14.325-1.26 2.609-1.46 3.741-.32 1.832-2.21 2.259-2.93 3.725-.21.424-.14 1.413.12 1.772z" fill="#182B34"/><path d="M1053.44 131.33c.73 1.113 1.47.447 2.24-.202.68-.51.5-1.478.04-2.182-.25-.389-.45-.727-.91-.61-.37.096-1.08.221-1.34.608-.44.644-.49 1.698-.03 2.386zm11.08-5.174c.46.336 1.21-.478 1.53-.724.59-.435.83-.655 1.26-1.289.43-.633 1.39-.474 1.91-.944v-.001c.53-.481.92-.839.77-1.705-.13-.751-.49-.945-1.08-.777-.79.224-1.41.98-2.22 1.208-.7.201-1.37.288-2.08.593-.62.263-.7 1.444-.6 2.057.07.392.23 1.377.51 1.582zm-31.96-5.634c-.47 1.286-.28 1.807.57 1.973 1.11.515 2.03-1.957 1.02-2.746-.53-.409-1.35.109-1.59.773zm16.44 32.7c.68.048 1.08.317 1.74.13 1.2-.89.61-1.943.39-3.221-.14-.849-1.74-2.128-2.43-2.12-1.04.013-2.67.687-2.76 2.045-.05.818.56 1.754 1.06 2.189.7.606 1.09.913 2 .977zm61.29-30.577c.38 1.325 1.63 1.309 2.54 1.053l.01-.014c.68-.503 1.22-.902 1.03-1.981-.11-.619-.5-2.382-1.17-2.374-.91.011-2.03.52-2.53 1.472-.24.476-.03 1.334.12 1.844zm-13.81-9.203c.2 1.465.77 1.952 1.94 1.617.51-.144 1.47-.377 1.31-1.305-.11-.62-.41-1.815-1.08-1.807-.62.008-2.32.397-2.17 1.495zm-6.57 6.591c.36.865.61 1.006 1.31.806.69-.196 1.28-.456 1.51-1.36.09-.39-.27-1.848-.66-1.768-.61.13-1.71.248-2.14.873-.33.486-.24.928-.02 1.449zM0 217h1280v386H0V217z" fill="#182B34"/></svg>