<svg width="235" height="78" fill="none" xmlns="http://www.w3.org/2000/svg"><path d="M6.72 47.84c-1.227 0-2.26-.28-3.1-.84-.827-.56-1.453-1.367-1.88-2.42-.427-1.054-.64-2.307-.64-3.76 0-1.587.26-2.907.78-3.96.52-1.067 1.247-1.867 2.18-2.4.933-.547 2.02-.82 3.26-.82.6 0 1.173.053 1.72.16a4.273 4.273 0 011.46.56l-.42.82a3.651 3.651 0 00-1.26-.48 6.725 6.725 0 00-1.5-.16c-1.573 0-2.833.513-3.78 1.54-.947 1.013-1.42 2.54-1.42 4.58 0 .306.02.7.06 1.18.04.466.127.926.26 1.38l-.36-.1c.093-.774.353-1.434.78-1.98A4.01 4.01 0 014.5 39.9c.667-.294 1.4-.44 2.2-.44.933 0 1.747.173 2.44.52.707.333 1.253.813 1.64 1.44.4.626.6 1.36.6 2.2 0 .853-.207 1.6-.62 2.24a4.022 4.022 0 01-1.66 1.46c-.693.346-1.487.52-2.38.52zm-.04-.88c.733 0 1.373-.134 1.92-.4.547-.28.973-.667 1.28-1.16.32-.507.48-1.094.48-1.76 0-1-.34-1.8-1.02-2.4-.667-.6-1.593-.9-2.78-.9-.76 0-1.433.146-2.02.44a3.468 3.468 0 00-1.38 1.2 3.118 3.118 0 00-.48 1.7c0 .546.153 1.073.46 1.58.307.493.753.9 1.34 1.22.6.32 1.333.48 2.2.48zm8.755.78l6.16-13.52.36.44h-8.94l.52-.48v3.16h-1v-3.6h10.04v.72l-6.02 13.28h-1.12zm8.967.08a.858.858 0 01-.6-.24.883.883 0 01-.24-.62c0-.24.08-.44.24-.6a.858.858 0 01.6-.24c.227 0 .42.08.58.24.174.16.26.36.26.6s-.086.446-.26.62a.79.79 0 01-.58.24zm5.37-.08l6.16-13.52.36.44h-8.94l.52-.48v3.16h-1v-3.6h10.04v.72l-6.02 13.28h-1.12zm13.065.1a7.89 7.89 0 01-2.88-.52c-.88-.347-1.567-.8-2.06-1.36l.52-.78c.426.493 1.026.906 1.8 1.24.786.32 1.66.48 2.62.48 1.253 0 2.206-.28 2.86-.84.666-.56 1-1.314 1-2.26 0-.934-.334-1.68-1-2.24-.654-.574-1.68-.86-3.08-.86h-.88v-.74l4.46-5.7.14.4h-7.92v-.92h8.78v.72l-4.44 5.7-.44-.32h.44c1.666 0 2.913.366 3.74 1.1.826.733 1.24 1.686 1.24 2.86 0 .773-.187 1.466-.56 2.08-.36.613-.907 1.093-1.64 1.44-.72.346-1.62.52-2.7.52zm12.672 0c-1.227 0-2.26-.28-3.1-.84-.827-.56-1.453-1.367-1.88-2.42-.427-1.054-.64-2.307-.64-3.76 0-1.587.26-2.907.78-3.96.52-1.067 1.247-1.867 2.18-2.4.933-.547 2.02-.82 3.26-.82.6 0 1.173.053 1.72.16a4.273 4.273 0 011.46.56l-.42.82a3.651 3.651 0 00-1.26-.48 6.725 6.725 0 00-1.5-.16c-1.573 0-2.833.513-3.78 1.54-.947 1.013-1.42 2.54-1.42 4.58 0 .306.02.7.06 1.18.04.466.127.926.26 1.38l-.36-.1c.093-.774.353-1.434.78-1.98.427-.547.973-.96 1.64-1.24.667-.294 1.4-.44 2.2-.44.933 0 1.747.173 2.44.52.707.333 1.253.813 1.64 1.44.4.626.6 1.36.6 2.2 0 .853-.207 1.6-.62 2.24a4.023 4.023 0 01-1.66 1.46c-.693.346-1.487.52-2.38.52zm-.04-.88c.733 0 1.373-.134 1.92-.4.547-.28.973-.667 1.28-1.16.32-.507.48-1.094.48-1.76 0-1-.34-1.8-1.02-2.4-.667-.6-1.593-.9-2.78-.9-.76 0-1.433.146-2.02.44a3.467 3.467 0 00-1.38 1.2 3.118 3.118 0 00-.48 1.7c0 .546.153 1.073.46 1.58.307.493.753.9 1.34 1.22.6.32 1.333.48 2.2.48zm6.211-3.1v-.74l7.6-9.38h1.14l-7.58 9.38-.56-.16H73.6v.9H61.68zm7.98 3.88v-3.88l.02-.9v-3.42h.98v8.2h-1zm9.628.1a7.835 7.835 0 01-2.86-.52c-.88-.347-1.567-.8-2.06-1.36l.52-.78c.426.493 1.026.906 1.8 1.24.773.32 1.633.48 2.58.48 1.293 0 2.266-.294 2.92-.88.653-.587.98-1.347.98-2.28 0-.667-.154-1.24-.46-1.72-.307-.48-.827-.847-1.56-1.1-.734-.267-1.734-.4-3-.4h-2.84l.74-6.78h7.42v.92h-7l.5-.48-.66 5.94-.48-.52h2.54c1.426 0 2.56.173 3.4.52.853.333 1.466.806 1.84 1.42.386.613.58 1.333.58 2.16a4.14 4.14 0 01-.54 2.1c-.36.626-.907 1.126-1.64 1.5-.72.36-1.627.54-2.72.54zm11.054 0a7.835 7.835 0 01-2.86-.52c-.88-.347-1.566-.8-2.06-1.36l.52-.78c.427.493 1.027.906 1.8 1.24.774.32 1.634.48 2.58.48 1.294 0 2.267-.294 2.92-.88.654-.587.98-1.347.98-2.28 0-.667-.153-1.24-.46-1.72-.306-.48-.826-.847-1.56-1.1-.733-.267-1.733-.4-3-.4h-2.84l.74-6.78h7.42v.92h-7l.5-.48-.66 5.94-.48-.52h2.54c1.427 0 2.56.173 3.4.52.854.333 1.467.806 1.84 1.42.387.613.58 1.333.58 2.16a4.14 4.14 0 01-.54 2.1c-.36.626-.906 1.126-1.64 1.5-.72.36-1.626.54-2.72.54zm12.293 0c-1.067 0-2.014-.287-2.84-.86-.827-.574-1.474-1.387-1.94-2.44-.467-1.067-.7-2.334-.7-3.8 0-1.467.233-2.727.7-3.78.466-1.067 1.113-1.887 1.94-2.46.826-.574 1.773-.86 2.84-.86 1.08 0 2.026.286 2.84.86.826.573 1.473 1.393 1.94 2.46.466 1.053.7 2.313.7 3.78 0 1.466-.234 2.733-.7 3.8-.467 1.053-1.114 1.866-1.94 2.44-.814.573-1.76.86-2.84.86zm0-.94c.893 0 1.673-.24 2.34-.72.666-.494 1.186-1.2 1.56-2.12.373-.92.56-2.027.56-3.32 0-1.307-.187-2.414-.56-3.32-.374-.92-.894-1.62-1.56-2.1-.667-.494-1.447-.74-2.34-.74-.88 0-1.66.246-2.34.74-.667.48-1.187 1.18-1.56 2.1-.374.906-.56 2.013-.56 3.32 0 1.293.186 2.4.56 3.32.373.92.893 1.626 1.56 2.12.68.48 1.46.72 2.34.72zm13.304.94c-1.227 0-2.26-.28-3.1-.84-.827-.56-1.454-1.367-1.88-2.42-.427-1.054-.64-2.307-.64-3.76 0-1.587.26-2.907.78-3.96.52-1.067 1.246-1.867 2.18-2.4.933-.547 2.02-.82 3.26-.82.6 0 1.173.053 1.72.16a4.28 4.28 0 011.46.56l-.42.82a3.651 3.651 0 00-1.26-.48 6.73 6.73 0 00-1.5-.16c-1.574 0-2.834.513-3.78 1.54-.947 1.013-1.42 2.54-1.42 4.58 0 .306.02.7.06 1.18.04.466.126.926.26 1.38l-.36-.1c.093-.774.353-1.434.78-1.98a4 4 0 011.64-1.24c.666-.294 1.4-.44 2.2-.44.933 0 1.746.173 2.44.52.706.333 1.253.813 1.64 1.44.4.626.6 1.36.6 2.2 0 .853-.207 1.6-.62 2.24a4.027 4.027 0 01-1.66 1.46c-.694.346-1.487.52-2.38.52zm-.04-.88c.733 0 1.373-.134 1.92-.4a3.18 3.18 0 001.28-1.16c.32-.507.48-1.094.48-1.76 0-1-.34-1.8-1.02-2.4-.667-.6-1.594-.9-2.78-.9-.76 0-1.434.146-2.02.44a3.463 3.463 0 00-1.38 1.2 3.118 3.118 0 00-.48 1.7c0 .546.153 1.073.46 1.58.306.493.753.9 1.34 1.22.6.32 1.333.48 2.2.48zm12.071.88c-1.227 0-2.26-.28-3.1-.84-.827-.56-1.453-1.367-1.88-2.42-.427-1.054-.64-2.307-.64-3.76 0-1.587.26-2.907.78-3.96.52-1.067 1.247-1.867 2.18-2.4.933-.547 2.02-.82 3.26-.82.6 0 1.173.053 1.72.16a4.272 4.272 0 011.46.56l-.42.82a3.651 3.651 0 00-1.26-.48 6.73 6.73 0 00-1.5-.16c-1.573 0-2.833.513-3.78 1.54-.947 1.013-1.42 2.54-1.42 4.58 0 .306.02.7.06 1.18.04.466.127.926.26 1.38l-.36-.1c.093-.774.353-1.434.78-1.98a4.01 4.01 0 011.64-1.24c.667-.294 1.4-.44 2.2-.44.933 0 1.747.173 2.44.52.707.333 1.253.813 1.64 1.44.4.626.6 1.36.6 2.2 0 .853-.207 1.6-.62 2.24a4.02 4.02 0 01-1.66 1.46c-.693.346-1.487.52-2.38.52zm-.04-.88c.733 0 1.373-.134 1.92-.4.547-.28.973-.667 1.28-1.16.32-.507.48-1.094.48-1.76 0-1-.34-1.8-1.02-2.4-.667-.6-1.593-.9-2.78-.9-.76 0-1.433.146-2.02.44a3.463 3.463 0 00-1.38 1.2 3.118 3.118 0 00-.48 1.7c0 .546.153 1.073.46 1.58.307.493.753.9 1.34 1.22.6.32 1.333.48 2.2.48zm6.211-3.1v-.74l7.6-9.38h1.14l-7.58 9.38-.56-.16h11.32v.9h-11.92zm7.98 3.88v-3.88l.02-.9v-3.42h.98v8.2h-1zm10.966.1c-1.226 0-2.26-.28-3.1-.84-.826-.56-1.453-1.367-1.88-2.42-.426-1.054-.64-2.307-.64-3.76 0-1.587.26-2.907.78-3.96.52-1.067 1.247-1.867 2.18-2.4.934-.547 2.02-.82 3.26-.82.6 0 1.174.053 1.72.16a4.264 4.264 0 011.46.56l-.42.82a3.651 3.651 0 00-1.26-.48 6.716 6.716 0 00-1.5-.16c-1.573 0-2.833.513-3.78 1.54-.946 1.013-1.42 2.54-1.42 4.58 0 .306.02.7.06 1.18.04.466.127.926.26 1.38l-.36-.1c.094-.774.354-1.434.78-1.98.427-.547.974-.96 1.64-1.24.667-.294 1.4-.44 2.2-.44.934 0 1.747.173 2.44.52.707.333 1.254.813 1.64 1.44.4.626.6 1.36.6 2.2 0 .853-.206 1.6-.62 2.24a4.02 4.02 0 01-1.66 1.46c-.693.346-1.486.52-2.38.52zm-.04-.88c.734 0 1.374-.134 1.92-.4a3.17 3.17 0 001.28-1.16c.32-.507.48-1.094.48-1.76 0-1-.34-1.8-1.02-2.4-.666-.6-1.593-.9-2.78-.9-.76 0-1.433.146-2.02.44a3.477 3.477 0 00-1.38 1.2 3.118 3.118 0 00-.48 1.7c0 .546.154 1.073.46 1.58.307.493.754.9 1.34 1.22.6.32 1.334.48 2.2.48zm12.071.88c-1.226 0-2.26-.28-3.1-.84-.826-.56-1.453-1.367-1.88-2.42-.426-1.054-.64-2.307-.64-3.76 0-1.587.26-2.907.78-3.96.52-1.067 1.247-1.867 2.18-2.4.934-.547 2.02-.82 3.26-.82.6 0 1.174.053 1.72.16a4.264 4.264 0 011.46.56l-.42.82a3.651 3.651 0 00-1.26-.48 6.716 6.716 0 00-1.5-.16c-1.573 0-2.833.513-3.78 1.54-.946 1.013-1.42 2.54-1.42 4.58 0 .306.02.7.06 1.18.04.466.127.926.26 1.38l-.36-.1c.094-.774.354-1.434.78-1.98.427-.547.974-.96 1.64-1.24.667-.294 1.4-.44 2.2-.44.934 0 1.747.173 2.44.52.707.333 1.254.813 1.64 1.44.4.626.6 1.36.6 2.2 0 .853-.206 1.6-.62 2.24a4.02 4.02 0 01-1.66 1.46c-.693.346-1.486.52-2.38.52zm-.04-.88c.734 0 1.374-.134 1.92-.4a3.17 3.17 0 001.28-1.16c.32-.507.48-1.094.48-1.76 0-1-.34-1.8-1.02-2.4-.666-.6-1.593-.9-2.78-.9-.76 0-1.433.146-2.02.44a3.477 3.477 0 00-1.38 1.2 3.118 3.118 0 00-.48 1.7c0 .546.154 1.073.46 1.58.307.493.754.9 1.34 1.22.6.32 1.334.48 2.2.48zm8.952.78V34.18l.46.48h-3.88v-.92h4.44v14h-1.02zm4.61 2.86l.78-3.38.1.58a.91.91 0 01-.64-.24.814.814 0 01-.24-.6c0-.24.08-.44.24-.6a.86.86 0 01.6-.24c.254 0 .454.086.6.26.16.16.24.353.24.58a1.996 1.996 0 01-.08.56l-.1.36-.78 2.72h-.72zM.86 67.86v-.74l7.6-9.38H9.6l-7.58 9.38-.56-.16h11.32v.9H.86zm7.98 3.88v-3.88l.02-.9v-3.42h.98v8.2h-1zm10.826.1c-1.067 0-2.013-.287-2.84-.86-.827-.574-1.473-1.387-1.94-2.44-.467-1.067-.7-2.334-.7-3.8 0-1.467.233-2.727.7-3.78.467-1.067 1.113-1.887 1.94-2.46.827-.574 1.773-.86 2.84-.86 1.08 0 2.027.286 2.84.86.827.573 1.473 1.393 1.94 2.46.467 1.053.7 2.313.7 3.78 0 1.466-.233 2.733-.7 3.8-.467 1.053-1.113 1.866-1.94 2.44-.813.573-1.76.86-2.84.86zm0-.94c.893 0 1.673-.24 2.34-.72.667-.494 1.187-1.2 1.56-2.12.373-.92.56-2.027.56-3.32 0-1.307-.187-2.414-.56-3.32-.373-.92-.893-1.62-1.56-2.1-.667-.494-1.447-.74-2.34-.74-.88 0-1.66.246-2.34.74-.667.48-1.187 1.18-1.56 2.1-.373.906-.56 2.013-.56 3.32 0 1.293.187 2.4.56 3.32.373.92.893 1.626 1.56 2.12.68.48 1.46.72 2.34.72zm8.37.92a.858.858 0 01-.6-.24.883.883 0 01-.24-.62c0-.24.08-.44.24-.6a.858.858 0 01.6-.24c.226 0 .42.08.58.24.172.16.26.36.26.6s-.088.446-.26.62a.79.79 0 01-.58.24zm7.323-14.18c1.227 0 2.253.28 3.08.84.84.56 1.473 1.366 1.9 2.42.427 1.04.64 2.293.64 3.76 0 1.573-.26 2.893-.78 3.96-.52 1.066-1.247 1.873-2.18 2.42-.933.533-2.02.8-3.26.8-.6 0-1.173-.054-1.72-.16a4.489 4.489 0 01-1.46-.56l.42-.82c.36.226.78.393 1.26.5.48.093.98.14 1.5.14 1.573 0 2.833-.507 3.78-1.52.947-1.027 1.42-2.56 1.42-4.6 0-.32-.02-.714-.06-1.18a7 7 0 00-.26-1.38l.36.1c-.093.773-.353 1.433-.78 1.98a4.253 4.253 0 01-1.64 1.24c-.653.293-1.387.44-2.2.44-.933 0-1.753-.167-2.46-.5a4.05 4.05 0 01-1.64-1.46c-.387-.627-.58-1.36-.58-2.2 0-.854.2-1.594.6-2.22a4.143 4.143 0 011.66-1.48c.707-.347 1.507-.52 2.4-.52zm.04.88c-.733 0-1.373.14-1.92.42-.547.266-.98.646-1.3 1.14-.307.493-.46 1.08-.46 1.76 0 1 .34 1.8 1.02 2.4.68.6 1.607.9 2.78.9.76 0 1.433-.147 2.02-.44.587-.294 1.04-.694 1.36-1.2a3.03 3.03 0 00.5-1.7 2.91 2.91 0 00-.46-1.56c-.307-.507-.753-.92-1.34-1.24-.587-.32-1.32-.48-2.2-.48zm11.991-.88c1.227 0 2.254.28 3.08.84.84.56 1.474 1.366 1.9 2.42.427 1.04.64 2.293.64 3.76 0 1.573-.26 2.893-.78 3.96-.52 1.066-1.246 1.873-2.18 2.42-.933.533-2.02.8-3.26.8-.6 0-1.173-.054-1.72-.16a4.49 4.49 0 01-1.46-.56l.42-.82c.36.226.78.393 1.26.5.48.093.98.14 1.5.14 1.574 0 2.834-.507 3.78-1.52.947-1.027 1.42-2.56 1.42-4.6 0-.32-.02-.714-.06-1.18a7 7 0 00-.26-1.38l.36.1c-.093.773-.353 1.433-.78 1.98a4.252 4.252 0 01-1.64 1.24c-.653.293-1.386.44-2.2.44-.933 0-1.753-.167-2.46-.5a4.05 4.05 0 01-1.64-1.46c-.386-.627-.58-1.36-.58-2.2 0-.854.2-1.594.6-2.22a4.144 4.144 0 011.66-1.48c.707-.347 1.507-.52 2.4-.52zm.04.88c-.733 0-1.373.14-1.92.42a3.17 3.17 0 00-1.3 1.14c-.306.493-.46 1.08-.46 1.76 0 1 .34 1.8 1.02 2.4.68.6 1.607.9 2.78.9.76 0 1.434-.147 2.02-.44.587-.294 1.04-.694 1.36-1.2.334-.507.5-1.074.5-1.7 0-.547-.153-1.067-.46-1.56-.306-.507-.753-.92-1.34-1.24-.586-.32-1.32-.48-2.2-.48zm7.532 9.34v-.74l7.6-9.38h1.14l-7.58 9.38-.56-.16h11.32v.9h-11.92zm7.98 3.88v-3.88l.02-.9v-3.42h.98v8.2h-1zm5.007 0v-.72l5.92-5.88c.56-.56.98-1.047 1.26-1.46.28-.427.467-.82.56-1.18.107-.36.16-.714.16-1.06 0-.88-.3-1.574-.9-2.08-.6-.52-1.48-.78-2.64-.78-.88 0-1.653.133-2.32.4a4.505 4.505 0 00-1.7 1.22l-.72-.64c.533-.614 1.207-1.087 2.02-1.42.827-.334 1.76-.5 2.8-.5.92 0 1.713.153 2.38.46.68.293 1.2.72 1.56 1.28.373.546.56 1.2.56 1.96 0 .453-.067.9-.2 1.34-.12.426-.347.88-.68 1.36-.32.48-.787 1.026-1.4 1.64l-5.56 5.54-.34-.4h8.86v.92h-9.62zm11.27 0v-.72l5.92-5.88c.56-.56.98-1.047 1.26-1.46.28-.427.466-.82.56-1.18.106-.36.16-.714.16-1.06 0-.88-.3-1.574-.9-2.08-.6-.52-1.48-.78-2.64-.78-.88 0-1.654.133-2.32.4a4.505 4.505 0 00-1.7 1.22l-.72-.64c.533-.614 1.206-1.087 2.02-1.42.826-.334 1.76-.5 2.8-.5.92 0 1.713.153 2.38.46.68.293 1.2.72 1.56 1.28.373.546.56 1.2.56 1.96 0 .453-.067.9-.2 1.34-.12.426-.347.88-.68 1.36-.32.48-.787 1.026-1.4 1.64l-5.56 5.54-.34-.4h8.86v.92h-9.62zm13.97 0l6.16-13.52.36.44h-8.94l.52-.48v3.16h-1v-3.6h10.04v.72l-6.02 13.28h-1.12zm14.231.1c-1.067 0-2.013-.287-2.84-.86-.827-.574-1.473-1.387-1.94-2.44-.467-1.067-.7-2.334-.7-3.8 0-1.467.233-2.727.7-3.78.467-1.067 1.113-1.887 1.94-2.46.827-.574 1.773-.86 2.84-.86 1.08 0 2.027.286 2.84.86.827.573 1.473 1.393 1.94 2.46.467 1.053.7 2.313.7 3.78 0 1.466-.233 2.733-.7 3.8-.467 1.053-1.113 1.866-1.94 2.44-.813.573-1.76.86-2.84.86zm0-.94c.893 0 1.673-.24 2.34-.72.667-.494 1.187-1.2 1.56-2.12.373-.92.56-2.027.56-3.32 0-1.307-.187-2.414-.56-3.32-.373-.92-.893-1.62-1.56-2.1-.667-.494-1.447-.74-2.34-.74-.88 0-1.66.246-2.34.74-.667.48-1.187 1.18-1.56 2.1-.373.906-.56 2.013-.56 3.32 0 1.293.187 2.4.56 3.32.373.92.893 1.626 1.56 2.12.68.48 1.46.72 2.34.72zm13.164.94c-1.067 0-2.013-.287-2.84-.86-.827-.574-1.473-1.387-1.94-2.44-.467-1.067-.7-2.334-.7-3.8 0-1.467.233-2.727.7-3.78.467-1.067 1.113-1.887 1.94-2.46.827-.574 1.773-.86 2.84-.86 1.08 0 2.027.286 2.84.86.827.573 1.473 1.393 1.94 2.46.467 1.053.7 2.313.7 3.78 0 1.466-.233 2.733-.7 3.8-.467 1.053-1.113 1.866-1.94 2.44-.813.573-1.76.86-2.84.86zm0-.94c.893 0 1.673-.24 2.34-.72.667-.494 1.187-1.2 1.56-2.12.373-.92.56-2.027.56-3.32 0-1.307-.187-2.414-.56-3.32-.373-.92-.893-1.62-1.56-2.1-.667-.494-1.447-.74-2.34-.74-.88 0-1.66.246-2.34.74-.667.48-1.187 1.18-1.56 2.1-.373.906-.56 2.013-.56 3.32 0 1.293.187 2.4.56 3.32.373.92.893 1.626 1.56 2.12.68.48 1.46.72 2.34.72zm13.164.94c-1.067 0-2.013-.287-2.84-.86-.827-.574-1.473-1.387-1.94-2.44-.467-1.067-.7-2.334-.7-3.8 0-1.467.233-2.727.7-3.78.467-1.067 1.113-1.887 1.94-2.46.827-.574 1.773-.86 2.84-.86 1.08 0 2.027.286 2.84.86.827.573 1.473 1.393 1.94 2.46.467 1.053.7 2.313.7 3.78 0 1.466-.233 2.733-.7 3.8-.467 1.053-1.113 1.866-1.94 2.44-.813.573-1.76.86-2.84.86zm0-.94c.893 0 1.673-.24 2.34-.72.667-.494 1.187-1.2 1.56-2.12.373-.92.56-2.027.56-3.32 0-1.307-.187-2.414-.56-3.32-.373-.92-.893-1.62-1.56-2.1-.667-.494-1.447-.74-2.34-.74-.88 0-1.66.246-2.34.74-.667.48-1.187 1.18-1.56 2.1-.373.906-.56 2.013-.56 3.32 0 1.293.187 2.4.56 3.32.373.92.893 1.626 1.56 2.12.68.48 1.46.72 2.34.72zm7.444-3.04v-.74l7.6-9.38h1.14l-7.58 9.38-.56-.16h11.32v.9h-11.92zm7.98 3.88v-3.88l.02-.9v-3.42h.98v8.2h-1zm10.826.1c-1.067 0-2.013-.287-2.84-.86-.827-.574-1.473-1.387-1.94-2.44-.467-1.067-.7-2.334-.7-3.8 0-1.467.233-2.727.7-3.78.467-1.067 1.113-1.887 1.94-2.46.827-.574 1.773-.86 2.84-.86 1.08 0 2.027.286 2.84.86.827.573 1.473 1.393 1.94 2.46.467 1.053.7 2.313.7 3.78 0 1.466-.233 2.733-.7 3.8-.467 1.053-1.113 1.866-1.94 2.44-.813.573-1.76.86-2.84.86zm0-.94c.893 0 1.673-.24 2.34-.72.667-.494 1.187-1.2 1.56-2.12.373-.92.56-2.027.56-3.32 0-1.307-.187-2.414-.56-3.32-.373-.92-.893-1.62-1.56-2.1-.667-.494-1.447-.74-2.34-.74-.88 0-1.66.246-2.34.74-.667.48-1.187 1.18-1.56 2.1-.373.906-.56 2.013-.56 3.32 0 1.293.187 2.4.56 3.32.373.92.893 1.626 1.56 2.12.68.48 1.46.72 2.34.72zm7.444-3.04v-.74l7.6-9.38h1.14l-7.58 9.38-.56-.16h11.32v.9h-11.92zm7.98 3.88v-3.88l.02-.9v-3.42h.98v8.2h-1zm5.106-3.88v-.74l7.6-9.38h1.14l-7.58 9.38-.56-.16h11.32v.9h-11.92zm7.98 3.88v-3.88l.02-.9v-3.42h.98v8.2h-1zm9.627.1a7.839 7.839 0 01-2.86-.52c-.88-.347-1.566-.8-2.06-1.36l.52-.78c.427.493 1.027.906 1.8 1.24.774.32 1.634.48 2.58.48 1.294 0 2.267-.294 2.92-.88.654-.587.98-1.347.98-2.28 0-.667-.153-1.24-.46-1.72-.306-.48-.826-.847-1.56-1.1-.733-.267-1.733-.4-3-.4h-2.84l.74-6.78h7.42v.92h-7l.5-.48-.66 5.94-.48-.52h2.54c1.427 0 2.56.173 3.4.52.854.333 1.467.806 1.84 1.42.387.613.58 1.333.58 2.16a4.14 4.14 0 01-.54 2.1c-.36.626-.906 1.126-1.64 1.5-.72.36-1.626.54-2.72.54zm6.573-3.98v-.74l7.6-9.38h1.14l-7.58 9.38-.56-.16h11.32v.9h-11.92zm7.98 3.88v-3.88l.02-.9v-3.42h.98v8.2h-1z" fill="#fff"/><g clip-path="url(#clip0_1910_8829)"><path d="M4.942 14.848a20.66 20.66 0 012.011 2.309c.513.756.727 1.27 1.102 2.181.23.504.438.655.884.655.487 0 .708-.256.879-.652.354-.86.632-1.518 1.071-2.14.86-1.198 1.93-2.264 2.982-3.287.284-.29 2.124-1.979 2.952-3.31 0 0 1.018-1.464 1.018-3.508 0-1.912-1.004-3.237-1.004-3.237l-2.89.602-1.755 3.597-.435.496-.086.09-.116.112-.203.18-.29.225-1.562.99-3.908 1.756-.65 2.941z" fill="#34A853"/><path d="M.909 10.357c.953 1.695 2.793 3.185 4.037 4.493l6.609-6.092s-.931.948-2.62.948c-1.881 0-3.401-1.17-3.401-2.643 0-1.01.781-1.705.781-1.705l-4.486.935-.92 4.064z" fill="#FBBC04"/><path d="M11.629.446c2.195.55 4.074 1.707 5.21 3.411l-5.282 4.898s.782-.707.782-1.711c0-1.509-1.633-2.635-3.396-2.635-1.667 0-2.625.945-2.625.945V2.27L11.629.446z" fill="#4285F4"/><path d="M2.12 2.61C3.43 1.39 5.736.133 8.917.133c1.543 0 2.705.315 2.705.315l-5.31 4.909H2.55L2.12 2.61z" fill="#1A73E8"/><path d="M.909 10.357S.03 9.021.03 7.084c0-1.83.915-3.43 2.088-4.474l4.197 2.748-5.407 5z" fill="#EA4335"/><path d="M91.2 16.24V5.804h1.723l4.666 6.356h.075l4.666-6.356h1.723V16.24h-1.723v-6.196l.075-1.75h-.075l-4.197 5.73h-1.011l-4.196-5.73h-.076l.076 1.75v6.195h-1.727zm17.893.22c-.974 0-1.79-.22-2.445-.657-.655-.437-.983-1.015-.983-1.734 0-.782.386-1.388 1.161-1.83.775-.443 1.73-.663 2.861-.663 1.012 0 1.842.145 2.492.437v-.204c0-.525-.23-.945-.692-1.26-.462-.316-1.031-.474-1.706-.474a3.3 3.3 0 00-1.358.273c-.406.181-.683.437-.833.757l-1.574-.524c.212-.428.631-.82 1.255-1.188.624-.368 1.448-.547 2.473-.547 1.175 0 2.148.268 2.923.802.774.534 1.161 1.288 1.161 2.26v4.32h-1.648v-.993h-.075c-.688.82-1.693 1.224-3.012 1.224zm.281-1.225a3.27 3.27 0 001.939-.62c.581-.412.871-.898.871-1.464-.486-.311-1.217-.466-2.192-.466-.837 0-1.468.14-1.892.422-.424.283-.637.613-.637.992 0 .35.193.627.58.83a2.81 2.81 0 001.331.307zm10.913 1.224c-.699 0-1.327-.117-1.882-.35-.555-.232-.971-.524-1.245-.874h-.075l.075.99v3.15h-1.723V9.083h1.649v.992h.075c.275-.35.69-.642 1.245-.875.555-.234 1.184-.35 1.882-.35 1.187 0 2.212.364 3.073 1.093.862.73 1.293 1.633 1.293 2.712 0 1.079-.431 1.983-1.293 2.711-.861.73-1.886 1.094-3.073 1.094h-.001zm-.281-1.224c.8 0 1.486-.236 2.061-.703.576-.467.862-1.096.862-1.873 0-.778-.287-1.406-.862-1.874-.574-.467-1.262-.703-2.061-.703-.811 0-1.502.233-2.07.7-.568.467-.852 1.094-.852 1.88 0 .788.284 1.414.852 1.881.567.467 1.258.7 2.07.7v-.008zm9.229 1.224c-1.024 0-1.871-.194-2.539-.583-.669-.388-1.155-.874-1.471-1.457l1.536-.497c.487.899 1.318 1.341 2.493 1.341.537 0 .978-.092 1.321-.273.343-.181.515-.428.515-.729 0-.466-.418-.782-1.255-.947l-1.855-.35a4.989 4.989 0 01-1.668-.663c-.524-.325-.787-.765-.787-1.319 0-.631.359-1.144 1.077-1.539.719-.394 1.572-.59 2.558-.59.812 0 1.536.143 2.173.43.625.275 1.108.71 1.368 1.231l-1.499.481c-.336-.631-1.037-.947-2.098-.947-.512 0-.944.083-1.293.248-.349.164-.524.389-.524.67 0 .409.401.686 1.217.832l1.817.335c.862.155 1.499.423 1.911.801.412.38.619.807.619 1.284 0 .641-.338 1.171-1.012 1.603-.675.432-1.543.642-2.61.642l.006-.004zm-89.116-6.441h-7.07v1.632h5.019c-.247 2.288-2.695 3.265-5.006 3.265a6.904 6.904 0 01-2.134-.326 5.808 5.808 0 01-1.806-.944 4.375 4.375 0 01-1.196-1.413 3.466 3.466 0 01-.4-1.663c0-2.471 2.459-4.374 5.542-4.374 2.379 0 3.78 1.18 3.78 1.18l1.468-1.183s-1.885-1.633-5.324-1.633c-4.378 0-7.766 2.876-7.766 5.982 0 3.043 3.187 6.011 7.878 6.011 4.126 0 7.148-2.2 7.148-5.452 0-.685-.128-1.082-.128-1.082h-.005zm5.805-1.162c-2.902 0-4.98 1.765-4.98 3.823 0 2.089 2.016 3.886 5.019 3.886 2.714 0 4.937-1.614 4.937-3.842 0-2.552-2.587-3.867-4.971-3.867h-.005zm.028 1.514c1.427 0 2.78.898 2.78 2.344 0 1.415-1.348 2.34-2.787 2.34-1.58 0-2.828-.986-2.828-2.35 0-1.336 1.232-2.333 2.835-2.333zm10.751-1.514c-2.9 0-4.98 1.765-4.98 3.823 0 2.089 2.017 3.886 5.02 3.886 2.714 0 4.937-1.614 4.937-3.842 0-2.552-2.587-3.867-4.971-3.867h-.006zm.03 1.514c1.426 0 2.778.898 2.778 2.344 0 1.415-1.347 2.34-2.786 2.34-1.581 0-2.828-.986-2.828-2.35 0-1.336 1.232-2.333 2.835-2.333zm10.584-1.514c-2.662 0-4.756 1.815-4.756 3.852 0 2.32 2.426 3.859 4.71 3.859 1.412 0 2.162-.437 2.717-.938v.76c0 1.33-1.038 2.127-2.61 2.127-1.513 0-2.272-.876-2.536-1.373l-1.904.62c.676 1.11 2.035 2.27 4.457 2.27 2.648 0 4.666-1.297 4.666-4.023V9.086h-2.077v.653c-.639-.535-1.512-.885-2.67-.885l.004.002zm.193 1.512c1.306 0 2.646.867 2.646 2.348 0 1.506-1.337 2.336-2.675 2.336-1.42 0-2.74-.897-2.74-2.322 0-1.484 1.37-2.363 2.77-2.363zm13.82-1.512c-2.51 0-4.62 1.555-4.62 3.85 0 2.428 2.35 3.868 4.862 3.868 2.096 0 3.383-.892 4.15-1.692l-1.707-.886c-.444.536-1.187 1.061-2.427 1.061-1.392 0-2.032-.594-2.429-1.168l6.643-2.148-.345-.625c-.642-1.231-2.14-2.26-4.116-2.26h-.01zm.087 1.483c.906 0 1.556.375 1.834.823l-4.436 1.443c-.191-1.117 1.168-2.266 2.603-2.266zm-7.88 6.005h2.181V4.98h-2.181v11.365z" fill="#fff"/></g><defs><clipPath id="clip0_1910_8829"><path fill="#fff" transform="translate(0 .137)" d="M0 0h132.826v19.863H0z"/></clipPath></defs></svg>