<svg width="105" height="105" fill="none" xmlns="http://www.w3.org/2000/svg"><path d="M6.528 39.588c0-11.573 0-17.36 2.253-21.78a20.663 20.663 0 019.03-9.03c4.42-2.253 10.207-2.253 21.78-2.253h25.231c11.573 0 17.36 0 21.78 2.253a20.664 20.664 0 019.03 9.03c2.252 4.42 2.252 10.207 2.252 21.78v25.231c0 11.573 0 17.36-2.252 21.78a20.664 20.664 0 01-9.03 9.03c-4.42 2.252-10.207 2.252-21.78 2.252H39.59c-11.572 0-17.359 0-21.779-2.252a20.664 20.664 0 01-9.03-9.03c-2.253-4.42-2.253-10.207-2.253-21.78V39.588z" fill="#242424"/><path d="M32.192 53.508c-12.725 9.366-15.226 23.057-15.226 34.476.58-3.407 3.24-11.397 9.244-16.096 8.918-6.979 25.232-4.68 43.068-16.53 17.836-11.853 19.576-27.3 17.292-39.154-1.586 11.439-7.002 16.424-14.464 20.881-16.205 9.68-26.32 6.417-39.914 16.422z" fill="url(#paint0_linear_429_28578)"/><path d="M32.192 53.508c-12.725 9.366-15.226 23.057-15.226 34.476.58-3.407 3.24-11.397 9.244-16.096 8.918-6.979 25.232-4.68 43.068-16.53 17.836-11.853 19.576-27.3 17.292-39.154-1.586 11.439-7.002 16.424-14.464 20.881-16.205 9.68-26.32 6.417-39.914 16.422z" fill="url(#paint1_linear_429_28578)"/><path d="M17.118 83.303c.698-10.318 4.049-21.68 15.074-29.795 7.087-5.216 13.228-6.826 19.78-8.544 3.823-1.002 7.786-2.041 12.158-3.855-1.595 1.524-9.174 5.08-14.892 7.456-5.702 2.37-11.714 4.869-16.72 8.206-10.043 6.696-14.127 18.345-15.4 26.532z" fill="url(#paint2_linear_429_28578)"/><path d="M17.118 83.303c.698-10.318 4.049-21.68 15.074-29.795 7.087-5.216 13.228-6.826 19.78-8.544 3.823-1.002 7.786-2.041 12.158-3.855-1.595 1.524-9.174 5.08-14.892 7.456-5.702 2.37-11.714 4.869-16.72 8.206-10.043 6.696-14.127 18.345-15.4 26.532z" fill="url(#paint3_linear_429_28578)"/><path d="M79.015 46.888a22.607 22.607 0 01-4.19 3.249c-6.96 4.176-14.36 5.523-21.558 6.834-5.737 1.044-11.347 2.065-16.507 4.477-11.636 5.437-18.814 16.747-19.794 26.535v-.005c0-.747.01-1.503.034-2.268a42.58 42.58 0 01.393-3.991c1.536-8.05 5.714-18.674 15.125-24.948 3.984-2.656 8.606-4.78 13.201-6.732 4.041-1.327 7.684-2.153 11.154-2.94 5.463-1.238 10.499-2.38 15.994-5.227 11.53-5.975 14.552-18.254 13.74-25.476 1.724 9.151 1.027 20.407-7.592 30.492z" fill="url(#paint4_linear_429_28578)"/><path d="M79.016 46.888a22.616 22.616 0 01-4.19 3.25c-6.96 4.175-14.36 5.522-21.558 6.833-5.736 1.044-11.346 2.065-16.507 4.477-6.692 3.127-11.91 8.196-15.322 13.801 3.01-4.23 7.597-8.956 13.255-10.756 5.522-1.757 10.788-1.938 16.26-2.127 1.568-.054 3.153-.109 4.765-.201 4.346-1.582 8.901-3.712 13.56-6.808 4.016-2.668 7.215-5.518 9.737-8.469z" fill="url(#paint5_linear_429_28578)"/><path d="M79.016 46.888a22.616 22.616 0 01-4.19 3.25c-6.96 4.175-14.36 5.522-21.558 6.833-5.736 1.044-11.346 2.065-16.507 4.477-6.692 3.127-11.91 8.196-15.322 13.801 3.01-4.23 7.597-8.956 13.255-10.756 5.522-1.757 10.788-1.938 16.26-2.127 1.568-.054 3.153-.109 4.765-.201 4.346-1.582 8.901-3.712 13.56-6.808 4.016-2.668 7.215-5.518 9.737-8.469z" fill="url(#paint6_linear_429_28578)"/><path d="M86.613 16.396a53.769 53.769 0 00-.036-.191c-1.587 11.439-7.002 16.424-14.465 20.881a61.078 61.078 0 01-7.975 4.023c-1.596 1.524-9.175 5.08-14.892 7.456h-.001c-1.164.484-2.34.973-3.518 1.474 4.04-1.327 7.683-2.153 11.153-2.94 5.463-1.238 10.5-2.38 15.995-5.227 11.53-5.975 14.551-18.254 13.74-25.476z" fill="url(#paint7_linear_429_28578)"/><path d="M86.613 16.396a53.769 53.769 0 00-.036-.191c-1.587 11.439-7.002 16.424-14.465 20.881a61.078 61.078 0 01-7.975 4.023c-1.596 1.524-9.175 5.08-14.892 7.456h-.001c-1.164.484-2.34.973-3.518 1.474 4.04-1.327 7.683-2.153 11.153-2.94 5.463-1.238 10.5-2.38 15.995-5.227 11.53-5.975 14.551-18.254 13.74-25.476z" fill="url(#paint8_linear_429_28578)"/><defs><linearGradient id="paint0_linear_429_28578" x1="56.771" y1="59.381" x2="19.141" y2="86.353" gradientUnits="userSpaceOnUse"><stop stop-color="#FE5004"/><stop offset=".603" stop-color="#FFB915"/><stop offset="1" stop-color="#FFFC41"/></linearGradient><linearGradient id="paint1_linear_429_28578" x1="41.871" y1="61.665" x2="42.089" y2="65.581" gradientUnits="userSpaceOnUse"><stop stop-color="#FD3E00"/><stop offset="1" stop-color="#FD4400" stop-opacity="0"/></linearGradient><linearGradient id="paint2_linear_429_28578" x1="64.166" y1="39.153" x2="11.093" y2="86.353" gradientUnits="userSpaceOnUse"><stop stop-color="#005FC6"/><stop offset=".28" stop-color="#23A4DF"/><stop offset=".465" stop-color="#3AC2B7"/><stop offset=".641" stop-color="#60EC7A"/><stop offset=".819" stop-color="#CFFDBD"/><stop offset="1" stop-color="#D0FCB6"/></linearGradient><linearGradient id="paint3_linear_429_28578" x1="53.4" y1="48.179" x2="48.832" y2="44.047" gradientUnits="userSpaceOnUse"><stop stop-color="#0061CB"/><stop offset="1" stop-color="#067EEA" stop-opacity="0"/></linearGradient><linearGradient id="paint4_linear_429_28578" x1="86.788" y1="16.314" x2="16.966" y2="87.876" gradientUnits="userSpaceOnUse"><stop stop-color="#8E55F1"/><stop offset=".141" stop-color="#8B48DF"/><stop offset=".275" stop-color="#E04DD9"/><stop offset=".492" stop-color="#F496C8"/><stop offset=".633" stop-color="#FAD2BA"/><stop offset=".857" stop-color="#FEF7E5"/><stop offset="1" stop-color="#FFF5BF"/></linearGradient><linearGradient id="paint5_linear_429_28578" x1="79.937" y1="46.222" x2="22.948" y2="71.997" gradientUnits="userSpaceOnUse"><stop stop-color="#F41A73"/><stop offset=".4" stop-color="#FC50A3"/><stop offset=".585" stop-color="#FE9485"/><stop offset=".703" stop-color="#FFAF88"/><stop offset="1" stop-color="#FFC385"/></linearGradient><linearGradient id="paint6_linear_429_28578" x1="59.382" y1="54.161" x2="59.491" y2="59.381" gradientUnits="userSpaceOnUse"><stop stop-color="#9B0008"/><stop offset="1" stop-color="#EA115A" stop-opacity="0"/></linearGradient><linearGradient id="paint7_linear_429_28578" x1="86.794" y1="22.186" x2="35.352" y2="55.792" gradientUnits="userSpaceOnUse"><stop stop-color="#231283"/><stop offset=".363" stop-color="#7053C6"/><stop offset=".466" stop-color="#7272DB"/><stop offset=".634" stop-color="#399EE9"/><stop offset="1" stop-color="#00CFFF"/></linearGradient><linearGradient id="paint8_linear_429_28578" x1="73.961" y1="39.153" x2="76.245" y2="42.089" gradientUnits="userSpaceOnUse"><stop stop-color="#3F259D" stop-opacity="0"/><stop offset="1" stop-color="#412DAA"/></linearGradient></defs></svg>