<svg width="77" height="77" viewBox="0 0 77 77" fill="none" xmlns="http://www.w3.org/2000/svg">
<path fill-rule="evenodd" clip-rule="evenodd" d="M9.97487 5.02513C8.60804 3.65829 6.39196 3.65829 5.02513 5.02513C3.65829 6.39196 3.65829 8.60804 5.02513 9.97487L34.0489 38.9986L5.02513 68.0224C3.65829 69.3892 3.65829 71.6053 5.02513 72.9721C6.39196 74.339 8.60804 74.339 9.97487 72.9721L38.9986 43.9484L68.0224 72.9721C69.3892 74.339 71.6053 74.339 72.9721 72.9721C74.339 71.6053 74.339 69.3892 72.9721 68.0224L43.9484 38.9986L72.9721 9.97488C74.339 8.60805 74.339 6.39197 72.9721 5.02513C71.6053 3.6583 69.3892 3.6583 68.0224 5.02513L38.9986 34.0489L9.97487 5.02513Z" fill="#F93C00" fill-opacity="0.4"/>
</svg>
