<svg width="1280" height="603" viewBox="0 0 1280 603" fill="none" xmlns="http://www.w3.org/2000/svg">
<path d="M1154.29 39.5706C1153.58 38.3959 1153.03 37.1255 1152.27 35.9391C1149.96 32.368 1147.2 29.2385 1143.95 26.5388L1143.96 26.4952C1143.96 26.4952 1143.96 26.4952 1143.95 26.5388C1143.38 26.0573 1142.79 25.6194 1142.21 25.1815C1137.98 22.1246 1133.83 18.9485 1129.54 15.9672C1125 12.8281 1120.09 10.3841 1114.73 8.94054C1114.2 8.7997 1113.72 8.52794 1113.31 8.13698C1111.15 6.246 1109.05 4.32312 1106.9 2.3885C1104.92 0.730775 1102.57 0.0533807 1100.01 0.0189043C1096.75 -0.0170396 1093.61 0.683823 1090.43 1.37295C1090.29 1.38138 1090.14 1.57613 1090.11 1.70706C1089.91 2.26269 1089.54 2.4424 1088.98 2.4325C1088.6 2.42589 1088.23 2.41929 1087.92 2.52345C1087.66 2.63934 1087.43 2.95328 1087.36 3.21515C1087.33 3.34608 1087.67 3.62627 1087.88 3.7286C1088.56 4.14633 1089.32 4.44487 1089.95 4.89451C1090.22 5.10759 1090.35 5.51542 1090.54 5.8477C1090.23 5.95185 1089.92 6.05601 1089.63 6.07288C1088.15 6.18914 1086.59 6.09562 1085.16 6.36628C1083 6.72277 1080.92 7.33267 1078.77 7.87547C1074.76 8.85689 1070.78 10.08 1067.12 12.0432C1057.78 17.0193 1051.63 24.5843 1048.42 34.6242C1046.99 39.0608 1046.36 43.665 1046.51 48.2942C1046.55 48.8648 1046.68 49.4153 1046.87 49.9339C1047.22 50.8721 1047.42 51.8623 1047.12 52.8107C1046.73 54.1083 1046.2 55.3706 1045.64 56.5776C1045.05 57.9155 1044.45 59.2534 1044.53 60.7238C1044.61 62.6657 1044.83 64.6429 1045.11 66.5445C1045.39 68.4461 1046.14 70.1915 1047.84 71.3508C1048.15 71.5756 1048.51 71.8122 1048.84 71.9933C1048.97 72.0285 1049.1 72.0638 1049.19 72.0872C1049.81 71.32 1049.83 71.09 1049.32 70.2039C1049.13 69.8717 1048.85 69.5159 1048.71 69.1517C1048.61 68.8429 1048.62 68.4703 1048.62 68.0977C1048.6 67.9987 1048.8 67.772 1048.89 67.7955C1049.64 67.9514 1049.62 67.337 1049.74 66.9006C1049.85 66.5078 1049.93 66.2023 1050.46 66.2995C1050.59 66.3347 1050.85 66.0761 1050.9 65.9016C1051.12 64.886 1051.31 64.703 1052.4 64.4811C1052.42 63.8786 1052.76 63.6871 1053.35 63.7524C1053.71 63.8027 1054.04 63.7975 1054.2 63.3728C1054.23 63.2419 1054.47 63.2133 1054.63 63.1612C1055.15 62.9731 1055.66 62.7849 1056.18 62.5968C1057.84 62.0122 1059.5 61.5702 1061.31 61.9641C1061.44 61.9993 1061.65 61.9153 1061.77 61.8079C1062.14 61.4855 1062.49 61.5794 1062.78 61.8915C1063.25 62.3932 1063.71 62.6096 1064.2 62.1798C1064.82 62.4868 1065.39 62.782 1065.93 63.0655C1066.45 63.3926 1067.13 63.6241 1067.47 64.0906C1067.97 64.6913 1068.59 64.9983 1069.21 65.3053C1069.46 65.4193 1069.86 65.295 1070.1 65.2664C1069.58 63.7223 1069.12 62.3327 1068.65 60.9431C1068.02 58.9476 1067.11 57.1116 1065.76 55.5309C1064.5 54.1164 1063.12 52.8092 1061.78 51.5139C1060.04 49.8275 1058.24 48.1731 1056.51 46.4432C1056.14 46.0639 1055.91 45.5336 1055.77 45.0268C1055.24 43.1538 1055.27 41.2907 1055.64 39.4224C1056.04 37.5659 1056.56 35.8319 1058.05 34.4551C1059.98 32.6804 1062.11 31.1943 1064.76 30.737C1065.15 30.6563 1065.52 30.6629 1065.92 30.5822C1065.97 31.2519 1065.77 31.6649 1065.35 32.0191C1065.22 32.1266 1065.15 32.2458 1065.05 32.4086C1064.92 32.7461 1064.79 33.0398 1064.7 33.389C1064.63 33.6508 1064.51 33.901 1064.5 34.1309C1064.58 35.2286 1064.71 36.2944 1064.82 37.4475C1067.32 37.0422 1069.77 36.2526 1071.96 34.7346C1072.59 34.2963 1073.17 33.7036 1073.8 33.2654C1075.38 32.2847 1077.03 32.4017 1078.68 33.034C1081.01 33.9413 1083.12 35.4916 1085.77 35.5495C1085.73 35.8668 1085.75 36.1521 1085.69 36.3703C1085.41 37.9331 1084.64 39.224 1083.7 40.468C1083.55 40.6628 1083.5 40.881 1083.4 41.0438C1083.47 41.1546 1083.59 41.2335 1083.65 41.3442C1083.8 41.1495 1083.94 40.9547 1084.12 40.8154C1084.94 40.1941 1085.73 39.5174 1086.63 38.9633C1087.47 38.441 1088.4 37.9422 1089.34 37.5861C1089.81 37.3862 1090.44 37.5069 1090.96 37.4614C1090.91 39.4118 1090.84 41.2195 1090.78 43.0272C1091.23 42.542 1091.71 41.9695 1092.23 41.4524C1092.97 40.6214 1093.69 39.8339 1094.51 39.07C1094.71 38.8433 1095.15 38.7744 1095.46 38.8129C1098.21 39.2233 1100.94 39.6773 1103.72 40.0995C1104.75 40.2821 1105.79 40.4211 1106.96 40.5953C1106.47 41.2115 1106.05 41.7084 1105.64 42.2054C1104.84 43.2546 1104 44.2922 1103.23 45.3968C1102.85 45.9492 1102.71 46.6592 1102.04 47.0421C1102.04 47.0421 1102.06 47.1411 1102.07 47.2838C1102.33 47.2115 1102.57 47.1829 1102.78 47.0989C1103.85 46.5917 1104.86 45.9737 1105.95 45.5656C1107.31 45.0415 1108.77 44.6399 1110.2 44.1829C1110.36 44.1308 1110.51 44.0787 1110.63 44.1576C1111.22 44.4092 1111.66 44.1539 1112.13 43.8114C1112.42 43.6082 1112.78 43.4721 1113.18 43.3914C1114.02 43.1982 1114.89 43.1039 1115.77 42.966C1115.97 42.9257 1116.21 42.7108 1116.27 42.4925C1116.47 41.9369 1116.82 42.0308 1117.23 42.0491C1120.25 42.4863 1123.15 43.3599 1126.06 44.1899C1128.61 44.9696 1131.19 45.6184 1133.82 46.2789C1134.52 46.4667 1135.28 46.5789 1136.04 46.5485C1138.01 46.5177 1139.98 46.3442 1141.93 46.4007C1144.85 46.4854 1147.73 46.3721 1150.38 44.8842C1151.76 44.0865 1153.18 43.3442 1154.15 42.0128C1154.6 41.5276 1154.95 40.591 1154.29 39.5706Z" fill="#182B34"/>
<path d="M1029.84 206.997C1026.29 207.678 1022.32 207.224 1017.86 206.378C1011.94 211.635 1012.99 210.576 1004.6 208.296C997.383 209.464 998.485 217.214 973.49 217.509C972.413 219.482 993.282 221.976 992.683 224.324C992.068 226.734 998.408 252.746 1006.78 236.583C1007.03 240.583 1010.57 243.938 1011.24 247.851C1012.4 254.579 1017.98 241.661 1019.46 248.275C1020.35 252.26 1021.36 256.116 1022.56 259.97C1023.99 264.569 1024.6 269.48 1026.16 274.036C1029.84 284.821 1034.05 295.846 1041.05 303.962C1045.35 308.941 1050.97 311.569 1056.58 313.53L1057.11 313.714C1062.29 315.527 1067.45 317.331 1072.76 318.558C1079.74 320.173 1086.82 322.253 1093.96 322.592C1102.15 322.982 1110.42 322.885 1118.62 322.398C1138.85 321.196 1158.65 315.281 1178.08 308.273C1187.82 304.765 1197.28 301.203 1206.26 295.159C1212.49 290.962 1218.84 286.274 1224.22 280.51C1233.99 270.046 1242.29 257.755 1248.2 243.576C1251.74 235.099 1271.86 237.079 1270.4 227.7C1268.76 217.047 1270.27 220.05 1257.48 216.619C1242.17 216.8 1212.96 212.692 1195.41 199.944C1193.65 198.67 1191.6 198.112 1189.84 196.811C1187.98 195.429 1186.15 195.801 1184.07 196.393L1178.17 198.07C1176.54 198.532 1173.16 199.35 1171.92 197.707C1171.36 196.966 1170.03 196.663 1169.26 196.303C1168.4 195.902 1167.32 195.158 1166.33 195.374C1164.73 195.721 1163.11 196.306 1162.19 198.055C1159.95 202.326 1161.33 207.857 1157.97 211.215C1156.48 212.708 1153.35 210.531 1152.33 209.689C1150.54 208.214 1147.82 207.54 1146.3 205.7C1144.87 203.967 1143.22 202.53 1141.91 200.531C1141.25 199.534 1140.27 198.325 1139.44 197.489C1139.05 197.092 1138.89 196.106 1138.42 195.897C1138 195.71 1137.54 195.766 1137.13 195.551C1135.95 194.928 1133.38 196.182 1132.12 196.54C1130.24 197.074 1128.38 195.983 1126.66 195.319C1125.31 194.798 1123.39 192.295 1122.93 190.596C1122.66 189.601 1122.07 188.952 1121.88 187.866C1121.73 186.992 1121.27 185.507 1120.83 184.778C1119.76 182.986 1119.89 181.479 1117.68 182.108C1116.07 182.565 1114.97 183.231 1113.7 184.388C1112.57 185.421 1109.71 185.587 1108.51 184.715C1107 183.622 1105.26 182.206 1103.59 181.558C1102.42 181.104 1100.66 181.233 1099.61 180.47C1099.19 180.166 1097.57 178.182 1098.52 177.593C1098.62 177.527 1098.11 177.674 1097.87 177.481C1097.54 177.227 1097.31 176.831 1096.92 176.681C1095.75 176.229 1094.26 173.089 1094.02 171.721C1093.63 169.426 1093.15 167.258 1092.86 164.924C1092.36 160.969 1096 157.822 1097.5 154.971C1097.93 154.153 1099.06 152.966 1099.07 151.932C1099.08 150.725 1098.16 150.899 1097.6 150.467C1096.66 149.739 1095.53 147.933 1094.55 147.611C1092.82 147.046 1091.51 146.286 1090.31 144.618C1089.68 143.747 1089.09 143.152 1088.28 142.522C1087.43 141.863 1086.21 142.575 1085.27 142.841C1083.68 143.293 1081.56 145.021 1081.95 147.271C1082.08 148.024 1082.23 149.578 1082.85 149.946C1083.15 150.126 1084.16 151.665 1084.23 152.049C1084.58 154.124 1084.54 156.356 1083.2 157.964C1082.24 159.124 1080.8 161.125 1080.46 162.743C1080.08 164.522 1079.34 167.248 1079.57 169.056C1079.77 170.65 1079.81 174.392 1079.21 175.85C1078.53 177.538 1077.78 179.033 1076.52 180.179C1075.33 181.267 1073.57 181.455 1072.08 181.877C1070.95 182.198 1068.12 182.399 1067.4 183.484C1066.98 184.127 1066.36 184.352 1066.01 185.206C1065.67 186.043 1065.34 186.961 1064.93 187.752C1064.11 189.312 1063.26 191.93 1062.76 193.794C1062.26 195.611 1060.46 197.152 1059.22 198.284C1058.06 199.34 1056.4 199.588 1055.25 200.64C1054.21 201.587 1052.24 202.487 1050.96 202.848C1047.55 203.819 1044.36 205.916 1040.95 205.108C1039.2 204.692 1037.18 205.78 1035.4 206.052L1035.37 206.057C1034.63 206.168 1032.34 206.518 1029.84 206.997Z" fill="#182B34"/>
<path d="M1068.37 158.387C1068.94 158.225 1069.69 157.721 1070.27 157.556C1070.66 157.443 1071.57 156.685 1071.47 156.079C1071.37 155.513 1071.33 154.363 1070.95 154.003C1070.63 153.709 1070.48 153.233 1070.12 152.954C1069.8 152.703 1069.43 152.591 1069.1 152.4C1068.44 152.022 1067.46 151.932 1066.75 152.134C1065.62 152.455 1064.67 152.826 1063.92 153.925C1063.36 154.74 1063.29 156.961 1064.09 157.583C1064.86 158.182 1065.8 158.704 1066.75 158.731C1067.36 158.748 1067.8 158.551 1068.37 158.387Z" fill="#182B34"/>
<path d="M1060.67 154.652C1061.35 155.179 1062.16 154.674 1062.81 154.362C1063.04 154.253 1063.18 154.06 1063.37 153.884C1063.66 153.625 1064 153.075 1063.93 152.64C1063.76 151.689 1063.38 150.524 1062.4 150.802C1061.37 151.094 1060.37 151.898 1060.19 153.257C1060.13 153.741 1060.33 154.392 1060.67 154.652Z" fill="#182B34"/>
<path d="M1075.95 151.589C1076.21 153.103 1077.86 153.211 1078.91 152.77C1079.31 152.349 1079.69 151.729 1079.57 151.005C1079.4 150.046 1079.03 148.843 1078.03 149.126C1076.95 149.435 1075.65 149.828 1075.95 151.589Z" fill="#182B34"/>
<path d="M1063.66 163.681C1064.26 164.736 1065.33 164.274 1065.77 163.87C1066.27 163.499 1066.01 162.807 1065.83 162.324C1065.61 161.743 1064.91 161.744 1064.5 161.862C1063.89 162.036 1063.21 162.892 1063.66 163.681Z" fill="#182B34"/>
<path d="M1060.77 184.598C1061.09 185.554 1062.49 184.501 1062.97 184.227C1063.44 183.88 1063.11 182.644 1062.72 182.322C1062.36 182.024 1062.32 181.942 1061.89 182.065C1061.6 182.146 1061.35 182.255 1061.08 182.398C1060.3 182.809 1060.53 183.878 1060.77 184.598Z" fill="#182B34"/>
<path d="M1089.44 139.808C1089.8 141.862 1091.06 142.386 1092.09 140.978C1092.54 140.527 1092.87 139.565 1092.76 138.904C1092.61 138.07 1091.54 138.032 1090.92 138.076C1090.24 138.124 1089.27 138.808 1089.44 139.808Z" fill="#182B34"/>
<path d="M1092.81 136.847C1093.06 138.056 1094.33 139.085 1095.21 138.208C1095.67 137.743 1095.81 136.99 1095.98 136.733C1096.2 136.413 1096.28 136.091 1096.46 135.739C1096.77 135.144 1097.24 133.931 1097.8 133.635C1098.4 133.323 1099.6 132.382 1099.41 131.493C1099.21 130.554 1098.48 129.781 1097.68 130.008C1096.84 130.249 1096.41 131.235 1095.81 131.967C1095.54 132.299 1095.2 132.707 1094.84 132.896C1094.51 133.07 1093.94 133.244 1093.73 133.545C1093.59 133.751 1093.31 133.881 1093.19 134.111C1093.07 134.354 1092.97 134.668 1092.87 134.932C1092.61 135.627 1092.67 136.137 1092.81 136.847Z" fill="#182B34"/>
<path d="M1094.11 140.286C1094.69 139.183 1097.25 138.858 1097.55 140.419C1097.73 141.439 1097.35 142.056 1096.54 142.286C1095.88 142.473 1094.9 142.47 1094.29 142.087C1093.73 141.74 1093.83 140.824 1094.11 140.286Z" fill="#182B34"/>
<path d="M1104.46 143.247C1105.35 144.078 1106.93 143.458 1107.81 142.739C1108.55 142.189 1108.95 140.612 1108.28 139.818C1107.9 139.373 1107.3 139.092 1106.79 138.956C1106.24 138.809 1105.58 139.321 1105.07 139.469C1104.44 139.646 1103.93 140.479 1103.71 141.193C1103.63 141.464 1103.8 142.108 1103.87 142.376C1103.99 142.806 1104.17 142.984 1104.46 143.247Z" fill="#182B34"/>
<path d="M1111.16 144.103C1111.69 144.755 1112.44 144.448 1113.06 144.113C1113.55 143.973 1113.73 141.908 1113.63 141.332C1113.45 140.302 1113.42 139.019 1112.5 138.639C1111.94 138.408 1111.09 138.703 1110.78 139.327C1110.51 139.875 1110.36 141.129 1110.47 141.737C1110.59 142.482 1110.7 143.538 1111.16 144.103Z" fill="#182B34"/>
<path d="M1109.46 146.222C1109.67 147.428 1110.35 149.311 1111.59 148.283C1112.03 147.719 1112.1 147.005 1111.97 146.255C1111.86 145.609 1111.25 144.625 1110.63 144.803C1109.93 145.003 1109.28 145.166 1109.46 146.222Z" fill="#182B34"/>
<path d="M1117.02 163.413C1117.25 164.746 1118.68 164.349 1119.45 163.93C1119.83 163.55 1119.73 162.492 1119.54 162.078C1119.17 161.261 1118.83 161.341 1118.15 161.534C1117.21 161.801 1116.82 162.227 1117.02 163.413Z" fill="#182B34"/>
<path d="M1117.38 172.223C1117.86 171.669 1118.75 171.485 1119.28 171.881C1119.57 171.965 1119.74 172.942 1119.63 173.208C1119.39 173.79 1119.01 174.273 1118.54 174.585C1118.28 174.755 1118.09 175.061 1117.84 175.233C1117.65 175.359 1117.43 175.474 1117.27 175.662C1117.02 175.971 1116.89 176.341 1116.77 176.745C1116.48 177.677 1115.9 178.57 1115.1 178.8C1114.56 178.952 1113.63 179.358 1113.21 178.744C1112.91 178.322 1112.93 177.213 1113.17 176.778C1113.6 176.019 1114.22 175.613 1114.84 175.168C1115.56 174.657 1116.18 174.165 1116.7 173.355C1116.95 172.982 1117.09 172.561 1117.38 172.223Z" fill="#182B34"/>
<path d="M1083.78 128.026C1084.26 127.957 1084.63 127.704 1085.06 127.47C1085.84 126.887 1085.44 125.031 1084.92 124.498C1084.22 123.793 1083.31 123.754 1082.45 124.062C1082.15 124.173 1081.57 125.038 1081.57 125.45C1081.56 125.906 1081.57 126.471 1081.84 126.853C1082.1 127.215 1082.37 127.967 1082.87 127.895C1083.16 127.853 1083.47 128.071 1083.78 128.026Z" fill="#182B34"/>
<path d="M1043.6 134.197C1044.43 135.34 1043.77 137.026 1043.41 138.228C1043.07 138.571 1043.97 141.026 1044.19 141.404C1044.78 142.395 1044.85 143.968 1044.66 145.111C1044.55 145.763 1044.34 146.64 1043.73 146.813L1042.47 147.171C1041.9 147.333 1041.42 146.98 1040.97 146.616C1040.37 146.126 1040.4 145.379 1040.08 144.676C1039.87 144.214 1039.98 143.438 1039.71 143.038C1039.29 142.393 1038.68 141.795 1038.19 141.23C1037.37 140.307 1036.21 138.551 1036.77 137.135C1037.29 135.807 1038.52 135.089 1039.04 133.758C1039.28 133.15 1038.97 132.724 1038.73 132.214C1038.51 131.713 1038.38 130.667 1038.53 130.136C1039.17 127.844 1040.29 126.59 1042.23 125.985C1043.47 125.595 1044.69 125.141 1045.95 124.782C1046.82 124.534 1047.7 123.864 1048.35 123.087C1048.74 122.63 1049.05 122.221 1049.38 121.712C1049.72 121.184 1049.92 120.417 1050.32 119.956C1050.7 119.525 1050.99 118.77 1051.33 118.256C1051.77 117.601 1051.92 117.448 1052.61 117.251C1054.19 116.802 1055.75 116.682 1057.25 115.819C1058.2 115.274 1059.19 113.764 1057.99 112.797C1057.6 112.474 1056.96 112.116 1056.65 111.692C1056.36 111.29 1056.35 110.201 1056.4 109.7C1056.5 108.518 1056.23 105.81 1054.82 106.213C1054.05 106.43 1053.29 106.796 1052.52 106.545C1052.05 106.393 1052.16 105.581 1052.15 105.155C1052.12 103.822 1053.58 103.546 1054.14 102.637C1054.66 101.805 1053.87 99.97 1053.72 99.079C1053.46 97.6012 1054.15 97.1477 1055.24 96.8394C1056.11 96.5909 1057.43 96.3997 1058.28 96.8439C1058.9 97.175 1058.93 98.4549 1059.05 99.1455C1059.22 100.148 1059.28 101.154 1059.45 102.149C1059.57 102.848 1059.71 103.606 1060.38 103.765C1061.58 104.051 1062.82 105.452 1063.33 106.83C1064.06 108.779 1066.39 108.831 1066.78 111.087C1066.97 112.181 1066.87 113.067 1066.65 114.129C1066.42 115.199 1065.32 115.696 1064.59 116.049C1062.35 117.121 1060.09 118.153 1057.87 119.259C1056.71 119.838 1055.53 120.771 1054.53 121.692C1053.82 122.352 1052.97 123.286 1052.11 123.61C1051.73 123.755 1051.46 124.084 1051.05 124.199L1049.87 124.536C1049.21 124.722 1048.54 124.77 1047.87 124.959C1046.73 125.284 1046.61 127.568 1046.41 128.7C1046.09 130.532 1044.2 130.959 1043.48 132.425C1043.27 132.849 1043.34 133.838 1043.6 134.197Z" fill="#182B34"/>
<path d="M1053.44 131.33C1054.17 132.443 1054.91 131.777 1055.68 131.128C1056.36 130.618 1056.18 129.65 1055.72 128.946C1055.47 128.557 1055.27 128.219 1054.81 128.336C1054.44 128.432 1053.73 128.557 1053.47 128.944C1053.03 129.588 1052.98 130.642 1053.44 131.33Z" fill="#182B34"/>
<path d="M1064.52 126.156C1064.98 126.492 1065.73 125.678 1066.05 125.432C1066.64 124.997 1066.88 124.777 1067.31 124.143C1067.74 123.51 1068.7 123.669 1069.22 123.199L1069.22 123.198C1069.75 122.717 1070.14 122.359 1069.99 121.493C1069.86 120.742 1069.5 120.548 1068.91 120.716C1068.12 120.94 1067.5 121.696 1066.69 121.924C1065.99 122.125 1065.32 122.212 1064.61 122.517C1063.99 122.78 1063.91 123.961 1064.01 124.574C1064.08 124.966 1064.24 125.951 1064.52 126.156Z" fill="#182B34"/>
<path d="M1032.56 120.522C1032.09 121.808 1032.28 122.329 1033.13 122.495C1034.24 123.01 1035.16 120.538 1034.15 119.749C1033.62 119.34 1032.8 119.858 1032.56 120.522Z" fill="#182B34"/>
<path d="M1049 153.222C1049.68 153.27 1050.08 153.539 1050.74 153.352C1051.94 152.462 1051.35 151.409 1051.13 150.131C1050.99 149.282 1049.39 148.003 1048.7 148.011C1047.66 148.024 1046.03 148.698 1045.94 150.056C1045.89 150.874 1046.5 151.81 1047 152.245C1047.7 152.851 1048.09 153.158 1049 153.222Z" fill="#182B34"/>
<path d="M1110.29 122.645C1110.67 123.97 1111.92 123.954 1112.83 123.698L1112.84 123.684C1113.52 123.181 1114.06 122.782 1113.87 121.703C1113.76 121.084 1113.37 119.321 1112.7 119.329C1111.79 119.34 1110.67 119.849 1110.17 120.801C1109.93 121.277 1110.14 122.135 1110.29 122.645Z" fill="#182B34"/>
<path d="M1096.48 113.442C1096.68 114.907 1097.25 115.394 1098.42 115.059C1098.93 114.915 1099.89 114.682 1099.73 113.754C1099.62 113.134 1099.32 111.939 1098.65 111.947C1098.03 111.955 1096.33 112.344 1096.48 113.442Z" fill="#182B34"/>
<path d="M1089.91 120.033C1090.27 120.898 1090.52 121.039 1091.22 120.839C1091.91 120.643 1092.5 120.383 1092.73 119.479C1092.82 119.089 1092.46 117.631 1092.07 117.711C1091.46 117.841 1090.36 117.959 1089.93 118.584C1089.6 119.07 1089.69 119.512 1089.91 120.033Z" fill="#182B34"/>
<path d="M0 217H1280V603H0V217Z" fill="#182B34"/>
</svg>
