<svg width="375" height="769" viewBox="0 0 375 769" fill="none" xmlns="http://www.w3.org/2000/svg">
<rect y="175" width="375" height="594" fill="#182B34"/>
<path d="M296.056 38.6398C295.512 37.7423 295.094 36.7716 294.516 35.865C292.748 33.1365 290.64 30.7453 288.157 28.6826L288.166 28.6492C288.166 28.6492 288.166 28.6492 288.157 28.6826C287.72 28.3146 287.274 27.9801 286.828 27.6455C283.597 25.3098 280.426 22.883 277.143 20.6051C273.679 18.2066 269.929 16.3392 265.83 15.2363C265.43 15.1286 265.057 14.921 264.744 14.6223C263.096 13.1774 261.49 11.7082 259.85 10.23C258.333 8.96341 256.542 8.44584 254.584 8.41949C252.09 8.39203 249.694 8.92754 247.265 9.45408C247.156 9.46053 247.045 9.60932 247.018 9.70936C246.868 10.1339 246.581 10.2712 246.154 10.2636C245.869 10.2586 245.585 10.2536 245.349 10.3331C245.146 10.4217 244.975 10.6616 244.921 10.8616C244.894 10.9617 245.158 11.1758 245.315 11.254C245.837 11.5731 246.419 11.8012 246.898 12.1448C247.105 12.3076 247.2 12.6192 247.346 12.8731C247.11 12.9527 246.874 13.0323 246.656 13.0452C245.524 13.134 244.328 13.0625 243.236 13.2693C241.591 13.5417 240 14.0077 238.352 14.4225C235.291 15.1723 232.252 16.1069 229.454 17.6069C222.319 21.409 217.619 27.1892 215.162 34.8604C214.071 38.2502 213.589 41.7682 213.709 45.3052C213.735 45.7412 213.836 46.1618 213.98 46.5581C214.251 47.2749 214.405 48.0315 214.175 48.7562C213.872 49.7476 213.47 50.7121 213.043 51.6343C212.589 52.6566 212.135 53.6789 212.19 54.8023C212.256 56.2861 212.421 57.7968 212.637 59.2497C212.854 60.7027 213.424 62.0363 214.723 62.9221C214.962 63.0939 215.235 63.2746 215.484 63.413C215.584 63.4399 215.684 63.4668 215.751 63.4848C216.23 62.8985 216.242 62.7228 215.852 62.0458C215.706 61.7919 215.493 61.5201 215.389 61.2419C215.31 61.0059 215.315 60.7212 215.32 60.4365C215.305 60.3608 215.459 60.1876 215.525 60.2056C216.101 60.3247 216.084 59.8553 216.174 59.5218C216.255 59.2217 216.317 58.9883 216.726 59.0625C216.826 59.0894 217.022 58.8919 217.058 58.7585C217.231 57.9826 217.376 57.8427 218.208 57.6732C218.225 57.2128 218.478 57.0665 218.93 57.1164C219.205 57.1548 219.456 57.1509 219.579 56.8264C219.606 56.7263 219.791 56.7045 219.909 56.6647C220.305 56.5209 220.701 56.3772 221.097 56.2334C222.361 55.7867 223.631 55.449 225.015 55.75C225.115 55.7769 225.276 55.7127 225.369 55.6306C225.65 55.3843 225.916 55.4561 226.138 55.6945C226.5 56.0779 226.848 56.2432 227.222 55.9148C227.695 56.1493 228.135 56.3749 228.541 56.5915C228.939 56.8415 229.463 57.0183 229.724 57.3748C230.101 57.8338 230.574 58.0683 231.047 58.3029C231.238 58.39 231.55 58.295 231.734 58.2732C231.337 57.0934 230.979 56.0316 230.622 54.9699C230.139 53.4452 229.444 52.0424 228.411 50.8346C227.451 49.7538 226.397 48.755 225.377 47.7653C224.044 46.4768 222.669 45.2127 221.345 43.8909C221.065 43.6011 220.888 43.1959 220.778 42.8087C220.377 41.3776 220.403 39.954 220.68 38.5266C220.99 37.1081 221.382 35.7832 222.523 34.7312C223.996 33.3752 225.623 32.2397 227.647 31.8903C227.95 31.8286 228.234 31.8337 228.537 31.772C228.578 32.2837 228.422 32.5992 228.099 32.8699C228.005 32.952 227.945 33.0431 227.875 33.1675C227.77 33.4253 227.674 33.6498 227.602 33.9166C227.549 34.1167 227.461 34.3078 227.45 34.4835C227.51 35.3222 227.613 36.1365 227.697 37.0175C229.603 36.7079 231.481 36.1046 233.151 34.9447C233.634 34.6099 234.078 34.157 234.561 33.8221C235.763 33.0728 237.026 33.1622 238.29 33.6453C240.069 34.3386 241.68 35.5231 243.705 35.5674C243.675 35.8098 243.688 36.0278 243.643 36.1945C243.429 37.3886 242.842 38.375 242.122 39.3255C242.01 39.4743 241.965 39.641 241.896 39.7654C241.945 39.8501 242.036 39.9103 242.085 39.9949C242.196 39.8461 242.308 39.6973 242.444 39.5909C243.072 39.1162 243.675 38.5991 244.361 38.1757C245.005 37.7767 245.715 37.3956 246.431 37.1235C246.794 36.9708 247.269 37.063 247.672 37.0282C247.628 38.5184 247.578 39.8997 247.528 41.2809C247.878 40.9102 248.246 40.4727 248.638 40.0776C249.202 39.4426 249.757 38.841 250.379 38.2573C250.533 38.0841 250.869 38.0314 251.111 38.0608C253.206 38.3744 255.293 38.7213 257.422 39.0439C258.206 39.1834 259 39.2896 259.893 39.4227C259.516 39.8935 259.2 40.2732 258.883 40.6529C258.274 41.4546 257.632 42.2474 257.048 43.0914C256.755 43.5135 256.645 44.056 256.138 44.3485C256.138 44.3485 256.153 44.4242 256.159 44.5332C256.353 44.478 256.537 44.4561 256.698 44.392C257.517 44.0044 258.287 43.5322 259.122 43.2203C260.158 42.8199 261.277 42.5131 262.372 42.1639C262.49 42.1241 262.608 42.0843 262.699 42.1446C263.147 42.3368 263.486 42.1418 263.842 41.88C264.063 41.7248 264.341 41.6208 264.643 41.5592C265.291 41.4115 265.953 41.3395 266.625 41.2341C266.776 41.2033 266.963 41.0391 267.008 40.8723C267.158 40.4478 267.425 40.5195 267.743 40.5336C270.047 40.8676 272.262 41.5351 274.486 42.1692C276.434 42.765 278.409 43.2607 280.418 43.7654C280.951 43.9089 281.535 43.9946 282.113 43.9714C283.621 43.9478 285.122 43.8153 286.611 43.8584C288.845 43.9232 291.048 43.8366 293.07 42.6997C294.127 42.0902 295.209 41.523 295.947 40.5058C296.297 40.1351 296.561 39.4194 296.056 38.6398Z" fill="#182B34"/>
<path d="M200.969 166.565C198.255 167.086 195.222 166.739 191.813 166.093C187.295 170.109 188.096 169.3 181.683 167.558C176.17 168.451 177.012 174.372 157.914 174.598C157.091 176.105 173.036 178.01 172.579 179.804C172.109 181.646 176.953 201.521 183.353 189.171C183.545 192.227 186.245 194.791 186.759 197.78C187.642 202.921 191.909 193.051 193.04 198.105C193.721 201.15 194.49 204.096 195.405 207.04C196.496 210.555 196.966 214.307 198.155 217.788C200.971 226.029 204.184 234.452 209.537 240.654C212.82 244.458 217.116 246.466 221.402 247.964L221.804 248.105C225.763 249.49 229.705 250.868 233.761 251.806C239.1 253.04 244.507 254.629 249.963 254.888C256.222 255.186 262.536 255.112 268.804 254.74C284.263 253.821 299.386 249.302 314.239 243.948C321.675 241.267 328.905 238.546 335.765 233.927C340.528 230.721 345.38 227.139 349.489 222.735C356.951 214.739 363.296 205.348 367.814 194.515C370.516 188.037 385.886 189.55 384.777 182.384C383.518 174.245 384.675 176.539 374.899 173.917C363.203 174.055 340.886 170.917 327.473 161.177C326.132 160.203 324.565 159.777 323.224 158.783C321.799 157.726 320.404 158.011 318.811 158.463L314.303 159.744C313.06 160.097 310.475 160.722 309.526 159.468C309.098 158.901 308.088 158.67 307.497 158.395C306.839 158.088 306.014 157.52 305.258 157.684C304.037 157.95 302.795 158.397 302.095 159.733C300.383 162.996 301.435 167.223 298.871 169.788C297.73 170.929 295.339 169.265 294.56 168.622C293.196 167.495 291.112 166.981 289.951 165.574C288.859 164.25 287.603 163.153 286.599 161.625C286.098 160.863 285.344 159.94 284.714 159.301C284.414 158.997 284.293 158.244 283.935 158.084C283.614 157.941 283.261 157.984 282.949 157.82C282.041 157.344 280.082 158.302 279.118 158.576C277.684 158.983 276.257 158.15 274.946 157.643C273.917 157.245 272.448 155.332 272.098 154.034C271.893 153.274 271.436 152.778 271.294 151.948C271.179 151.28 270.825 150.145 270.492 149.588C269.675 148.219 269.776 147.068 268.087 147.548C266.859 147.897 266.012 148.407 265.044 149.291C264.178 150.08 261.993 150.207 261.076 149.541C259.925 148.705 258.598 147.623 257.319 147.128C256.423 146.781 255.081 146.88 254.279 146.297C253.958 146.064 252.72 144.549 253.443 144.099C253.524 144.048 253.135 144.16 252.946 144.013C252.696 143.819 252.519 143.517 252.222 143.402C251.33 143.057 250.19 140.657 250.011 139.612C249.709 137.859 249.341 136.202 249.118 134.419C248.741 131.397 251.522 128.992 252.664 126.814C252.992 126.189 253.855 125.282 253.862 124.492C253.871 123.569 253.167 123.703 252.741 123.373C252.023 122.816 251.163 121.436 250.41 121.191C249.088 120.759 248.086 120.178 247.17 118.904C246.691 118.238 246.241 117.783 245.62 117.302C244.97 116.798 244.038 117.343 243.322 117.546C242.107 117.891 240.489 119.211 240.784 120.93C240.883 121.506 240.996 122.693 241.47 122.975C241.701 123.112 242.475 124.288 242.526 124.581C242.798 126.167 242.761 127.872 241.742 129.101C241.007 129.987 239.909 131.516 239.646 132.753C239.357 134.112 238.793 136.195 238.965 137.576C239.117 138.793 239.147 141.653 238.693 142.767C238.169 144.056 237.597 145.199 236.637 146.075C235.727 146.906 234.379 147.05 233.245 147.372C232.38 147.617 230.215 147.771 229.668 148.6C229.344 149.091 228.872 149.263 228.607 149.915C228.346 150.555 228.094 151.257 227.778 151.861C227.152 153.053 226.508 155.053 226.12 156.477C225.742 157.866 224.365 159.043 223.416 159.908C222.532 160.715 221.265 160.904 220.383 161.708C219.59 162.432 218.081 163.119 217.108 163.396C214.497 164.137 212.064 165.739 209.46 165.122C208.119 164.804 206.58 165.636 205.215 165.844L205.194 165.847C204.632 165.932 202.877 166.199 200.969 166.565Z" fill="#182B34"/>
<path d="M230.412 129.424C230.846 129.3 231.414 128.915 231.858 128.789C232.162 128.702 232.855 128.123 232.776 127.66C232.702 127.228 232.674 126.349 232.38 126.074C232.14 125.85 232.023 125.486 231.748 125.273C231.501 125.081 231.22 124.995 230.965 124.849C230.462 124.561 229.714 124.492 229.17 124.646C228.309 124.891 227.586 125.175 227.01 126.015C226.584 126.637 226.525 128.334 227.137 128.809C227.728 129.267 228.449 129.666 229.172 129.686C229.637 129.7 229.97 129.549 230.412 129.424Z" fill="#182B34"/>
<path d="M224.526 126.57C225.045 126.973 225.662 126.587 226.163 126.348C226.337 126.265 226.443 126.118 226.59 125.984C226.807 125.786 227.07 125.365 227.013 125.033C226.888 124.306 226.595 123.416 225.846 123.629C225.062 123.851 224.297 124.465 224.161 125.504C224.112 125.874 224.27 126.371 224.526 126.57Z" fill="#182B34"/>
<path d="M236.2 124.23C236.399 125.387 237.659 125.469 238.463 125.132C238.765 124.81 239.06 124.337 238.965 123.784C238.839 123.051 238.552 122.132 237.791 122.348C236.961 122.584 235.969 122.884 236.2 124.23Z" fill="#182B34"/>
<path d="M226.809 133.469C227.27 134.275 228.084 133.922 228.426 133.614C228.807 133.33 228.604 132.801 228.466 132.432C228.301 131.988 227.767 131.989 227.452 132.079C226.984 132.212 226.464 132.866 226.809 133.469Z" fill="#182B34"/>
<path d="M224.605 149.451C224.849 150.181 225.92 149.377 226.282 149.168C226.639 148.902 226.392 147.958 226.093 147.712C225.818 147.484 225.787 147.421 225.456 147.515C225.236 147.578 225.048 147.661 224.841 147.77C224.244 148.084 224.42 148.901 224.605 149.451Z" fill="#182B34"/>
<path d="M246.511 115.228C246.781 116.798 247.748 117.198 248.531 116.122C248.875 115.778 249.13 115.043 249.043 114.538C248.934 113.9 248.111 113.872 247.642 113.905C247.118 113.941 246.38 114.464 246.511 115.228Z" fill="#182B34"/>
<path d="M249.086 112.966C249.275 113.89 250.244 114.676 250.914 114.006C251.269 113.65 251.372 113.075 251.505 112.879C251.67 112.634 251.733 112.388 251.874 112.119C252.112 111.665 252.468 110.738 252.898 110.511C253.351 110.273 254.274 109.554 254.127 108.875C253.97 108.158 253.417 107.567 252.806 107.74C252.159 107.924 251.832 108.678 251.375 109.237C251.169 109.49 250.907 109.803 250.633 109.947C250.382 110.08 249.944 110.213 249.788 110.443C249.682 110.6 249.467 110.699 249.375 110.875C249.278 111.061 249.205 111.301 249.13 111.502C248.932 112.033 248.976 112.423 249.086 112.966Z" fill="#182B34"/>
<path d="M250.08 115.594C250.522 114.75 252.475 114.502 252.705 115.695C252.839 116.475 252.552 116.946 251.934 117.121C251.43 117.265 250.677 117.262 250.21 116.97C249.785 116.704 249.864 116.004 250.08 115.594Z" fill="#182B34"/>
<path d="M257.982 117.856C258.665 118.491 259.87 118.017 260.544 117.468C261.109 117.047 261.416 115.843 260.901 115.236C260.613 114.896 260.152 114.681 259.766 114.577C259.347 114.465 258.844 114.856 258.447 114.969C257.969 115.104 257.576 115.741 257.411 116.286C257.348 116.493 257.48 116.985 257.535 117.19C257.624 117.519 257.766 117.655 257.982 117.856Z" fill="#182B34"/>
<path d="M263.104 118.51C263.509 119.008 264.083 118.774 264.553 118.517C264.929 118.411 265.066 116.833 264.991 116.393C264.855 115.606 264.83 114.626 264.129 114.335C263.702 114.158 263.048 114.384 262.813 114.86C262.606 115.279 262.494 116.238 262.574 116.702C262.671 117.271 262.753 118.078 263.104 118.51Z" fill="#182B34"/>
<path d="M261.804 120.129C261.962 121.051 262.486 122.489 263.433 121.704C263.77 121.273 263.821 120.727 263.723 120.154C263.638 119.66 263.175 118.909 262.698 119.045C262.16 119.197 261.665 119.322 261.804 120.129Z" fill="#182B34"/>
<path d="M267.581 133.264C267.756 134.283 268.852 133.979 269.44 133.659C269.73 133.369 269.65 132.56 269.505 132.244C269.221 131.62 268.963 131.681 268.443 131.829C267.725 132.033 267.425 132.358 267.581 133.264Z" fill="#182B34"/>
<path d="M267.859 139.995C268.223 139.572 268.907 139.432 269.31 139.734C269.527 139.798 269.662 140.545 269.577 140.748C269.392 141.193 269.099 141.562 268.739 141.8C268.543 141.93 268.402 142.164 268.207 142.295C268.064 142.392 267.892 142.48 267.776 142.623C267.585 142.86 267.481 143.142 267.386 143.451C267.167 144.163 266.729 144.845 266.112 145.021C265.703 145.137 264.991 145.447 264.667 144.978C264.444 144.655 264.458 143.808 264.642 143.476C264.964 142.896 265.44 142.586 265.917 142.246C266.465 141.855 266.937 141.48 267.339 140.86C267.524 140.575 267.637 140.254 267.859 139.995Z" fill="#182B34"/>
<path d="M242.185 106.226C242.547 106.173 242.834 105.98 243.162 105.801C243.76 105.356 243.455 103.937 243.053 103.53C242.521 102.992 241.822 102.962 241.17 103.197C240.934 103.282 240.494 103.943 240.491 104.258C240.488 104.606 240.493 105.038 240.703 105.33C240.902 105.607 241.108 106.181 241.488 106.126C241.708 106.094 241.946 106.26 242.185 106.226Z" fill="#182B34"/>
<path d="M211.485 110.941C212.114 111.815 211.613 113.102 211.337 114.021C211.075 114.283 211.762 116.159 211.935 116.448C212.387 117.205 212.438 118.407 212.291 119.28C212.207 119.778 212.045 120.449 211.58 120.581L210.618 120.854C210.181 120.978 209.82 120.708 209.475 120.43C209.012 120.056 209.041 119.485 208.794 118.948C208.631 118.594 208.715 118.002 208.513 117.696C208.189 117.203 207.727 116.747 207.347 116.315C206.727 115.61 205.837 114.268 206.262 113.186C206.661 112.171 207.598 111.623 207.998 110.606C208.181 110.141 207.943 109.816 207.765 109.426C207.59 109.043 207.494 108.244 207.608 107.838C208.098 106.087 208.958 105.129 210.432 104.667C211.384 104.368 212.314 104.021 213.277 103.748C213.946 103.558 214.615 103.046 215.114 102.453C215.407 102.103 215.646 101.791 215.897 101.401C216.157 100.998 216.313 100.412 216.621 100.06C216.909 99.7308 217.129 99.1534 217.392 98.7609C217.728 98.2608 217.837 98.1435 218.365 97.9934C219.572 97.6503 220.766 97.5581 221.913 96.8993C222.638 96.4828 223.392 95.3285 222.48 94.5899C222.176 94.3434 221.69 94.0694 221.457 93.7454C221.236 93.4383 221.228 92.6066 221.26 92.2237C221.337 91.3204 221.137 89.2514 220.054 89.559C219.47 89.7251 218.887 90.0046 218.295 89.8134C217.936 89.6971 218.024 89.0765 218.017 88.7507C217.995 87.7326 219.112 87.5216 219.539 86.8267C219.931 86.191 219.33 84.7892 219.213 84.1084C219.019 82.9793 219.546 82.6327 220.375 82.3972C221.043 82.2074 222.053 82.0613 222.696 82.4007C223.175 82.6536 223.199 83.6315 223.289 84.1593C223.421 84.9249 223.463 85.6941 223.593 86.4543C223.685 86.988 223.79 87.5674 224.303 87.689C225.223 87.9071 226.165 88.9779 226.558 90.031C227.113 91.5201 228.9 91.5595 229.196 93.2832C229.34 94.119 229.266 94.7962 229.093 95.6079C228.92 96.4251 228.08 96.8049 227.517 97.0745C225.809 97.8935 224.081 98.6824 222.385 99.5272C221.496 99.9699 220.601 100.682 219.837 101.387C219.29 101.89 218.641 102.605 217.985 102.852C217.692 102.963 217.488 103.214 217.178 103.302L216.273 103.559C215.773 103.701 215.255 103.738 214.747 103.883C213.874 104.131 213.785 105.876 213.631 106.741C213.382 108.141 211.94 108.467 211.388 109.587C211.229 109.911 211.288 110.666 211.485 110.941Z" fill="#182B34"/>
<path d="M218.998 108.751C219.557 109.601 220.127 109.092 220.709 108.596C221.233 108.206 221.098 107.467 220.744 106.929C220.549 106.632 220.403 106.374 220.051 106.463C219.763 106.536 219.222 106.631 219.021 106.927C218.688 107.42 218.653 108.225 218.998 108.751Z" fill="#182B34"/>
<path d="M227.469 104.797C227.822 105.054 228.389 104.432 228.639 104.244C229.086 103.911 229.271 103.743 229.6 103.259C229.927 102.775 230.664 102.897 231.057 102.538L231.058 102.537C231.461 102.169 231.761 101.896 231.647 101.235C231.548 100.66 231.272 100.513 230.822 100.641C230.22 100.812 229.741 101.39 229.128 101.564C228.589 101.717 228.075 101.784 227.533 102.017C227.066 102.218 227 103.12 227.08 103.588C227.132 103.888 227.253 104.641 227.469 104.797Z" fill="#182B34"/>
<path d="M203.046 100.493C202.689 101.475 202.832 101.873 203.486 102C204.332 102.394 205.038 100.505 204.261 99.902C203.858 99.5895 203.231 99.9851 203.046 100.493Z" fill="#182B34"/>
<path d="M215.607 125.477C216.128 125.514 216.433 125.72 216.938 125.576C217.852 124.897 217.406 124.093 217.239 123.116C217.127 122.467 215.908 121.49 215.378 121.496C214.583 121.506 213.34 122.021 213.272 123.059C213.23 123.683 213.7 124.399 214.081 124.731C214.613 125.194 214.917 125.429 215.607 125.477Z" fill="#182B34"/>
<path d="M262.439 102.114C262.733 103.127 263.687 103.114 264.376 102.919L264.39 102.908C264.907 102.524 265.317 102.219 265.175 101.395C265.094 100.922 264.789 99.575 264.28 99.5811C263.582 99.5894 262.732 99.9782 262.351 100.706C262.16 101.069 262.327 101.725 262.439 102.114Z" fill="#182B34"/>
<path d="M251.887 95.0827C252.043 96.2019 252.472 96.5738 253.373 96.3178C253.759 96.208 254.491 96.0299 254.369 95.3214C254.287 94.8476 254.061 93.9345 253.548 93.9407C253.075 93.9463 251.77 94.2436 251.887 95.0827Z" fill="#182B34"/>
<path d="M246.869 100.119C247.145 100.78 247.333 100.887 247.871 100.735C248.399 100.585 248.845 100.386 249.018 99.6952C249.093 99.3978 248.813 98.2838 248.521 98.345C248.049 98.444 247.208 98.5344 246.885 99.0117C246.633 99.3827 246.702 99.7205 246.869 100.119Z" fill="#182B34"/>
</svg>
