<svg width="1750" height="615" viewBox="0 0 1750 615" fill="none" xmlns="http://www.w3.org/2000/svg">
<path d="M1266.29 51.0427C1265.57 49.868 1265.03 48.5975 1264.27 47.4111C1261.96 43.84 1259.2 40.7105 1255.95 38.0109L1255.96 37.9672C1255.96 37.9672 1255.96 37.9672 1255.95 38.0109C1255.38 37.5293 1254.79 37.0914 1254.21 36.6535C1249.98 33.5966 1245.83 30.4205 1241.53 27.4392C1237 24.3002 1232.09 21.8561 1226.73 20.4126C1226.2 20.2717 1225.72 20 1225.31 19.609C1223.15 17.718 1221.05 15.7952 1218.9 13.8605C1216.92 12.2028 1214.57 11.5254 1212.01 11.4909C1208.74 11.455 1205.61 12.1559 1202.43 12.845C1202.29 12.8534 1202.14 13.0482 1202.11 13.1791C1201.91 13.7347 1201.53 13.9144 1200.98 13.9045C1200.6 13.8979 1200.23 13.8913 1199.92 13.9955C1199.66 14.1114 1199.43 14.4253 1199.36 14.6872C1199.33 14.8181 1199.67 15.0983 1199.88 15.2006C1200.56 15.6184 1201.32 15.9169 1201.95 16.3665C1202.22 16.5796 1202.34 16.9875 1202.54 17.3197C1202.23 17.4239 1201.92 17.5281 1201.63 17.5449C1200.15 17.6612 1198.59 17.5677 1197.16 17.8383C1195 18.1948 1192.92 18.8047 1190.76 19.3475C1186.76 20.3289 1182.78 21.552 1179.12 23.5153C1169.78 28.4914 1163.63 36.0564 1160.41 46.0962C1158.99 50.5328 1158.36 55.137 1158.51 59.7662C1158.55 60.3369 1158.68 60.8874 1158.87 61.4059C1159.22 62.3441 1159.42 63.3343 1159.12 64.2827C1158.73 65.5803 1158.2 66.8427 1157.64 68.0497C1157.05 69.3876 1156.45 70.7255 1156.53 72.1958C1156.61 74.1378 1156.83 76.1149 1157.11 78.0165C1157.39 79.9181 1158.14 81.6635 1159.84 82.8228C1160.15 83.0476 1160.51 83.2842 1160.84 83.4654C1160.97 83.5006 1161.1 83.5358 1161.19 83.5593C1161.81 82.792 1161.83 82.5621 1161.32 81.676C1161.13 81.3437 1160.85 80.988 1160.71 80.6238C1160.61 80.315 1160.62 79.9423 1160.62 79.5697C1160.6 79.4707 1160.8 79.2441 1160.89 79.2675C1161.64 79.4234 1161.62 78.8091 1161.74 78.3727C1161.84 77.9799 1161.93 77.6744 1162.46 77.7715C1162.59 77.8068 1162.85 77.5482 1162.9 77.3736C1163.12 76.3581 1163.31 76.1751 1164.4 75.9532C1164.42 75.3506 1164.76 75.1592 1165.35 75.2244C1165.71 75.2747 1166.04 75.2696 1166.2 74.8449C1166.23 74.7139 1166.47 74.6853 1166.63 74.6332C1167.15 74.4451 1167.66 74.257 1168.18 74.0688C1169.84 73.4842 1171.5 73.0423 1173.31 73.4362C1173.44 73.4714 1173.65 73.3874 1173.77 73.2799C1174.14 72.9576 1174.49 73.0514 1174.78 73.3636C1175.25 73.8653 1175.71 74.0817 1176.2 73.6518C1176.82 73.9588 1177.39 74.254 1177.93 74.5375C1178.45 74.8647 1179.13 75.0961 1179.47 75.5626C1179.97 76.1633 1180.59 76.4703 1181.2 76.7773C1181.45 76.8914 1181.86 76.767 1182.1 76.7384C1181.58 75.1944 1181.12 73.8048 1180.65 72.4151C1180.02 70.4196 1179.11 68.5837 1177.75 67.003C1176.5 65.5884 1175.12 64.2813 1173.78 62.9859C1172.04 61.2996 1170.24 59.6452 1168.51 57.9152C1168.14 57.536 1167.91 57.0057 1167.77 56.4988C1167.24 54.6258 1167.27 52.7627 1167.64 50.8945C1168.04 49.0379 1168.56 47.3039 1170.05 45.9272C1171.98 44.1524 1174.11 42.6664 1176.76 42.209C1177.15 42.1283 1177.52 42.1349 1177.92 42.0543C1177.97 42.7239 1177.77 43.1369 1177.35 43.4912C1177.22 43.5986 1177.14 43.7178 1177.05 43.8807C1176.92 44.2181 1176.79 44.5119 1176.7 44.861C1176.63 45.1229 1176.51 45.373 1176.5 45.6029C1176.58 46.7006 1176.71 47.7664 1176.82 48.9195C1179.32 48.5142 1181.77 47.7246 1183.96 46.2066C1184.59 45.7684 1185.17 45.1757 1185.8 44.7374C1187.38 43.7567 1189.03 43.8737 1190.68 44.506C1193.01 45.4133 1195.12 46.9636 1197.77 47.0216C1197.73 47.3388 1197.75 47.6241 1197.69 47.8424C1197.41 49.4051 1196.64 50.6961 1195.7 51.9401C1195.55 52.1348 1195.49 52.353 1195.4 52.5159C1195.47 52.6266 1195.59 52.7055 1195.65 52.8163C1195.8 52.6215 1195.94 52.4268 1196.12 52.2874C1196.94 51.6661 1197.73 50.9895 1198.63 50.4353C1199.47 49.913 1200.4 49.4143 1201.34 49.0581C1201.81 48.8583 1202.44 48.9789 1202.96 48.9334C1202.91 50.8838 1202.84 52.6916 1202.78 54.4993C1203.23 54.0141 1203.71 53.4416 1204.23 52.9245C1204.97 52.0934 1205.69 51.306 1206.51 50.542C1206.71 50.3154 1207.15 50.2464 1207.46 50.2849C1210.21 50.6953 1212.94 51.1494 1215.72 51.5715C1216.75 51.7542 1217.79 51.8932 1218.96 52.0674C1218.46 52.6835 1218.05 53.1805 1217.64 53.6774C1216.84 54.7267 1216 55.7642 1215.23 56.8689C1214.85 57.4212 1214.71 58.1312 1214.04 58.5141C1214.04 58.5141 1214.06 58.6132 1214.07 58.7558C1214.32 58.6836 1214.57 58.655 1214.78 58.571C1215.85 58.0638 1216.86 57.4458 1217.95 57.0376C1219.31 56.5135 1220.77 56.1119 1222.2 55.6549C1222.36 55.6029 1222.51 55.5508 1222.63 55.6296C1223.22 55.8812 1223.66 55.626 1224.13 55.2834C1224.41 55.0802 1224.78 54.9442 1225.17 54.8635C1226.02 54.6702 1226.89 54.576 1227.77 54.4381C1227.97 54.3977 1228.21 54.1828 1228.27 53.9646C1228.47 53.4089 1228.82 53.5028 1229.23 53.5212C1232.25 53.9583 1235.15 54.832 1238.06 55.6619C1240.61 56.4416 1243.19 57.0904 1245.82 57.7509C1246.52 57.9387 1247.28 58.0509 1248.04 58.0205C1250.01 57.9897 1251.98 57.8162 1253.93 57.8727C1256.85 57.9574 1259.73 57.8441 1262.38 56.3562C1263.76 55.5585 1265.18 54.8162 1266.14 53.4849C1266.6 52.9997 1266.95 52.063 1266.29 51.0427Z" fill="#182B34"/>
<path d="M1141.84 218.469C1138.29 219.15 1134.32 218.696 1129.86 217.85C1123.94 223.108 1124.99 222.048 1116.6 219.768C1109.38 220.937 1110.48 228.687 1085.49 228.982C1084.41 230.955 1105.28 233.448 1104.68 235.796C1104.07 238.206 1110.41 264.218 1118.78 248.055C1119.03 252.055 1122.57 255.41 1123.24 259.323C1124.4 266.051 1129.98 253.133 1131.46 259.747C1132.35 263.732 1133.36 267.589 1134.56 271.442C1135.99 276.041 1136.6 280.953 1138.16 285.509C1141.84 296.294 1146.05 307.318 1153.05 315.435C1157.35 320.413 1162.97 323.041 1168.58 325.003L1169.11 325.187C1174.29 326.999 1179.45 328.804 1184.76 330.03C1191.74 331.645 1198.82 333.725 1205.96 334.065C1214.15 334.454 1222.42 334.357 1230.62 333.87C1250.85 332.668 1270.64 326.754 1290.08 319.746C1299.82 316.237 1309.28 312.676 1318.26 306.631C1324.49 302.435 1330.84 297.746 1336.22 291.983C1345.99 281.518 1354.29 269.227 1360.2 255.049C1363.74 246.571 1383.86 248.552 1382.4 239.173C1380.76 228.52 1382.27 231.522 1369.47 228.091C1354.17 228.272 1324.96 224.164 1307.4 211.417C1305.65 210.143 1303.6 209.585 1301.84 208.284C1299.98 206.901 1298.15 207.273 1296.07 207.865L1290.17 209.542C1288.54 210.004 1285.16 210.822 1283.92 209.18C1283.36 208.439 1282.03 208.136 1281.26 207.776C1280.4 207.375 1279.32 206.631 1278.33 206.846C1276.73 207.193 1275.11 207.778 1274.19 209.527C1271.95 213.798 1273.33 219.33 1269.97 222.687C1268.48 224.18 1265.35 222.003 1264.33 221.161C1262.54 219.686 1259.82 219.013 1258.3 217.172C1256.87 215.439 1255.22 214.003 1253.91 212.003C1253.25 211.006 1252.27 209.798 1251.44 208.961C1251.05 208.564 1250.89 207.578 1250.42 207.37C1250 207.182 1249.54 207.238 1249.13 207.024C1247.95 206.4 1245.38 207.654 1244.12 208.013C1242.24 208.546 1240.37 207.456 1238.66 206.792C1237.31 206.27 1235.39 203.767 1234.93 202.069C1234.66 201.074 1234.07 200.424 1233.88 199.338C1233.73 198.465 1233.27 196.979 1232.83 196.25C1231.76 194.458 1231.89 192.952 1229.68 193.58C1228.07 194.037 1226.97 194.703 1225.7 195.86C1224.57 196.894 1221.71 197.059 1220.51 196.187C1219 195.094 1217.26 193.678 1215.59 193.03C1214.42 192.576 1212.66 192.705 1211.61 191.943C1211.19 191.638 1209.57 189.654 1210.52 189.065C1210.62 189 1210.11 189.146 1209.87 188.953C1209.54 188.7 1209.31 188.304 1208.92 188.153C1207.75 187.701 1206.26 184.561 1206.02 183.193C1205.63 180.899 1205.15 178.73 1204.86 176.396C1204.36 172.441 1208 169.294 1209.5 166.444C1209.93 165.625 1211.05 164.438 1211.06 163.404C1211.08 162.197 1210.15 162.372 1209.6 161.94C1208.66 161.211 1207.53 159.405 1206.55 159.084C1204.82 158.518 1203.51 157.758 1202.31 156.091C1201.68 155.22 1201.09 154.624 1200.28 153.994C1199.43 153.335 1198.21 154.048 1197.27 154.314C1195.68 154.766 1193.56 156.493 1193.95 158.743C1194.08 159.497 1194.23 161.051 1194.85 161.419C1195.15 161.599 1196.16 163.138 1196.23 163.521C1196.58 165.596 1196.54 167.828 1195.2 169.436C1194.24 170.597 1192.8 172.597 1192.46 174.216C1192.08 175.995 1191.34 178.721 1191.57 180.529C1191.77 182.122 1191.81 185.864 1191.21 187.323C1190.53 189.01 1189.78 190.506 1188.52 191.652C1187.33 192.739 1185.56 192.927 1184.08 193.349C1182.95 193.671 1180.12 193.871 1179.4 194.956C1178.98 195.6 1178.36 195.825 1178.01 196.678C1177.67 197.516 1177.34 198.433 1176.93 199.224C1176.11 200.785 1175.26 203.402 1174.76 205.266C1174.26 207.084 1172.46 208.624 1171.22 209.757C1170.06 210.813 1168.4 211.06 1167.25 212.113C1166.21 213.059 1164.23 213.959 1162.96 214.321C1159.54 215.292 1156.36 217.388 1152.95 216.58C1151.2 216.165 1149.18 217.253 1147.4 217.525L1147.37 217.529C1146.63 217.641 1144.34 217.99 1141.84 218.469Z" fill="#182B34"/>
<path d="M1180.37 169.858C1180.94 169.697 1181.69 169.193 1182.27 169.028C1182.66 168.914 1183.57 168.156 1183.47 167.55C1183.37 166.985 1183.33 165.834 1182.95 165.475C1182.63 165.181 1182.48 164.704 1182.12 164.426C1181.8 164.174 1181.43 164.063 1181.1 163.872C1180.44 163.494 1179.46 163.404 1178.75 163.606C1177.62 163.926 1176.67 164.298 1175.92 165.397C1175.36 166.212 1175.29 168.433 1176.09 169.054C1176.86 169.654 1177.8 170.175 1178.75 170.202C1179.36 170.22 1179.8 170.023 1180.37 169.858Z" fill="#182B34"/>
<path d="M1172.67 166.124C1173.35 166.651 1174.16 166.147 1174.81 165.834C1175.04 165.725 1175.18 165.532 1175.37 165.357C1175.66 165.098 1176 164.547 1175.93 164.113C1175.76 163.161 1175.38 161.996 1174.4 162.275C1173.37 162.566 1172.37 163.37 1172.19 164.729C1172.13 165.213 1172.34 165.864 1172.67 166.124Z" fill="#182B34"/>
<path d="M1187.95 163.061C1188.21 164.575 1189.86 164.683 1190.91 164.242C1191.31 163.821 1191.69 163.201 1191.57 162.477C1191.4 161.518 1191.03 160.315 1190.03 160.598C1188.94 160.906 1187.65 161.3 1187.95 163.061Z" fill="#182B34"/>
<path d="M1175.66 175.153C1176.26 176.208 1177.33 175.746 1177.78 175.342C1178.27 174.971 1178.01 174.279 1177.83 173.796C1177.61 173.215 1176.91 173.216 1176.5 173.334C1175.89 173.508 1175.21 174.364 1175.66 175.153Z" fill="#182B34"/>
<path d="M1172.77 196.07C1173.09 197.026 1174.5 195.973 1174.97 195.699C1175.44 195.352 1175.11 194.116 1174.72 193.793C1174.36 193.496 1174.32 193.413 1173.89 193.536C1173.6 193.618 1173.35 193.727 1173.08 193.869C1172.3 194.281 1172.53 195.349 1172.77 196.07Z" fill="#182B34"/>
<path d="M1201.44 151.28C1201.8 153.334 1203.06 153.858 1204.09 152.45C1204.54 152 1204.87 151.037 1204.76 150.376C1204.62 149.542 1203.54 149.505 1202.92 149.548C1202.24 149.596 1201.27 150.28 1201.44 151.28Z" fill="#182B34"/>
<path d="M1204.82 148.319C1205.06 149.528 1206.33 150.557 1207.21 149.68C1207.67 149.215 1207.81 148.462 1207.98 148.205C1208.2 147.885 1208.28 147.563 1208.46 147.211C1208.78 146.616 1209.24 145.403 1209.8 145.107C1210.4 144.795 1211.61 143.854 1211.41 142.965C1211.21 142.026 1210.48 141.253 1209.68 141.48C1208.84 141.721 1208.41 142.707 1207.81 143.439C1207.54 143.771 1207.2 144.179 1206.84 144.368C1206.51 144.542 1205.94 144.716 1205.73 145.017C1205.59 145.223 1205.31 145.353 1205.19 145.583C1205.07 145.826 1204.97 146.14 1204.87 146.404C1204.61 147.099 1204.67 147.609 1204.82 148.319Z" fill="#182B34"/>
<path d="M1206.12 151.758C1206.69 150.654 1209.25 150.33 1209.55 151.89C1209.73 152.911 1209.35 153.528 1208.54 153.758C1207.88 153.945 1206.9 153.942 1206.29 153.559C1205.73 153.212 1205.83 152.296 1206.12 151.758Z" fill="#182B34"/>
<path d="M1216.46 154.719C1217.35 155.55 1218.93 154.93 1219.81 154.211C1220.55 153.661 1220.95 152.084 1220.28 151.29C1219.9 150.845 1219.3 150.564 1218.79 150.428C1218.24 150.281 1217.59 150.793 1217.07 150.941C1216.44 151.118 1215.93 151.952 1215.71 152.665C1215.63 152.936 1215.8 153.58 1215.87 153.848C1215.99 154.279 1216.17 154.456 1216.46 154.719Z" fill="#182B34"/>
<path d="M1223.16 155.574C1223.69 156.227 1224.44 155.92 1225.06 155.584C1225.55 155.445 1225.73 153.38 1225.63 152.804C1225.45 151.773 1225.42 150.491 1224.5 150.111C1223.94 149.879 1223.09 150.175 1222.78 150.798C1222.51 151.347 1222.36 152.601 1222.47 153.209C1222.59 153.953 1222.7 155.01 1223.16 155.574Z" fill="#182B34"/>
<path d="M1221.46 157.694C1221.67 158.901 1222.35 160.784 1223.59 159.756C1224.03 159.191 1224.1 158.478 1223.97 157.727C1223.86 157.081 1223.25 156.098 1222.63 156.275C1221.93 156.475 1221.28 156.638 1221.46 157.694Z" fill="#182B34"/>
<path d="M1229.02 174.885C1229.25 176.218 1230.68 175.821 1231.45 175.402C1231.83 175.022 1231.73 173.964 1231.54 173.55C1231.17 172.733 1230.83 172.813 1230.15 173.006C1229.21 173.273 1228.82 173.699 1229.02 174.885Z" fill="#182B34"/>
<path d="M1229.38 183.695C1229.86 183.141 1230.75 182.957 1231.28 183.353C1231.57 183.437 1231.74 184.414 1231.63 184.68C1231.39 185.262 1231.01 185.745 1230.53 186.057C1230.28 186.227 1230.09 186.533 1229.84 186.705C1229.65 186.831 1229.43 186.946 1229.27 187.134C1229.02 187.443 1228.89 187.813 1228.76 188.217C1228.48 189.149 1227.9 190.042 1227.1 190.272C1226.56 190.424 1225.63 190.83 1225.21 190.216C1224.91 189.793 1224.93 188.685 1225.17 188.25C1225.59 187.491 1226.22 187.085 1226.84 186.64C1227.56 186.129 1228.18 185.637 1228.7 184.827C1228.94 184.454 1229.09 184.033 1229.38 183.695Z" fill="#182B34"/>
<path d="M1195.78 139.497C1196.25 139.428 1196.63 139.176 1197.06 138.942C1197.84 138.359 1197.44 136.502 1196.92 135.969C1196.22 135.265 1195.31 135.226 1194.45 135.533C1194.14 135.645 1193.57 136.51 1193.56 136.922C1193.56 137.377 1193.57 137.943 1193.84 138.325C1194.1 138.687 1194.37 139.439 1194.87 139.366C1195.16 139.325 1195.47 139.542 1195.78 139.497Z" fill="#182B34"/>
<path d="M1155.6 145.669C1156.43 146.813 1155.77 148.498 1155.41 149.701C1155.06 150.044 1155.96 152.498 1156.19 152.876C1156.78 153.868 1156.85 155.44 1156.66 156.584C1156.55 157.235 1156.33 158.113 1155.73 158.286L1154.47 158.644C1153.9 158.806 1153.42 158.453 1152.97 158.088C1152.37 157.598 1152.4 156.851 1152.08 156.149C1151.87 155.686 1151.98 154.911 1151.71 154.51C1151.29 153.865 1150.68 153.268 1150.19 152.703C1149.37 151.78 1148.21 150.023 1148.77 148.608C1149.29 147.28 1150.51 146.562 1151.04 145.231C1151.28 144.623 1150.97 144.197 1150.73 143.687C1150.5 143.185 1150.38 142.14 1150.53 141.609C1151.17 139.316 1152.29 138.063 1154.22 137.458C1155.47 137.067 1156.69 136.613 1157.95 136.255C1158.82 136.006 1159.7 135.337 1160.35 134.56C1160.74 134.103 1161.05 133.694 1161.38 133.184C1161.72 132.656 1161.92 131.89 1162.32 131.429C1162.7 130.998 1162.99 130.242 1163.33 129.728C1163.77 129.074 1163.92 128.92 1164.61 128.724C1166.19 128.275 1167.75 128.154 1169.25 127.292C1170.2 126.747 1171.19 125.236 1169.99 124.269C1169.59 123.947 1168.96 123.588 1168.65 123.164C1168.36 122.762 1168.35 121.674 1168.4 121.173C1168.5 119.99 1168.23 117.282 1166.82 117.685C1166.05 117.902 1165.29 118.268 1164.51 118.018C1164.04 117.866 1164.16 117.054 1164.15 116.627C1164.12 115.295 1165.58 115.019 1166.14 114.109C1166.66 113.277 1165.87 111.442 1165.72 110.551C1165.46 109.074 1166.15 108.62 1167.24 108.312C1168.11 108.063 1169.43 107.872 1170.27 108.316C1170.9 108.647 1170.93 109.927 1171.05 110.618C1171.22 111.62 1171.28 112.627 1171.45 113.622C1171.57 114.32 1171.71 115.079 1172.38 115.238C1173.58 115.523 1174.82 116.925 1175.33 118.303C1176.06 120.252 1178.39 120.303 1178.78 122.559C1178.97 123.653 1178.87 124.539 1178.65 125.602C1178.42 126.671 1177.32 127.168 1176.58 127.521C1174.35 128.593 1172.09 129.626 1169.87 130.731C1168.7 131.311 1167.53 132.243 1166.53 133.165C1165.82 133.824 1164.97 134.759 1164.11 135.083C1163.72 135.227 1163.46 135.557 1163.05 135.672L1161.87 136.008C1161.21 136.194 1160.54 136.243 1159.87 136.431C1158.73 136.756 1158.61 139.04 1158.41 140.172C1158.08 142.005 1156.2 142.432 1155.48 143.898C1155.27 144.321 1155.34 145.31 1155.6 145.669Z" fill="#182B34"/>
<path d="M1165.44 142.803C1166.17 143.916 1166.91 143.249 1167.67 142.6C1168.36 142.09 1168.18 141.123 1167.72 140.418C1167.46 140.029 1167.27 139.692 1166.81 139.808C1166.44 139.904 1165.73 140.029 1165.47 140.416C1165.03 141.061 1164.98 142.114 1165.44 142.803Z" fill="#182B34"/>
<path d="M1176.52 137.628C1176.98 137.964 1177.73 137.15 1178.05 136.904C1178.64 136.469 1178.88 136.249 1179.31 135.615C1179.74 134.982 1180.7 135.141 1181.22 134.671L1181.22 134.67C1181.75 134.189 1182.14 133.831 1181.99 132.965C1181.86 132.214 1181.5 132.02 1180.91 132.188C1180.12 132.412 1179.5 133.168 1178.69 133.396C1177.99 133.597 1177.32 133.684 1176.61 133.989C1175.99 134.252 1175.91 135.433 1176.01 136.046C1176.08 136.438 1176.24 137.423 1176.52 137.628Z" fill="#182B34"/>
<path d="M1144.56 131.995C1144.09 133.281 1144.28 133.802 1145.13 133.968C1146.24 134.483 1147.16 132.011 1146.15 131.222C1145.62 130.813 1144.8 131.331 1144.56 131.995Z" fill="#182B34"/>
<path d="M1161 164.694C1161.68 164.742 1162.08 165.011 1162.74 164.823C1163.94 163.934 1163.35 162.881 1163.13 161.603C1162.99 160.754 1161.39 159.475 1160.7 159.483C1159.66 159.496 1158.03 160.17 1157.94 161.528C1157.89 162.346 1158.5 163.282 1159 163.717C1159.7 164.323 1160.09 164.63 1161 164.694Z" fill="#182B34"/>
<path d="M1222.29 134.117C1222.68 135.442 1223.92 135.426 1224.83 135.17L1224.84 135.156C1225.52 134.653 1226.06 134.254 1225.87 133.175C1225.77 132.556 1225.37 130.793 1224.7 130.801C1223.79 130.812 1222.67 131.321 1222.17 132.273C1221.93 132.749 1222.14 133.607 1222.29 134.117Z" fill="#182B34"/>
<path d="M1208.48 124.914C1208.68 126.379 1209.25 126.866 1210.42 126.531C1210.93 126.387 1211.89 126.154 1211.73 125.227C1211.62 124.607 1211.32 123.412 1210.65 123.42C1210.03 123.427 1208.33 123.816 1208.48 124.914Z" fill="#182B34"/>
<path d="M1201.91 131.505C1202.28 132.37 1202.52 132.511 1203.22 132.311C1203.92 132.114 1204.5 131.855 1204.73 130.95C1204.82 130.561 1204.46 129.103 1204.08 129.183C1203.46 129.313 1202.36 129.431 1201.93 130.056C1201.61 130.541 1201.69 130.984 1201.91 131.505Z" fill="#182B34"/>
<rect y="228.472" width="1750" height="386" fill="#182B34"/>
</svg>
