<svg width="235" height="78" viewBox="0 0 235 78" fill="none" xmlns="http://www.w3.org/2000/svg">
<path d="M6.72 47.8396C5.49333 47.8396 4.46 47.5596 3.62 46.9996C2.79333 46.4396 2.16667 45.633 1.74 44.5796C1.31333 43.5263 1.1 42.273 1.1 40.8196C1.1 39.233 1.36 37.913 1.88 36.8596C2.4 35.793 3.12667 34.993 4.06 34.4596C4.99333 33.913 6.08 33.6396 7.32 33.6396C7.92 33.6396 8.49333 33.693 9.04 33.7996C9.58667 33.9063 10.0733 34.093 10.5 34.3596L10.08 35.1796C9.72 34.953 9.3 34.793 8.82 34.6996C8.35333 34.593 7.85333 34.5396 7.32 34.5396C5.74667 34.5396 4.48667 35.053 3.54 36.0796C2.59333 37.093 2.12 38.6196 2.12 40.6596C2.12 40.9663 2.14 41.3596 2.18 41.8396C2.22 42.3063 2.30667 42.7663 2.44 43.2196L2.08 43.1196C2.17333 42.3463 2.43333 41.6863 2.86 41.1396C3.28667 40.593 3.83333 40.1796 4.5 39.8996C5.16667 39.6063 5.9 39.4596 6.7 39.4596C7.63333 39.4596 8.44667 39.633 9.14 39.9796C9.84667 40.313 10.3933 40.793 10.78 41.4196C11.18 42.0463 11.38 42.7796 11.38 43.6196C11.38 44.473 11.1733 45.2196 10.76 45.8596C10.36 46.4863 9.80667 46.973 9.1 47.3196C8.40667 47.6663 7.61333 47.8396 6.72 47.8396ZM6.68 46.9596C7.41333 46.9596 8.05333 46.8263 8.6 46.5596C9.14667 46.2796 9.57333 45.893 9.88 45.3996C10.2 44.893 10.36 44.3063 10.36 43.6396C10.36 42.6396 10.02 41.8396 9.34 41.2396C8.67333 40.6396 7.74667 40.3396 6.56 40.3396C5.8 40.3396 5.12667 40.4863 4.54 40.7796C3.95333 41.073 3.49333 41.473 3.16 41.9796C2.84 42.4863 2.68 43.053 2.68 43.6796C2.68 44.2263 2.83333 44.753 3.14 45.2596C3.44667 45.753 3.89333 46.1596 4.48 46.4796C5.08 46.7996 5.81333 46.9596 6.68 46.9596ZM15.4355 47.7396L21.5955 34.2196L21.9555 34.6596H13.0155L13.5355 34.1796V37.3396H12.5355V33.7396H22.5755V34.4596L16.5555 47.7396H15.4355ZM24.4023 47.8196C24.1757 47.8196 23.9757 47.7396 23.8023 47.5796C23.6423 47.4063 23.5623 47.1996 23.5623 46.9596C23.5623 46.7196 23.6423 46.5196 23.8023 46.3596C23.9757 46.1996 24.1757 46.1196 24.4023 46.1196C24.629 46.1196 24.8223 46.1996 24.9823 46.3596C25.1557 46.5196 25.2423 46.7196 25.2423 46.9596C25.2423 47.1996 25.1557 47.4063 24.9823 47.5796C24.8223 47.7396 24.629 47.8196 24.4023 47.8196ZM29.7714 47.7396L35.9314 34.2196L36.2914 34.6596H27.3514L27.8714 34.1796V37.3396H26.8714V33.7396H36.9114V34.4596L30.8914 47.7396H29.7714ZM42.8367 47.8396C41.8101 47.8396 40.8501 47.6663 39.9567 47.3196C39.0767 46.973 38.3901 46.5196 37.8967 45.9596L38.4167 45.1796C38.8434 45.673 39.4434 46.0863 40.2167 46.4196C41.0034 46.7396 41.8767 46.8996 42.8367 46.8996C44.0901 46.8996 45.0434 46.6196 45.6967 46.0596C46.3634 45.4996 46.6967 44.7463 46.6967 43.7996C46.6967 42.8663 46.3634 42.1196 45.6967 41.5596C45.0434 40.9863 44.0167 40.6996 42.6167 40.6996H41.7367V39.9596L46.1967 34.2596L46.3367 34.6596H38.4167V33.7396H47.1967V34.4596L42.7567 40.1596L42.3167 39.8396H42.7567C44.4234 39.8396 45.6701 40.2063 46.4967 40.9396C47.3234 41.673 47.7367 42.6263 47.7367 43.7996C47.7367 44.573 47.5501 45.2663 47.1767 45.8796C46.8167 46.493 46.2701 46.973 45.5367 47.3196C44.8167 47.6663 43.9167 47.8396 42.8367 47.8396ZM55.5091 47.8396C54.2824 47.8396 53.2491 47.5596 52.4091 46.9996C51.5824 46.4396 50.9557 45.633 50.5291 44.5796C50.1024 43.5263 49.8891 42.273 49.8891 40.8196C49.8891 39.233 50.1491 37.913 50.6691 36.8596C51.1891 35.793 51.9157 34.993 52.8491 34.4596C53.7824 33.913 54.8691 33.6396 56.1091 33.6396C56.7091 33.6396 57.2824 33.693 57.8291 33.7996C58.3757 33.9063 58.8624 34.093 59.2891 34.3596L58.8691 35.1796C58.5091 34.953 58.0891 34.793 57.6091 34.6996C57.1424 34.593 56.6424 34.5396 56.1091 34.5396C54.5357 34.5396 53.2757 35.053 52.3291 36.0796C51.3824 37.093 50.9091 38.6196 50.9091 40.6596C50.9091 40.9663 50.9291 41.3596 50.9691 41.8396C51.0091 42.3063 51.0957 42.7663 51.2291 43.2196L50.8691 43.1196C50.9624 42.3463 51.2224 41.6863 51.6491 41.1396C52.0757 40.593 52.6224 40.1796 53.2891 39.8996C53.9557 39.6063 54.6891 39.4596 55.4891 39.4596C56.4224 39.4596 57.2357 39.633 57.9291 39.9796C58.6357 40.313 59.1824 40.793 59.5691 41.4196C59.9691 42.0463 60.1691 42.7796 60.1691 43.6196C60.1691 44.473 59.9624 45.2196 59.5491 45.8596C59.1491 46.4863 58.5957 46.973 57.8891 47.3196C57.1957 47.6663 56.4024 47.8396 55.5091 47.8396ZM55.4691 46.9596C56.2024 46.9596 56.8424 46.8263 57.3891 46.5596C57.9357 46.2796 58.3624 45.893 58.6691 45.3996C58.9891 44.893 59.1491 44.3063 59.1491 43.6396C59.1491 42.6396 58.8091 41.8396 58.1291 41.2396C57.4624 40.6396 56.5357 40.3396 55.3491 40.3396C54.5891 40.3396 53.9157 40.4863 53.3291 40.7796C52.7424 41.073 52.2824 41.473 51.9491 41.9796C51.6291 42.4863 51.4691 43.053 51.4691 43.6796C51.4691 44.2263 51.6224 44.753 51.9291 45.2596C52.2357 45.753 52.6824 46.1596 53.2691 46.4796C53.8691 46.7996 54.6024 46.9596 55.4691 46.9596ZM61.6803 43.8596V43.1196L69.2803 33.7396H70.4203L62.8403 43.1196L62.2803 42.9596H73.6003V43.8596H61.6803ZM69.6603 47.7396V43.8596L69.6803 42.9596V39.5396H70.6603V47.7396H69.6603ZM79.2877 47.8396C78.2743 47.8396 77.321 47.6663 76.4277 47.3196C75.5477 46.973 74.861 46.5196 74.3677 45.9596L74.8877 45.1796C75.3143 45.673 75.9143 46.0863 76.6877 46.4196C77.461 46.7396 78.321 46.8996 79.2677 46.8996C80.561 46.8996 81.5343 46.6063 82.1877 46.0196C82.841 45.433 83.1677 44.673 83.1677 43.7396C83.1677 43.073 83.0143 42.4996 82.7077 42.0196C82.401 41.5396 81.881 41.173 81.1477 40.9196C80.4143 40.653 79.4143 40.5196 78.1477 40.5196H75.3077L76.0477 33.7396H83.4677V34.6596H76.4677L76.9677 34.1796L76.3077 40.1196L75.8277 39.5996H78.3677C79.7943 39.5996 80.9277 39.773 81.7677 40.1196C82.621 40.453 83.2343 40.9263 83.6077 41.5396C83.9943 42.153 84.1877 42.873 84.1877 43.6996C84.1877 44.473 84.0077 45.173 83.6477 45.7996C83.2877 46.4263 82.741 46.9263 82.0077 47.2996C81.2877 47.6596 80.381 47.8396 79.2877 47.8396ZM90.3423 47.8396C89.329 47.8396 88.3757 47.6663 87.4823 47.3196C86.6023 46.973 85.9157 46.5196 85.4223 45.9596L85.9423 45.1796C86.369 45.673 86.969 46.0863 87.7423 46.4196C88.5157 46.7396 89.3757 46.8996 90.3223 46.8996C91.6157 46.8996 92.589 46.6063 93.2423 46.0196C93.8957 45.433 94.2223 44.673 94.2223 43.7396C94.2223 43.073 94.069 42.4996 93.7623 42.0196C93.4557 41.5396 92.9357 41.173 92.2023 40.9196C91.469 40.653 90.469 40.5196 89.2023 40.5196H86.3623L87.1023 33.7396H94.5223V34.6596H87.5223L88.0223 34.1796L87.3623 40.1196L86.8823 39.5996H89.4223C90.849 39.5996 91.9823 39.773 92.8223 40.1196C93.6757 40.453 94.289 40.9263 94.6623 41.5396C95.049 42.153 95.2423 42.873 95.2423 43.6996C95.2423 44.473 95.0623 45.173 94.7023 45.7996C94.3423 46.4263 93.7957 46.9263 93.0623 47.2996C92.3423 47.6596 91.4357 47.8396 90.3423 47.8396ZM102.635 47.8396C101.568 47.8396 100.621 47.553 99.7947 46.9796C98.968 46.4063 98.3214 45.593 97.8547 44.5396C97.388 43.473 97.1547 42.2063 97.1547 40.7396C97.1547 39.273 97.388 38.013 97.8547 36.9596C98.3214 35.893 98.968 35.073 99.7947 34.4996C100.621 33.9263 101.568 33.6396 102.635 33.6396C103.715 33.6396 104.661 33.9263 105.475 34.4996C106.301 35.073 106.948 35.893 107.415 36.9596C107.881 38.013 108.115 39.273 108.115 40.7396C108.115 42.2063 107.881 43.473 107.415 44.5396C106.948 45.593 106.301 46.4063 105.475 46.9796C104.661 47.553 103.715 47.8396 102.635 47.8396ZM102.635 46.8996C103.528 46.8996 104.308 46.6596 104.975 46.1796C105.641 45.6863 106.161 44.9796 106.535 44.0596C106.908 43.1396 107.095 42.033 107.095 40.7396C107.095 39.433 106.908 38.3263 106.535 37.4196C106.161 36.4996 105.641 35.7996 104.975 35.3196C104.308 34.8263 103.528 34.5796 102.635 34.5796C101.755 34.5796 100.975 34.8263 100.295 35.3196C99.628 35.7996 99.108 36.4996 98.7347 37.4196C98.3614 38.3263 98.1747 39.433 98.1747 40.7396C98.1747 42.033 98.3614 43.1396 98.7347 44.0596C99.108 44.9796 99.628 45.6863 100.295 46.1796C100.975 46.6596 101.755 46.8996 102.635 46.8996ZM115.939 47.8396C114.712 47.8396 113.679 47.5596 112.839 46.9996C112.012 46.4396 111.385 45.633 110.959 44.5796C110.532 43.5263 110.319 42.273 110.319 40.8196C110.319 39.233 110.579 37.913 111.099 36.8596C111.619 35.793 112.345 34.993 113.279 34.4596C114.212 33.913 115.299 33.6396 116.539 33.6396C117.139 33.6396 117.712 33.693 118.259 33.7996C118.805 33.9063 119.292 34.093 119.719 34.3596L119.299 35.1796C118.939 34.953 118.519 34.793 118.039 34.6996C117.572 34.593 117.072 34.5396 116.539 34.5396C114.965 34.5396 113.705 35.053 112.759 36.0796C111.812 37.093 111.339 38.6196 111.339 40.6596C111.339 40.9663 111.359 41.3596 111.399 41.8396C111.439 42.3063 111.525 42.7663 111.659 43.2196L111.299 43.1196C111.392 42.3463 111.652 41.6863 112.079 41.1396C112.505 40.593 113.052 40.1796 113.719 39.8996C114.385 39.6063 115.119 39.4596 115.919 39.4596C116.852 39.4596 117.665 39.633 118.359 39.9796C119.065 40.313 119.612 40.793 119.999 41.4196C120.399 42.0463 120.599 42.7796 120.599 43.6196C120.599 44.473 120.392 45.2196 119.979 45.8596C119.579 46.4863 119.025 46.973 118.319 47.3196C117.625 47.6663 116.832 47.8396 115.939 47.8396ZM115.899 46.9596C116.632 46.9596 117.272 46.8263 117.819 46.5596C118.365 46.2796 118.792 45.893 119.099 45.3996C119.419 44.893 119.579 44.3063 119.579 43.6396C119.579 42.6396 119.239 41.8396 118.559 41.2396C117.892 40.6396 116.965 40.3396 115.779 40.3396C115.019 40.3396 114.345 40.4863 113.759 40.7796C113.172 41.073 112.712 41.473 112.379 41.9796C112.059 42.4863 111.899 43.053 111.899 43.6796C111.899 44.2263 112.052 44.753 112.359 45.2596C112.665 45.753 113.112 46.1596 113.699 46.4796C114.299 46.7996 115.032 46.9596 115.899 46.9596ZM127.97 47.8396C126.743 47.8396 125.71 47.5596 124.87 46.9996C124.043 46.4396 123.417 45.633 122.99 44.5796C122.563 43.5263 122.35 42.273 122.35 40.8196C122.35 39.233 122.61 37.913 123.13 36.8596C123.65 35.793 124.377 34.993 125.31 34.4596C126.243 33.913 127.33 33.6396 128.57 33.6396C129.17 33.6396 129.743 33.693 130.29 33.7996C130.837 33.9063 131.323 34.093 131.75 34.3596L131.33 35.1796C130.97 34.953 130.55 34.793 130.07 34.6996C129.603 34.593 129.103 34.5396 128.57 34.5396C126.997 34.5396 125.737 35.053 124.79 36.0796C123.843 37.093 123.37 38.6196 123.37 40.6596C123.37 40.9663 123.39 41.3596 123.43 41.8396C123.47 42.3063 123.557 42.7663 123.69 43.2196L123.33 43.1196C123.423 42.3463 123.683 41.6863 124.11 41.1396C124.537 40.593 125.083 40.1796 125.75 39.8996C126.417 39.6063 127.15 39.4596 127.95 39.4596C128.883 39.4596 129.697 39.633 130.39 39.9796C131.097 40.313 131.643 40.793 132.03 41.4196C132.43 42.0463 132.63 42.7796 132.63 43.6196C132.63 44.473 132.423 45.2196 132.01 45.8596C131.61 46.4863 131.057 46.973 130.35 47.3196C129.657 47.6663 128.863 47.8396 127.97 47.8396ZM127.93 46.9596C128.663 46.9596 129.303 46.8263 129.85 46.5596C130.397 46.2796 130.823 45.893 131.13 45.3996C131.45 44.893 131.61 44.3063 131.61 43.6396C131.61 42.6396 131.27 41.8396 130.59 41.2396C129.923 40.6396 128.997 40.3396 127.81 40.3396C127.05 40.3396 126.377 40.4863 125.79 40.7796C125.203 41.073 124.743 41.473 124.41 41.9796C124.09 42.4863 123.93 43.053 123.93 43.6796C123.93 44.2263 124.083 44.753 124.39 45.2596C124.697 45.753 125.143 46.1596 125.73 46.4796C126.33 46.7996 127.063 46.9596 127.93 46.9596ZM134.141 43.8596V43.1196L141.741 33.7396H142.881L135.301 43.1196L134.741 42.9596H146.061V43.8596H134.141ZM142.121 47.7396V43.8596L142.141 42.9596V39.5396H143.121V47.7396H142.121ZM153.087 47.8396C151.861 47.8396 150.827 47.5596 149.987 46.9996C149.161 46.4396 148.534 45.633 148.107 44.5796C147.681 43.5263 147.467 42.273 147.467 40.8196C147.467 39.233 147.727 37.913 148.247 36.8596C148.767 35.793 149.494 34.993 150.427 34.4596C151.361 33.913 152.447 33.6396 153.687 33.6396C154.287 33.6396 154.861 33.693 155.407 33.7996C155.954 33.9063 156.441 34.093 156.867 34.3596L156.447 35.1796C156.087 34.953 155.667 34.793 155.187 34.6996C154.721 34.593 154.221 34.5396 153.687 34.5396C152.114 34.5396 150.854 35.053 149.907 36.0796C148.961 37.093 148.487 38.6196 148.487 40.6596C148.487 40.9663 148.507 41.3596 148.547 41.8396C148.587 42.3063 148.674 42.7663 148.807 43.2196L148.447 43.1196C148.541 42.3463 148.801 41.6863 149.227 41.1396C149.654 40.593 150.201 40.1796 150.867 39.8996C151.534 39.6063 152.267 39.4596 153.067 39.4596C154.001 39.4596 154.814 39.633 155.507 39.9796C156.214 40.313 156.761 40.793 157.147 41.4196C157.547 42.0463 157.747 42.7796 157.747 43.6196C157.747 44.473 157.541 45.2196 157.127 45.8596C156.727 46.4863 156.174 46.973 155.467 47.3196C154.774 47.6663 153.981 47.8396 153.087 47.8396ZM153.047 46.9596C153.781 46.9596 154.421 46.8263 154.967 46.5596C155.514 46.2796 155.941 45.893 156.247 45.3996C156.567 44.893 156.727 44.3063 156.727 43.6396C156.727 42.6396 156.387 41.8396 155.707 41.2396C155.041 40.6396 154.114 40.3396 152.927 40.3396C152.167 40.3396 151.494 40.4863 150.907 40.7796C150.321 41.073 149.861 41.473 149.527 41.9796C149.207 42.4863 149.047 43.053 149.047 43.6796C149.047 44.2263 149.201 44.753 149.507 45.2596C149.814 45.753 150.261 46.1596 150.847 46.4796C151.447 46.7996 152.181 46.9596 153.047 46.9596ZM165.118 47.8396C163.892 47.8396 162.858 47.5596 162.018 46.9996C161.192 46.4396 160.565 45.633 160.138 44.5796C159.712 43.5263 159.498 42.273 159.498 40.8196C159.498 39.233 159.758 37.913 160.278 36.8596C160.798 35.793 161.525 34.993 162.458 34.4596C163.392 33.913 164.478 33.6396 165.718 33.6396C166.318 33.6396 166.892 33.693 167.438 33.7996C167.985 33.9063 168.472 34.093 168.898 34.3596L168.478 35.1796C168.118 34.953 167.698 34.793 167.218 34.6996C166.752 34.593 166.252 34.5396 165.718 34.5396C164.145 34.5396 162.885 35.053 161.938 36.0796C160.992 37.093 160.518 38.6196 160.518 40.6596C160.518 40.9663 160.538 41.3596 160.578 41.8396C160.618 42.3063 160.705 42.7663 160.838 43.2196L160.478 43.1196C160.572 42.3463 160.832 41.6863 161.258 41.1396C161.685 40.593 162.232 40.1796 162.898 39.8996C163.565 39.6063 164.298 39.4596 165.098 39.4596C166.032 39.4596 166.845 39.633 167.538 39.9796C168.245 40.313 168.792 40.793 169.178 41.4196C169.578 42.0463 169.778 42.7796 169.778 43.6196C169.778 44.473 169.572 45.2196 169.158 45.8596C168.758 46.4863 168.205 46.973 167.498 47.3196C166.805 47.6663 166.012 47.8396 165.118 47.8396ZM165.078 46.9596C165.812 46.9596 166.452 46.8263 166.998 46.5596C167.545 46.2796 167.972 45.893 168.278 45.3996C168.598 44.893 168.758 44.3063 168.758 43.6396C168.758 42.6396 168.418 41.8396 167.738 41.2396C167.072 40.6396 166.145 40.3396 164.958 40.3396C164.198 40.3396 163.525 40.4863 162.938 40.7796C162.352 41.073 161.892 41.473 161.558 41.9796C161.238 42.4863 161.078 43.053 161.078 43.6796C161.078 44.2263 161.232 44.753 161.538 45.2596C161.845 45.753 162.292 46.1596 162.878 46.4796C163.478 46.7996 164.212 46.9596 165.078 46.9596ZM174.03 47.7396V34.1796L174.49 34.6596H170.61V33.7396H175.05V47.7396H174.03ZM178.64 50.5996L179.42 47.2196L179.52 47.7996C179.267 47.7996 179.054 47.7196 178.88 47.5596C178.72 47.3996 178.64 47.1996 178.64 46.9596C178.64 46.7196 178.72 46.5196 178.88 46.3596C179.054 46.1996 179.254 46.1196 179.48 46.1196C179.734 46.1196 179.934 46.2063 180.08 46.3796C180.24 46.5396 180.32 46.733 180.32 46.9596C180.32 47.053 180.314 47.1463 180.3 47.2396C180.287 47.333 180.267 47.4263 180.24 47.5196C180.214 47.613 180.18 47.733 180.14 47.8796L179.36 50.5996H178.64ZM0.86 67.8596V67.1196L8.46 57.7396H9.6L2.02 67.1196L1.46 66.9596H12.78V67.8596H0.86ZM8.84 71.7396V67.8596L8.86 66.9596V63.5396H9.84V71.7396H8.84ZM19.6659 71.8396C18.5993 71.8396 17.6526 71.553 16.8259 70.9796C15.9993 70.4063 15.3526 69.593 14.8859 68.5396C14.4193 67.473 14.1859 66.2063 14.1859 64.7396C14.1859 63.273 14.4193 62.013 14.8859 60.9596C15.3526 59.893 15.9993 59.073 16.8259 58.4996C17.6526 57.9263 18.5993 57.6396 19.6659 57.6396C20.7459 57.6396 21.6926 57.9263 22.5059 58.4996C23.3326 59.073 23.9793 59.893 24.4459 60.9596C24.9126 62.013 25.1459 63.273 25.1459 64.7396C25.1459 66.2063 24.9126 67.473 24.4459 68.5396C23.9793 69.593 23.3326 70.4063 22.5059 70.9796C21.6926 71.553 20.7459 71.8396 19.6659 71.8396ZM19.6659 70.8996C20.5593 70.8996 21.3393 70.6596 22.0059 70.1796C22.6726 69.6863 23.1926 68.9796 23.5659 68.0596C23.9393 67.1396 24.1259 66.033 24.1259 64.7396C24.1259 63.433 23.9393 62.3263 23.5659 61.4196C23.1926 60.4996 22.6726 59.7996 22.0059 59.3196C21.3393 58.8263 20.5593 58.5796 19.6659 58.5796C18.7859 58.5796 18.0059 58.8263 17.3259 59.3196C16.6593 59.7996 16.1393 60.4996 15.7659 61.4196C15.3926 62.3263 15.2059 63.433 15.2059 64.7396C15.2059 66.033 15.3926 67.1396 15.7659 68.0596C16.1393 68.9796 16.6593 69.6863 17.3259 70.1796C18.0059 70.6596 18.7859 70.8996 19.6659 70.8996ZM28.0352 71.8196C27.8085 71.8196 27.6085 71.7396 27.4352 71.5796C27.2752 71.4063 27.1952 71.1996 27.1952 70.9596C27.1952 70.7196 27.2752 70.5196 27.4352 70.3596C27.6085 70.1996 27.8085 70.1196 28.0352 70.1196C28.2618 70.1196 28.4552 70.1996 28.6152 70.3596C28.7885 70.5196 28.8752 70.7196 28.8752 70.9596C28.8752 71.1996 28.7885 71.4063 28.6152 71.5796C28.4552 71.7396 28.2618 71.8196 28.0352 71.8196ZM35.3591 57.6396C36.5857 57.6396 37.6124 57.9196 38.4391 58.4796C39.2791 59.0396 39.9124 59.8463 40.3391 60.8996C40.7657 61.9396 40.9791 63.193 40.9791 64.6596C40.9791 66.233 40.7191 67.553 40.1991 68.6196C39.6791 69.6863 38.9524 70.493 38.0191 71.0396C37.0857 71.573 35.9991 71.8396 34.7591 71.8396C34.1591 71.8396 33.5857 71.7863 33.0391 71.6796C32.5057 71.573 32.0191 71.3863 31.5791 71.1196L31.9991 70.2996C32.3591 70.5263 32.7791 70.693 33.2591 70.7996C33.7391 70.893 34.2391 70.9396 34.7591 70.9396C36.3324 70.9396 37.5924 70.433 38.5391 69.4196C39.4857 68.393 39.9591 66.8596 39.9591 64.8196C39.9591 64.4996 39.9391 64.1063 39.8991 63.6396C39.8591 63.173 39.7724 62.713 39.6391 62.2596L39.9991 62.3596C39.9057 63.133 39.6457 63.793 39.2191 64.3396C38.7924 64.873 38.2457 65.2863 37.5791 65.5796C36.9257 65.873 36.1924 66.0196 35.3791 66.0196C34.4457 66.0196 33.6257 65.853 32.9191 65.5196C32.2257 65.173 31.6791 64.6863 31.2791 64.0596C30.8924 63.433 30.6991 62.6996 30.6991 61.8596C30.6991 61.0063 30.8991 60.2663 31.2991 59.6396C31.7124 58.9996 32.2657 58.5063 32.9591 58.1596C33.6657 57.813 34.4657 57.6396 35.3591 57.6396ZM35.3991 58.5196C34.6657 58.5196 34.0257 58.6596 33.4791 58.9396C32.9324 59.2063 32.4991 59.5863 32.1791 60.0796C31.8724 60.573 31.7191 61.1596 31.7191 61.8396C31.7191 62.8396 32.0591 63.6396 32.7391 64.2396C33.4191 64.8396 34.3457 65.1396 35.5191 65.1396C36.2791 65.1396 36.9524 64.993 37.5391 64.6996C38.1257 64.4063 38.5791 64.0063 38.8991 63.4996C39.2324 62.993 39.3991 62.4263 39.3991 61.7996C39.3991 61.253 39.2457 60.733 38.9391 60.2396C38.6324 59.733 38.1857 59.3196 37.5991 58.9996C37.0124 58.6796 36.2791 58.5196 35.3991 58.5196ZM47.3903 57.6396C48.617 57.6396 49.6436 57.9196 50.4703 58.4796C51.3103 59.0396 51.9436 59.8463 52.3703 60.8996C52.797 61.9396 53.0103 63.193 53.0103 64.6596C53.0103 66.233 52.7503 67.553 52.2303 68.6196C51.7103 69.6863 50.9836 70.493 50.0503 71.0396C49.117 71.573 48.0303 71.8396 46.7903 71.8396C46.1903 71.8396 45.617 71.7863 45.0703 71.6796C44.537 71.573 44.0503 71.3863 43.6103 71.1196L44.0303 70.2996C44.3903 70.5263 44.8103 70.693 45.2903 70.7996C45.7703 70.893 46.2703 70.9396 46.7903 70.9396C48.3636 70.9396 49.6236 70.433 50.5703 69.4196C51.517 68.393 51.9903 66.8596 51.9903 64.8196C51.9903 64.4996 51.9703 64.1063 51.9303 63.6396C51.8903 63.173 51.8036 62.713 51.6703 62.2596L52.0303 62.3596C51.937 63.133 51.677 63.793 51.2503 64.3396C50.8236 64.873 50.277 65.2863 49.6103 65.5796C48.957 65.873 48.2236 66.0196 47.4103 66.0196C46.477 66.0196 45.657 65.853 44.9503 65.5196C44.257 65.173 43.7103 64.6863 43.3103 64.0596C42.9236 63.433 42.7303 62.6996 42.7303 61.8596C42.7303 61.0063 42.9303 60.2663 43.3303 59.6396C43.7436 58.9996 44.297 58.5063 44.9903 58.1596C45.697 57.813 46.497 57.6396 47.3903 57.6396ZM47.4303 58.5196C46.697 58.5196 46.057 58.6596 45.5103 58.9396C44.9636 59.2063 44.5303 59.5863 44.2103 60.0796C43.9036 60.573 43.7503 61.1596 43.7503 61.8396C43.7503 62.8396 44.0903 63.6396 44.7703 64.2396C45.4503 64.8396 46.377 65.1396 47.5503 65.1396C48.3103 65.1396 48.9836 64.993 49.5703 64.6996C50.157 64.4063 50.6103 64.0063 50.9303 63.4996C51.2636 62.993 51.4303 62.4263 51.4303 61.7996C51.4303 61.253 51.277 60.733 50.9703 60.2396C50.6636 59.733 50.217 59.3196 49.6303 58.9996C49.0436 58.6796 48.3103 58.5196 47.4303 58.5196ZM54.9616 67.8596V67.1196L62.5616 57.7396H63.7016L56.1216 67.1196L55.5616 66.9596H66.8816V67.8596H54.9616ZM62.9416 71.7396V67.8596L62.9616 66.9596V63.5396H63.9416V71.7396H62.9416ZM67.9489 71.7396V71.0196L73.8689 65.1396C74.4289 64.5796 74.8489 64.093 75.1289 63.6796C75.4089 63.253 75.5956 62.8596 75.6889 62.4996C75.7956 62.1396 75.8489 61.7863 75.8489 61.4396C75.8489 60.5596 75.5489 59.8663 74.9489 59.3596C74.3489 58.8396 73.4689 58.5796 72.3089 58.5796C71.4289 58.5796 70.6556 58.713 69.9889 58.9796C69.3356 59.2463 68.7689 59.653 68.2889 60.1996L67.5689 59.5596C68.1022 58.9463 68.7756 58.473 69.5889 58.1396C70.4156 57.8063 71.3489 57.6396 72.3889 57.6396C73.3089 57.6396 74.1022 57.793 74.7689 58.0996C75.4489 58.393 75.9689 58.8196 76.3289 59.3796C76.7022 59.9263 76.8889 60.5796 76.8889 61.3396C76.8889 61.793 76.8222 62.2396 76.6889 62.6796C76.5689 63.1063 76.3422 63.5596 76.0089 64.0396C75.6889 64.5196 75.2222 65.0663 74.6089 65.6796L69.0489 71.2196L68.7089 70.8196H77.5689V71.7396H67.9489ZM79.2184 71.7396V71.0196L85.1384 65.1396C85.6984 64.5796 86.1184 64.093 86.3984 63.6796C86.6784 63.253 86.8651 62.8596 86.9584 62.4996C87.0651 62.1396 87.1184 61.7863 87.1184 61.4396C87.1184 60.5596 86.8184 59.8663 86.2184 59.3596C85.6184 58.8396 84.7384 58.5796 83.5784 58.5796C82.6984 58.5796 81.9251 58.713 81.2584 58.9796C80.6051 59.2463 80.0384 59.653 79.5584 60.1996L78.8384 59.5596C79.3718 58.9463 80.0451 58.473 80.8584 58.1396C81.6851 57.8063 82.6184 57.6396 83.6584 57.6396C84.5784 57.6396 85.3718 57.793 86.0384 58.0996C86.7184 58.393 87.2384 58.8196 87.5984 59.3796C87.9718 59.9263 88.1584 60.5796 88.1584 61.3396C88.1584 61.793 88.0918 62.2396 87.9584 62.6796C87.8384 63.1063 87.6118 63.5596 87.2784 64.0396C86.9584 64.5196 86.4918 65.0663 85.8784 65.6796L80.3184 71.2196L79.9784 70.8196H88.8384V71.7396H79.2184ZM93.1894 71.7396L99.3494 58.2196L99.7094 58.6596H90.7694L91.2894 58.1796V61.3396H90.2894V57.7396H100.329V58.4596L94.3094 71.7396H93.1894ZM107.42 71.8396C106.353 71.8396 105.407 71.553 104.58 70.9796C103.753 70.4063 103.107 69.593 102.64 68.5396C102.173 67.473 101.94 66.2063 101.94 64.7396C101.94 63.273 102.173 62.013 102.64 60.9596C103.107 59.893 103.753 59.073 104.58 58.4996C105.407 57.9263 106.353 57.6396 107.42 57.6396C108.5 57.6396 109.447 57.9263 110.26 58.4996C111.087 59.073 111.733 59.893 112.2 60.9596C112.667 62.013 112.9 63.273 112.9 64.7396C112.9 66.2063 112.667 67.473 112.2 68.5396C111.733 69.593 111.087 70.4063 110.26 70.9796C109.447 71.553 108.5 71.8396 107.42 71.8396ZM107.42 70.8996C108.313 70.8996 109.093 70.6596 109.76 70.1796C110.427 69.6863 110.947 68.9796 111.32 68.0596C111.693 67.1396 111.88 66.033 111.88 64.7396C111.88 63.433 111.693 62.3263 111.32 61.4196C110.947 60.4996 110.427 59.7996 109.76 59.3196C109.093 58.8263 108.313 58.5796 107.42 58.5796C106.54 58.5796 105.76 58.8263 105.08 59.3196C104.413 59.7996 103.893 60.4996 103.52 61.4196C103.147 62.3263 102.96 63.433 102.96 64.7396C102.96 66.033 103.147 67.1396 103.52 68.0596C103.893 68.9796 104.413 69.6863 105.08 70.1796C105.76 70.6596 106.54 70.8996 107.42 70.8996ZM120.584 71.8396C119.517 71.8396 118.571 71.553 117.744 70.9796C116.917 70.4063 116.271 69.593 115.804 68.5396C115.337 67.473 115.104 66.2063 115.104 64.7396C115.104 63.273 115.337 62.013 115.804 60.9596C116.271 59.893 116.917 59.073 117.744 58.4996C118.571 57.9263 119.517 57.6396 120.584 57.6396C121.664 57.6396 122.611 57.9263 123.424 58.4996C124.251 59.073 124.897 59.893 125.364 60.9596C125.831 62.013 126.064 63.273 126.064 64.7396C126.064 66.2063 125.831 67.473 125.364 68.5396C124.897 69.593 124.251 70.4063 123.424 70.9796C122.611 71.553 121.664 71.8396 120.584 71.8396ZM120.584 70.8996C121.477 70.8996 122.257 70.6596 122.924 70.1796C123.591 69.6863 124.111 68.9796 124.484 68.0596C124.857 67.1396 125.044 66.033 125.044 64.7396C125.044 63.433 124.857 62.3263 124.484 61.4196C124.111 60.4996 123.591 59.7996 122.924 59.3196C122.257 58.8263 121.477 58.5796 120.584 58.5796C119.704 58.5796 118.924 58.8263 118.244 59.3196C117.577 59.7996 117.057 60.4996 116.684 61.4196C116.311 62.3263 116.124 63.433 116.124 64.7396C116.124 66.033 116.311 67.1396 116.684 68.0596C117.057 68.9796 117.577 69.6863 118.244 70.1796C118.924 70.6596 119.704 70.8996 120.584 70.8996ZM133.748 71.8396C132.681 71.8396 131.735 71.553 130.908 70.9796C130.081 70.4063 129.435 69.593 128.968 68.5396C128.501 67.473 128.268 66.2063 128.268 64.7396C128.268 63.273 128.501 62.013 128.968 60.9596C129.435 59.893 130.081 59.073 130.908 58.4996C131.735 57.9263 132.681 57.6396 133.748 57.6396C134.828 57.6396 135.775 57.9263 136.588 58.4996C137.415 59.073 138.061 59.893 138.528 60.9596C138.995 62.013 139.228 63.273 139.228 64.7396C139.228 66.2063 138.995 67.473 138.528 68.5396C138.061 69.593 137.415 70.4063 136.588 70.9796C135.775 71.553 134.828 71.8396 133.748 71.8396ZM133.748 70.8996C134.641 70.8996 135.421 70.6596 136.088 70.1796C136.755 69.6863 137.275 68.9796 137.648 68.0596C138.021 67.1396 138.208 66.033 138.208 64.7396C138.208 63.433 138.021 62.3263 137.648 61.4196C137.275 60.4996 136.755 59.7996 136.088 59.3196C135.421 58.8263 134.641 58.5796 133.748 58.5796C132.868 58.5796 132.088 58.8263 131.408 59.3196C130.741 59.7996 130.221 60.4996 129.848 61.4196C129.475 62.3263 129.288 63.433 129.288 64.7396C129.288 66.033 129.475 67.1396 129.848 68.0596C130.221 68.9796 130.741 69.6863 131.408 70.1796C132.088 70.6596 132.868 70.8996 133.748 70.8996ZM141.192 67.8596V67.1196L148.792 57.7396H149.932L142.352 67.1196L141.792 66.9596H153.112V67.8596H141.192ZM149.172 71.7396V67.8596L149.192 66.9596V63.5396H150.172V71.7396H149.172ZM159.998 71.8396C158.931 71.8396 157.985 71.553 157.158 70.9796C156.331 70.4063 155.685 69.593 155.218 68.5396C154.751 67.473 154.518 66.2063 154.518 64.7396C154.518 63.273 154.751 62.013 155.218 60.9596C155.685 59.893 156.331 59.073 157.158 58.4996C157.985 57.9263 158.931 57.6396 159.998 57.6396C161.078 57.6396 162.025 57.9263 162.838 58.4996C163.665 59.073 164.311 59.893 164.778 60.9596C165.245 62.013 165.478 63.273 165.478 64.7396C165.478 66.2063 165.245 67.473 164.778 68.5396C164.311 69.593 163.665 70.4063 162.838 70.9796C162.025 71.553 161.078 71.8396 159.998 71.8396ZM159.998 70.8996C160.891 70.8996 161.671 70.6596 162.338 70.1796C163.005 69.6863 163.525 68.9796 163.898 68.0596C164.271 67.1396 164.458 66.033 164.458 64.7396C164.458 63.433 164.271 62.3263 163.898 61.4196C163.525 60.4996 163.005 59.7996 162.338 59.3196C161.671 58.8263 160.891 58.5796 159.998 58.5796C159.118 58.5796 158.338 58.8263 157.658 59.3196C156.991 59.7996 156.471 60.4996 156.098 61.4196C155.725 62.3263 155.538 63.433 155.538 64.7396C155.538 66.033 155.725 67.1396 156.098 68.0596C156.471 68.9796 156.991 69.6863 157.658 70.1796C158.338 70.6596 159.118 70.8996 159.998 70.8996ZM167.442 67.8596V67.1196L175.042 57.7396H176.182L168.602 67.1196L168.042 66.9596H179.362V67.8596H167.442ZM175.422 71.7396V67.8596L175.442 66.9596V63.5396H176.422V71.7396H175.422ZM180.528 67.8596V67.1196L188.128 57.7396H189.268L181.688 67.1196L181.128 66.9596H192.448V67.8596H180.528ZM188.508 71.7396V67.8596L188.528 66.9596V63.5396H189.508V71.7396H188.508ZM198.135 71.8396C197.122 71.8396 196.169 71.6663 195.275 71.3196C194.395 70.973 193.709 70.5196 193.215 69.9596L193.735 69.1796C194.162 69.673 194.762 70.0863 195.535 70.4196C196.309 70.7396 197.169 70.8996 198.115 70.8996C199.409 70.8996 200.382 70.6063 201.035 70.0196C201.689 69.433 202.015 68.673 202.015 67.7396C202.015 67.073 201.862 66.4996 201.555 66.0196C201.249 65.5396 200.729 65.173 199.995 64.9196C199.262 64.653 198.262 64.5196 196.995 64.5196H194.155L194.895 57.7396H202.315V58.6596H195.315L195.815 58.1796L195.155 64.1196L194.675 63.5996H197.215C198.642 63.5996 199.775 63.773 200.615 64.1196C201.469 64.453 202.082 64.9263 202.455 65.5396C202.842 66.153 203.035 66.873 203.035 67.6996C203.035 68.473 202.855 69.173 202.495 69.7996C202.135 70.4263 201.589 70.9263 200.855 71.2996C200.135 71.6596 199.229 71.8396 198.135 71.8396ZM204.708 67.8596V67.1196L212.308 57.7396H213.448L205.868 67.1196L205.308 66.9596H216.628V67.8596H204.708ZM212.688 71.7396V67.8596L212.708 66.9596V63.5396H213.688V71.7396H212.688Z" fill="white"/>
<g clip-path="url(#clip0_1910_8829)">
<path d="M4.94189 14.8484C5.68031 15.5806 6.35237 16.3518 6.95321 17.1566C7.4662 17.9134 7.68003 18.4266 8.05499 19.3385C8.28488 19.8423 8.49269 19.9927 8.93942 19.9927C9.42631 19.9927 9.64717 19.7369 9.81784 19.3413C10.1722 18.4801 10.4503 17.8228 10.889 17.2019C11.7498 16.0029 12.8195 14.9375 13.8706 13.9135C14.1552 13.6237 15.9948 11.9354 16.823 10.6032C16.823 10.6032 17.841 9.13985 17.841 7.09613C17.841 5.18442 16.8371 3.85852 16.8371 3.85852L13.9469 4.46074L12.1916 8.05765L11.7574 8.55364L11.6705 8.64347L11.5551 8.75595L11.3523 8.9356L11.0627 9.16094L9.4996 10.1518L5.59192 11.9072L4.94189 14.8484Z" fill="#34A853"/>
<path d="M0.908691 10.3573C1.8624 12.0522 3.70154 13.5422 4.94587 14.8497L11.555 8.75838C11.555 8.75838 10.6239 9.70584 8.93487 9.70584C7.05356 9.70584 5.53366 8.53694 5.53366 7.06303C5.53366 6.0523 6.31519 5.35791 6.31519 5.35791L1.82877 6.29326L0.908691 10.3573Z" fill="#FBBC04"/>
<path d="M11.629 0.446045C13.824 0.996712 15.7028 2.15272 16.8392 3.85745L11.5572 8.75487C11.5572 8.75487 12.3388 8.04799 12.3388 7.04351C12.3388 5.53523 10.7064 4.40851 8.94307 4.40851C7.27559 4.40851 6.31787 5.3544 6.31787 5.3544V2.26911L11.629 0.446045Z" fill="#4285F4"/>
<path d="M2.11914 2.60991C3.43023 1.38946 5.7372 0.13269 8.91755 0.13269C10.4605 0.13269 11.6231 0.44786 11.6231 0.44786L6.31243 5.357H2.54981L2.11914 2.60991Z" fill="#1A73E8"/>
<path d="M0.908658 10.3573C0.908658 10.3573 0.03125 9.0205 0.03125 7.08379C0.03125 5.25331 0.945803 3.65325 2.11936 2.61011L6.31566 5.35759L0.908658 10.3573Z" fill="#EA4335"/>
<path d="M91.1994 16.2408V5.8027H92.9231L97.5887 12.1588H97.664L102.33 5.8027H104.053V16.2408H102.33V10.0448L102.405 8.29515H102.33L98.1333 14.0244H97.1219L92.9256 8.29515H92.8503L92.9256 10.0448V16.2404L91.1994 16.2408ZM109.093 16.4595C108.119 16.4595 107.303 16.2408 106.648 15.8034C105.993 15.366 105.665 14.788 105.665 14.0686C105.665 13.2875 106.051 12.6814 106.826 12.2389C107.601 11.7964 108.556 11.5757 109.687 11.5757C110.699 11.5757 111.529 11.7214 112.179 12.0131V11.8089C112.179 11.284 111.949 10.8638 111.487 10.5482C111.025 10.2326 110.456 10.0745 109.781 10.0745C109.282 10.0745 108.829 10.1666 108.423 10.3479C108.017 10.5291 107.74 10.7853 107.59 11.1055L106.016 10.581C106.228 10.1534 106.647 9.76086 107.271 9.39297C107.895 9.02508 108.719 8.84621 109.744 8.84621C110.919 8.84621 111.892 9.11373 112.667 9.648C113.441 10.1823 113.828 10.936 113.828 11.9081V16.2271H112.18V15.2351H112.105C111.417 16.0553 110.412 16.4595 109.093 16.4595V16.4595ZM109.374 15.2351C110.086 15.2351 110.732 15.0281 111.313 14.6157C111.894 14.2033 112.184 13.7175 112.184 13.1512C111.698 12.8399 110.967 12.6845 109.992 12.6845C109.155 12.6845 108.524 12.8251 108.1 13.1074C107.676 13.3898 107.463 13.7198 107.463 14.0986C107.463 14.4486 107.656 14.7255 108.043 14.9297C108.43 15.134 108.874 15.2359 109.374 15.2359L109.374 15.2351ZM120.287 16.4595C119.588 16.4595 118.96 16.3423 118.405 16.1096C117.85 15.8768 117.434 15.5847 117.16 15.2347H117.085L117.16 16.2259V19.3749H115.437V9.08327H117.086V10.0745H117.161C117.436 9.72454 117.851 9.4332 118.406 9.19965C118.961 8.96611 119.59 8.84972 120.288 8.84972C121.475 8.84972 122.5 9.2141 123.361 9.94325C124.223 10.6724 124.654 11.5757 124.654 12.6548C124.654 13.7339 124.223 14.6376 123.361 15.3663C122.5 16.0951 121.475 16.4599 120.288 16.4599L120.287 16.4595ZM120.006 15.2351C120.806 15.2351 121.492 14.9992 122.067 14.5321C122.643 14.0651 122.929 13.4363 122.929 12.6587C122.929 11.8811 122.642 11.2527 122.067 10.7853C121.493 10.3178 120.805 10.0823 120.006 10.0823C119.195 10.0823 118.504 10.3154 117.936 10.7821C117.368 11.2488 117.084 11.8757 117.084 12.6626C117.084 13.4496 117.368 14.0764 117.936 14.5431C118.503 15.0098 119.194 15.2429 120.006 15.2429V15.2351ZM129.235 16.4595C128.211 16.4595 127.364 16.265 126.696 15.8764C126.027 15.4878 125.541 15.0016 125.225 14.4185L126.761 13.9225C127.248 14.8208 128.079 15.2632 129.254 15.2632C129.791 15.2632 130.232 15.1711 130.575 14.9899C130.918 14.8086 131.09 14.5622 131.09 14.2611C131.09 13.7948 130.672 13.4785 129.835 13.3136L127.98 12.9641C127.393 12.8477 126.837 12.6263 126.312 12.301C125.788 11.9756 125.525 11.5355 125.525 10.9821C125.525 10.3506 125.884 9.8378 126.602 9.44335C127.321 9.0489 128.174 8.85285 129.16 8.85285C129.972 8.85285 130.696 8.99618 131.333 9.28245C131.958 9.55817 132.441 9.99329 132.701 10.5142L131.202 10.9954C130.866 10.3639 130.165 10.0479 129.104 10.0479C128.592 10.0479 128.16 10.1307 127.811 10.2955C127.462 10.4603 127.287 10.6845 127.287 10.9665C127.287 11.3746 127.688 11.6515 128.504 11.7976L130.321 12.1326C131.183 12.2881 131.82 12.5556 132.232 12.9344C132.644 13.3133 132.851 13.7413 132.851 14.2178C132.851 14.859 132.513 15.3894 131.839 15.8213C131.164 16.2533 130.296 16.4626 129.229 16.4626L129.235 16.4595ZM40.1189 10.0175H33.0485V11.6499H38.068C37.8205 13.9385 35.3725 14.9149 33.062 14.9149C32.3299 14.9175 31.6044 14.8065 30.928 14.5886C30.2516 14.3706 29.6378 14.05 29.1224 13.6454C28.607 13.2408 28.2004 12.7603 27.9263 12.2321C27.6522 11.7039 27.5161 11.1385 27.526 10.5689C27.526 8.09793 29.9846 6.1948 33.0676 6.1948C35.4468 6.1948 36.8472 7.37503 36.8472 7.37503L38.3164 6.19168C38.3164 6.19168 36.4306 4.5592 32.9923 4.5592C28.6138 4.5592 25.2256 7.43478 25.2256 10.5408C25.2256 13.5839 28.413 16.5524 33.1042 16.5524C37.2302 16.5524 40.252 14.3529 40.252 11.1004C40.252 10.4146 40.124 10.0178 40.124 10.0178L40.1189 10.0175Z" fill="white"/>
<path d="M45.9237 8.85637C43.0224 8.85637 40.9434 10.6209 40.9434 12.679C40.9434 14.7677 42.9602 16.5649 45.9629 16.5649C48.6769 16.5649 50.9 14.9512 50.9 12.7235C50.9 10.1706 48.3135 8.85559 45.9287 8.85559L45.9237 8.85637ZM45.9523 10.3705C47.3794 10.3705 48.7311 11.268 48.7311 12.7138C48.7311 14.1291 47.3844 15.0531 45.9453 15.0531C44.3642 15.0531 43.1168 14.0678 43.1168 12.7032C43.1168 11.3684 44.3491 10.3709 45.9518 10.3709L45.9523 10.3705Z" fill="white"/>
<path d="M56.7035 8.85637C53.8022 8.85637 51.7231 10.6209 51.7231 12.679C51.7231 14.7677 53.74 16.5649 56.7426 16.5649C59.4567 16.5649 61.6798 14.9512 61.6798 12.7235C61.6798 10.1706 59.0933 8.85559 56.7085 8.85559L56.7035 8.85637ZM56.7321 10.3705C58.1591 10.3705 59.5109 11.268 59.5109 12.7138C59.5109 14.1291 58.1642 15.0531 56.7251 15.0531C55.1439 15.0531 53.8966 14.0678 53.8966 12.7032C53.8966 11.3684 55.1289 10.3709 56.7316 10.3709L56.7321 10.3705Z" fill="white"/>
<path d="M67.3175 8.85643C64.6547 8.85643 62.561 10.6713 62.561 12.708C62.561 15.0278 64.9875 16.5666 67.2708 16.5666C68.6828 16.5666 69.4332 16.1303 69.9884 15.6292V16.3892C69.9884 17.7191 68.9504 18.5158 67.3782 18.5158C65.8649 18.5158 65.1064 17.6402 64.8424 17.1434L62.9385 17.7628C63.6141 18.8739 64.9734 20.033 67.3948 20.033C70.0426 20.033 72.0609 18.7356 72.0609 16.0104V9.08607H69.9839V9.73906C69.3454 9.20401 68.472 8.85447 67.3135 8.85447L67.3175 8.85643ZM67.5103 10.3678C68.8163 10.3678 70.1565 11.2348 70.1565 12.7162C70.1565 14.2221 68.8188 15.0516 67.4811 15.0516C66.0616 15.0516 64.7405 14.1549 64.7405 12.7302C64.7405 11.2462 66.1118 10.3674 67.5103 10.3674V10.3678ZM81.3309 8.85643C78.8192 8.85643 76.7095 10.4108 76.7095 12.706C76.7095 15.1336 79.0601 16.574 81.5719 16.574C83.668 16.574 84.955 15.6816 85.722 14.8821L84.0154 13.9956C83.5711 14.5322 82.8277 15.0571 81.5884 15.0571C80.1955 15.0571 79.5555 14.4635 79.159 13.8886L85.8018 11.7406L85.457 11.1157C84.8145 9.88473 83.3176 8.85682 81.341 8.85682L81.3309 8.85643ZM81.4173 10.3389C82.3228 10.3389 82.9733 10.7139 83.2509 11.1622L78.8147 12.6049C78.6239 11.4879 79.9832 10.3389 81.4178 10.3389H81.4173ZM73.5367 16.3443H75.7181V4.97949H73.5367V16.3443Z" fill="white"/>
</g>
<defs>
<clipPath id="clip0_1910_8829">
<rect width="132.826" height="19.8631" fill="white" transform="translate(0 0.136719)"/>
</clipPath>
</defs>
</svg>
