<svg width="47" height="47" viewBox="0 0 47 47" fill="none" xmlns="http://www.w3.org/2000/svg">
<path d="M39.7499 0H6.59527C2.85201 0 0 2.85202 0 6.59528V39.7499C0 43.4932 2.85201 46.3452 6.59527 46.3452H39.7499C43.4932 46.3452 46.3452 43.4932 46.3452 39.7499V6.59528C46.3452 2.85202 43.4932 0 39.7499 0ZM23.1726 37.0762C30.8374 37.0762 37.0762 31.0156 37.0762 23.7074C37.0762 22.4596 36.8979 21.0336 36.5414 19.9641H40.4629V38.8587C40.4629 39.7499 39.7499 40.6412 38.6804 40.6412H7.66479C6.77354 40.6412 5.88228 39.9282 5.88228 38.8587V19.7858H9.98206C9.62556 21.0336 9.4473 22.2814 9.4473 23.5291C9.26905 31.0156 15.5078 37.0762 23.1726 37.0762ZM23.1726 31.7286C18.1816 31.7286 14.2601 27.8071 14.2601 22.9944C14.2601 18.1816 18.1816 14.2601 23.1726 14.2601C28.1636 14.2601 32.0851 18.1816 32.0851 22.9944C32.0851 27.9854 28.1636 31.7286 23.1726 31.7286ZM40.2847 12.6558C40.2847 13.7253 39.3934 14.6166 38.3239 14.6166H33.3329C32.2634 14.6166 31.3722 13.7253 31.3722 12.6558V7.84304C31.3722 6.77353 32.2634 5.88228 33.3329 5.88228H38.3239C39.3934 5.88228 40.2847 6.77353 40.2847 7.84304V12.6558Z" fill="#3D5965"/>
</svg>
