<svg width="105" height="105" fill="none" xmlns="http://www.w3.org/2000/svg"><path fill-rule="evenodd" clip-rule="evenodd" d="M52.203 52.203c0-7.208 5.843-13.05 13.051-13.05s13.05 5.843 13.05 13.05c0 7.208-5.842 13.051-13.05 13.051-7.208 0-13.05-5.843-13.05-13.05z" fill="#1ABCFE"/><path fill-rule="evenodd" clip-rule="evenodd" d="M26.104 78.305c0-7.208 5.843-13.05 13.05-13.05h13.051v13.05c0 7.208-5.843 13.05-13.05 13.05-7.208 0-13.052-5.842-13.052-13.05z" fill="#0ACF83"/><path fill-rule="evenodd" clip-rule="evenodd" d="M52.203 13.05v26.102h13.051c7.208 0 13.05-5.843 13.05-13.05 0-7.208-5.842-13.051-13.05-13.051h-13.05z" fill="#FF7262"/><path fill-rule="evenodd" clip-rule="evenodd" d="M26.104 26.102c0 7.207 5.843 13.05 13.05 13.05h13.051v-26.1h-13.05c-7.208 0-13.052 5.843-13.052 13.05z" fill="#F24E1E"/><path fill-rule="evenodd" clip-rule="evenodd" d="M26.104 52.203c0 7.208 5.843 13.051 13.05 13.051h13.051V39.152h-13.05c-7.208 0-13.052 5.843-13.052 13.051z" fill="#A259FF"/></svg>