<svg width="375" height="769" fill="none" xmlns="http://www.w3.org/2000/svg"><path fill="#182B34" d="M0 175h375v594H0zM296.056 38.64c-.544-.898-.962-1.868-1.54-2.775a31.59 31.59 0 00-6.359-7.182l.009-.034-.009.034c-.437-.368-.883-.703-1.329-1.038-3.231-2.335-6.402-4.762-9.685-7.04-3.464-2.398-7.214-4.266-11.313-5.369a2.52 2.52 0 01-1.086-.614c-1.648-1.445-3.254-2.914-4.894-4.392-1.517-1.267-3.308-1.784-5.266-1.81-2.494-.028-4.89.508-7.319 1.034-.109.007-.22.155-.247.255-.15.425-.437.562-.864.555-.285-.005-.569-.01-.805.07-.203.088-.374.328-.428.528-.027.1.237.314.394.392.522.32 1.104.547 1.583.89.207.164.302.475.448.73-.236.079-.472.158-.69.171-1.132.089-2.328.018-3.42.224-1.645.273-3.236.739-4.884 1.153-3.061.75-6.1 1.685-8.898 3.185-7.135 3.802-11.835 9.582-14.292 17.253a30.62 30.62 0 00-1.453 10.445c.026.436.127.857.271 1.253.271.717.425 1.474.195 2.198-.303.992-.705 1.956-1.132 2.878-.454 1.023-.908 2.045-.853 3.168.066 1.484.231 2.995.447 4.448.217 1.453.787 2.786 2.086 3.672.239.172.512.353.761.491l.267.072c.479-.587.491-.762.101-1.44-.146-.253-.359-.525-.463-.803-.079-.236-.074-.52-.069-.805-.015-.076.139-.25.205-.231.576.119.559-.35.649-.684.081-.3.143-.534.552-.46.1.027.296-.17.332-.303.173-.776.318-.916 1.15-1.086.017-.46.27-.607.722-.557.275.039.526.035.649-.29.027-.1.212-.121.33-.161l1.188-.432c1.264-.446 2.534-.784 3.918-.483.1.027.261-.037.354-.12.281-.246.547-.174.769.064.362.384.71.55 1.084.22.473.235.913.46 1.319.678.398.25.922.426 1.183.783.377.459.85.693 1.323.928.191.087.503-.008.687-.03l-1.112-3.303c-.483-1.525-1.178-2.928-2.211-4.135-.96-1.081-2.014-2.08-3.034-3.07-1.333-1.288-2.708-2.552-4.032-3.874-.28-.29-.457-.695-.567-1.082-.401-1.431-.375-2.855-.098-4.282.31-1.419.702-2.744 1.843-3.796 1.473-1.356 3.1-2.491 5.124-2.84.303-.062.587-.057.89-.119.041.512-.115.827-.438 1.098a1.043 1.043 0 00-.224.297c-.105.258-.201.483-.273.75-.053.2-.141.39-.152.566.06.84.163 1.654.247 2.535 1.906-.31 3.784-.913 5.454-2.073.483-.335.927-.788 1.41-1.123 1.202-.75 2.465-.66 3.729-.177 1.779.694 3.39 1.878 5.415 1.922-.03.243-.017.46-.062.627-.214 1.195-.801 2.181-1.521 3.131-.112.15-.157.316-.226.44.049.085.14.145.189.23.111-.149.223-.298.359-.404.628-.475 1.231-.992 1.917-1.415.644-.4 1.354-.78 2.07-1.053.363-.152.838-.06 1.241-.095-.044 1.49-.094 2.872-.144 4.253.35-.37.718-.808 1.11-1.203a27.348 27.348 0 011.741-1.82c.154-.174.49-.227.732-.197 2.095.313 4.182.66 6.311.983.784.14 1.578.246 2.471.379-.377.47-.693.85-1.01 1.23-.609.802-1.251 1.594-1.835 2.438-.293.422-.403.965-.91 1.258 0 0 .015.075.021.184.194-.055.378-.077.539-.141.819-.388 1.589-.86 2.424-1.172 1.036-.4 2.155-.707 3.25-1.056.118-.04.236-.08.327-.02.448.193.787-.002 1.143-.264a2.14 2.14 0 01.801-.32c.648-.149 1.31-.22 1.982-.326a.571.571 0 00.383-.362c.15-.424.417-.352.735-.338 2.304.334 4.519 1.001 6.743 1.635 1.948.596 3.923 1.092 5.932 1.596.533.144 1.117.23 1.695.206 1.508-.023 3.009-.156 4.498-.113 2.234.065 4.437-.021 6.459-1.158 1.057-.61 2.139-1.177 2.877-2.194.35-.37.614-1.087.109-1.866z"/><path d="M200.969 166.565c-2.714.521-5.747.174-9.156-.472-4.518 4.016-3.717 3.207-10.13 1.465-5.513.893-4.671 6.814-23.769 7.04-.823 1.507 15.122 3.412 14.665 5.206-.47 1.842 4.374 21.717 10.774 9.367.192 3.056 2.892 5.62 3.406 8.609.883 5.141 5.15-4.729 6.281.325.681 3.045 1.45 5.991 2.365 8.935 1.091 3.515 1.561 7.267 2.75 10.748 2.816 8.241 6.029 16.664 11.382 22.866 3.283 3.804 7.579 5.812 11.865 7.31l.402.141c3.959 1.385 7.901 2.763 11.957 3.701 5.339 1.234 10.746 2.823 16.202 3.082 6.259.298 12.573.224 18.841-.148 15.459-.919 30.582-5.438 45.435-10.792 7.436-2.681 14.666-5.402 21.526-10.021 4.763-3.206 9.615-6.788 13.724-11.192 7.462-7.996 13.807-17.387 18.325-28.22 2.702-6.478 18.072-4.965 16.963-12.131-1.259-8.139-.102-5.845-9.878-8.467-11.696.138-34.013-3-47.426-12.74-1.341-.974-2.908-1.4-4.249-2.394-1.425-1.057-2.82-.772-4.413-.32l-4.508 1.281c-1.243.353-3.828.978-4.777-.276-.428-.567-1.438-.798-2.029-1.073-.658-.307-1.483-.875-2.239-.711-1.221.266-2.463.713-3.163 2.049-1.712 3.263-.66 7.49-3.224 10.055-1.141 1.141-3.532-.523-4.311-1.166-1.364-1.127-3.448-1.641-4.609-3.048-1.092-1.324-2.348-2.421-3.352-3.949a16.832 16.832 0 00-1.885-2.324c-.3-.304-.421-1.057-.779-1.217-.321-.143-.674-.1-.986-.264-.908-.476-2.867.482-3.831.756-1.434.407-2.861-.426-4.172-.933-1.029-.398-2.498-2.311-2.848-3.609-.205-.76-.662-1.256-.804-2.086-.115-.668-.469-1.803-.802-2.36-.817-1.369-.716-2.52-2.405-2.04-1.228.349-2.075.859-3.043 1.743-.866.789-3.051.916-3.968.25-1.151-.836-2.478-1.918-3.757-2.413-.896-.347-2.238-.248-3.04-.831-.321-.233-1.559-1.748-.836-2.198.081-.051-.308.061-.497-.086-.25-.194-.427-.496-.724-.611-.892-.345-2.032-2.745-2.211-3.79-.302-1.753-.67-3.41-.893-5.193-.377-3.022 2.404-5.427 3.546-7.605.328-.625 1.191-1.532 1.198-2.322.009-.923-.695-.789-1.121-1.119-.718-.557-1.578-1.937-2.331-2.182-1.322-.432-2.324-1.013-3.24-2.287a7.222 7.222 0 00-1.55-1.602c-.65-.504-1.582.041-2.298.244-1.215.345-2.833 1.665-2.538 3.384.099.576.212 1.763.686 2.045.231.137 1.005 1.313 1.056 1.606.272 1.586.235 3.291-.784 4.52-.735.886-1.833 2.415-2.096 3.652-.289 1.359-.853 3.442-.681 4.823.152 1.217.182 4.077-.272 5.191-.524 1.289-1.096 2.432-2.056 3.308-.91.831-2.258.975-3.392 1.297-.865.245-3.03.399-3.577 1.228-.324.491-.796.663-1.061 1.315-.261.64-.513 1.342-.829 1.946-.626 1.192-1.27 3.192-1.658 4.616-.378 1.389-1.755 2.566-2.704 3.431-.884.807-2.151.996-3.033 1.8-.793.724-2.302 1.411-3.275 1.688-2.611.741-5.044 2.343-7.648 1.726-1.341-.318-2.88.514-4.245.722l-.021.003c-.562.085-2.317.352-4.225.718z" fill="#182B34"/><path d="M230.412 129.424c.434-.124 1.002-.509 1.446-.635.304-.087.997-.666.918-1.129-.074-.432-.102-1.311-.396-1.586-.24-.224-.357-.588-.632-.801-.247-.192-.528-.278-.783-.424-.503-.288-1.251-.357-1.795-.203-.861.245-1.584.529-2.16 1.369-.426.622-.485 2.319.127 2.794.591.458 1.312.857 2.035.877.465.014.798-.137 1.24-.262zm-5.886-2.854c.519.403 1.136.017 1.637-.222.174-.083.28-.23.427-.364.217-.198.48-.619.423-.951-.125-.727-.418-1.617-1.167-1.404-.784.222-1.549.836-1.685 1.875-.049.37.109.867.365 1.066zm11.674-2.34c.199 1.157 1.459 1.239 2.263.902.302-.322.597-.795.502-1.348-.126-.733-.413-1.652-1.174-1.436-.83.236-1.822.536-1.591 1.882zm-9.391 9.239c.461.806 1.275.453 1.617.145.381-.284.178-.813.04-1.182-.165-.444-.699-.443-1.014-.353-.468.133-.988.787-.643 1.39zm-2.204 15.982c.244.73 1.315-.074 1.677-.283.357-.266.11-1.21-.189-1.456-.275-.228-.306-.291-.637-.197-.22.063-.408.146-.615.255-.597.314-.421 1.131-.236 1.681zm21.906-34.223c.27 1.57 1.237 1.97 2.02.894.344-.344.599-1.079.512-1.584-.109-.638-.932-.666-1.401-.633-.524.036-1.262.559-1.131 1.323zm2.575-2.262c.189.924 1.158 1.71 1.828 1.04.355-.356.458-.931.591-1.127.165-.245.228-.491.369-.76.238-.454.594-1.381 1.024-1.608.453-.238 1.376-.957 1.229-1.636-.157-.717-.71-1.308-1.321-1.135-.647.184-.974.938-1.431 1.497-.206.253-.468.566-.742.71-.251.133-.689.266-.845.496-.106.157-.321.256-.413.432-.097.186-.17.426-.245.627-.198.531-.154.921-.044 1.464zm.994 2.628c.442-.844 2.395-1.092 2.625.101.134.78-.153 1.251-.771 1.426-.504.144-1.257.141-1.724-.151-.425-.266-.346-.966-.13-1.376zm7.902 2.262c.683.635 1.888.161 2.562-.388.565-.421.872-1.625.357-2.232-.288-.34-.749-.555-1.135-.659-.419-.112-.922.279-1.319.392-.478.135-.871.772-1.036 1.317-.063.207.069.699.124.904.089.329.231.465.447.666zm5.122.654c.405.498.979.264 1.449.007.376-.106.513-1.684.438-2.124-.136-.787-.161-1.767-.862-2.058-.427-.177-1.081.049-1.316.525-.207.419-.319 1.378-.239 1.842.097.569.179 1.376.53 1.808zm-1.3 1.619c.158.922.682 2.36 1.629 1.575.337-.431.388-.977.29-1.55-.085-.494-.548-1.245-1.025-1.109-.538.152-1.033.277-.894 1.084zm5.777 13.135c.175 1.019 1.271.715 1.859.395.29-.29.21-1.099.065-1.415-.284-.624-.542-.563-1.062-.415-.718.204-1.018.529-.862 1.435zm.278 6.731c.364-.423 1.048-.563 1.451-.261.217.064.352.811.267 1.014a2.316 2.316 0 01-.838 1.052c-.196.13-.337.364-.532.495-.143.097-.315.185-.431.328-.191.237-.295.519-.39.828-.219.712-.657 1.394-1.274 1.57-.409.116-1.121.426-1.445-.043-.223-.323-.209-1.17-.025-1.502.322-.58.798-.89 1.275-1.23.548-.391 1.02-.766 1.422-1.386.185-.285.298-.606.52-.865zm-25.674-33.769c.362-.053.649-.246.977-.425.598-.445.293-1.864-.109-2.271-.532-.538-1.231-.568-1.883-.333-.236.085-.676.746-.679 1.061-.003.348.002.78.212 1.072.199.277.405.851.785.796.22-.032.458.134.697.1zm-30.7 4.715c.629.874.128 2.161-.148 3.08-.262.262.425 2.138.598 2.427.452.757.503 1.959.356 2.832-.084.498-.246 1.169-.711 1.301l-.962.273c-.437.124-.798-.146-1.143-.424-.463-.374-.434-.945-.681-1.482-.163-.354-.079-.946-.281-1.252-.324-.493-.786-.949-1.166-1.381-.62-.705-1.51-2.047-1.085-3.129.399-1.015 1.336-1.563 1.736-2.58.183-.465-.055-.79-.233-1.18-.175-.383-.271-1.182-.157-1.588.49-1.751 1.35-2.709 2.824-3.171.952-.299 1.882-.646 2.845-.919.669-.19 1.338-.702 1.837-1.295.293-.35.532-.662.783-1.052.26-.403.416-.989.724-1.341.288-.33.508-.907.771-1.3.336-.5.445-.617.973-.767 1.207-.343 2.401-.435 3.548-1.094.725-.416 1.479-1.57.567-2.31-.304-.246-.79-.52-1.023-.844-.221-.307-.229-1.138-.197-1.521.077-.904-.123-2.973-1.206-2.665-.584.166-1.167.446-1.759.254-.359-.116-.271-.737-.278-1.062-.022-1.018 1.095-1.23 1.522-1.924.392-.636-.209-2.038-.326-2.719-.194-1.129.333-1.475 1.162-1.71.668-.19 1.678-.337 2.321.003.479.253.503 1.23.593 1.758.132.766.174 1.535.304 2.295.092.534.197 1.113.71 1.235.92.218 1.862 1.289 2.255 2.342.555 1.49 2.342 1.528 2.638 3.252.144.836.07 1.513-.103 2.325-.173.817-1.013 1.197-1.576 1.466-1.708.82-3.436 1.608-5.132 2.453-.889.443-1.784 1.155-2.548 1.86-.547.503-1.196 1.218-1.852 1.465-.293.111-.497.362-.807.45l-.905.257c-.5.142-1.018.179-1.526.324-.873.248-.962 1.993-1.116 2.858-.249 1.4-1.691 1.726-2.243 2.846-.159.324-.1 1.079.097 1.354z" fill="#182B34"/><path d="M218.998 108.751c.559.85 1.129.341 1.711-.155.524-.39.389-1.129.035-1.667-.195-.297-.341-.555-.693-.466-.288.073-.829.168-1.03.464-.333.493-.368 1.298-.023 1.824zm8.471-3.954c.353.257.92-.365 1.17-.553.447-.333.632-.501.961-.985.327-.484 1.064-.362 1.457-.721l.001-.001c.403-.368.703-.641.589-1.302-.099-.575-.375-.722-.825-.594-.602.171-1.081.749-1.694.923-.539.153-1.053.22-1.595.453-.467.201-.533 1.103-.453 1.571.052.3.173 1.053.389 1.209zm-24.423-4.304c-.357.982-.214 1.38.44 1.507.846.394 1.552-1.495.775-2.098-.403-.313-1.03.083-1.215.591zm12.561 24.984c.521.037.826.243 1.331.099.914-.679.468-1.483.301-2.46-.112-.649-1.331-1.626-1.861-1.62-.795.01-2.038.525-2.106 1.563-.042.624.428 1.34.809 1.672.532.463.836.698 1.526.746zm46.832-23.363c.294 1.013 1.248 1 1.937.805l.014-.011c.517-.384.927-.689.785-1.513-.081-.473-.386-1.82-.895-1.814-.698.008-1.548.397-1.929 1.125-.191.363-.024 1.019.088 1.408zm-10.552-7.031c.156 1.119.585 1.49 1.486 1.235.386-.11 1.118-.288.996-.997-.082-.473-.308-1.386-.821-1.38-.473.005-1.778.303-1.661 1.142zm-5.018 5.036c.276.661.464.768 1.002.616.528-.15.974-.349 1.147-1.04.075-.297-.205-1.411-.497-1.35-.472.099-1.313.19-1.636.667-.252.37-.183.709-.016 1.107z" fill="#182B34"/></svg>