<svg width="190" height="61" fill="none" xmlns="http://www.w3.org/2000/svg"><path d="M12.395 24.948v-.167l-7.102-7.45 6.554-7.072v-.083H8.39l-5.608 6.248v-6.248H0v14.777h2.782v-6.548l6.175 6.544h3.438zm1.558-7.283c0 3.884 2.402 7.617 7.587 7.617 5.184 0 7.523-3.822 7.566-7.643.042-3.863-2.487-7.768-7.566-7.768-5.1.004-7.587 3.91-7.587 7.793zm12.413.021c-.042 2.428-1.348 5.045-4.826 5.045-3.478 0-4.784-2.595-4.847-5.022-.064-2.491 1.37-5.3 4.847-5.3 3.477 0 4.869 2.785 4.825 5.279l.001-.002zm17.259 4.687h-7.587V10.17h-2.782v14.777h10.369v-2.575zm6.827-.212h7.713l1.244 2.787h3.035L55.826 10.17h-3.034l-6.617 14.777h3.013l1.264-2.787zm3.857-8.887l2.74 6.29h-5.48l2.74-6.29zM13.29 47.808l-4.468-5.045a4.382 4.382 0 003.73-4.644c0-2.555-1.832-4.877-5.31-4.898-2.339 0-4.678-.02-7.018-.02v14.797h2.783V43.06h2.678l4.3 4.938h3.305v-.19zM3.006 40.546v-4.728h4.236a2.37 2.37 0 110 4.728H3.006zm24.533-4.623v-2.702H16.496v14.777H27.54v-2.744h-8.282v-3.335h7.987v-2.595h-7.987v-3.398l8.282-.003zm10.325 9.963c-1.791 0-3.499-.717-4.153-2.343l-2.318 1.203c1.096 2.702 3.414 3.63 6.428 3.63 3.288 0 6.194-1.414 6.194-4.707 0-3.525-2.866-4.327-5.943-4.707-1.77-.211-3.288-.57-3.288-1.858 0-1.097.992-1.963 3.056-1.963a4.225 4.225 0 013.5 1.646l2.211-1.14c-1.117-2.28-3.498-2.934-5.795-2.934-2.719.021-5.711 1.267-5.711 4.307 0 3.314 2.782 4.116 5.795 4.475 1.96.21 3.415.78 3.415 2.176.002 1.605-1.642 2.215-3.391 2.215zm21.411-9.963v-2.702H48.23v14.777h11.044v-2.744h-8.287v-3.335h7.988v-2.595h-7.988v-3.398l8.287-.003zM73.31 47.998h3.308v-.19l-4.468-5.045a4.382 4.382 0 003.73-4.644c0-2.555-1.832-4.877-5.31-4.898-2.34 0-4.678-.02-7.018-.02v14.797h2.782V43.06h2.679l4.296 4.938zm-6.976-12.18h4.236a2.369 2.369 0 110 4.73h-4.236v-4.73zm20.081 8.907L81.968 33.22H78.85l6.132 14.84h2.888l6.133-14.84h-3.119l-4.469 11.505zm11.358 3.273h11.043v-2.744h-8.282v-3.335h7.987v-2.595h-7.987v-3.398h8.282v-2.702H97.773v14.774zm37.516-10.649c.282-.275.549-.566.8-.87.108-.157.19-.331.24-.515v-.012c.033-.12.048-.242.045-.366.113-1.055.295-4.026-1.022-5.072a1.37 1.37 0 00-.62-.322 1.626 1.626 0 00-.335-.046 2.075 2.075 0 00-1.232.399c.357-2.702 1.998-11.732 8.518-18.036a25.623 25.623 0 00-4.831 5.764 28.831 28.831 0 011.894-2.897 22.746 22.746 0 0111.68-8.5 2.296 2.296 0 01-.309.013.889.889 0 00-.174.019c-.137.03-.284.09-.418.135a17.846 17.846 0 00-2.736 1.15 21.209 21.209 0 00-3.432 2.251 26.376 26.376 0 00-3.08 2.911 31.559 31.559 0 00-1.369 1.625 5.256 5.256 0 00-.418.546 29.686 29.686 0 00-4.035 7.177 36.868 36.868 0 00-1.03 2.502 30.691 30.691 0 013.948-8.635 25.25 25.25 0 0111.542-9.645 4.766 4.766 0 012.024-.446 1.336 1.336 0 011.079.565 1.046 1.046 0 010 1.02 1.5 1.5 0 01-.367.07.489.489 0 00.208-.378.25.25 0 00-.006-.039c-.074-.327-.597-.191-.863-.093a7.5 7.5 0 00-.803.351h-.005a8.154 8.154 0 00-.773.44c-11.576 6.824-9.348 16.039-9.348 16.039a30.051 30.051 0 011.987-5.697l3.104-1.974-2.038-.111a21.39 21.39 0 012.391-3.485 3.588 3.588 0 011.733-1.282.364.364 0 00.251-.133.094.094 0 00-.07-.137.782.782 0 00.251-.352 5.338 5.338 0 013.105.219c-.29-.96-.92-1.78-1.772-2.308l.133-.105c2.89.676 5.911.546 8.733-.375l-3.542-3.99-.251-4.061a36.724 36.724 0 00-3.669 3.39 17.583 17.583 0 01-3.021 2.619c-.094.027-.189.058-.283.084a.39.39 0 00-.131-.653.386.386 0 00-.261 0 2.59 2.59 0 00-1.026.838 14.43 14.43 0 01-3.544 2.41 22.29 22.29 0 00-3.726 2.588l-.408-1.983a14.311 14.311 0 01-4.949 1.446 15.359 15.359 0 00.347 6.318 22.166 22.166 0 00-3.655 12.163 21.231 21.231 0 003.414 11.237c.266.418.681.864 1.043.622.405-.267.292-1.03.246-1.616a3.85 3.85 0 01.836-2.777zm-2.273-2.227c.317 0 .544.183.647.586.028.105.04.218.06.328 0 .015.006.043 0 .046-.018.012-.019-.01-.021-.026a.784.784 0 00-.569-.285.776.776 0 00-.591.237 1.389 1.389 0 00-.206.261c.011-.621.343-1.148.68-1.147zm.763 1.694c-.021.255-.13.494-.308.676a.414.414 0 00-.161.231 1.28 1.28 0 00.391-.306 2.713 2.713 0 01-.147.66.8.8 0 01-.308.444c-.206.11-.441-.032-.594-.238a1.604 1.604 0 01-.295-.79.792.792 0 00.812.288.183.183 0 00.154-.173.469.469 0 01-.432-.007c.123-.051.144-.269.233-.394.043-.05.09-.098.139-.142a.505.505 0 00.11-.452.332.332 0 00-.251-.233.341.341 0 00-.372.198 1.713 1.713 0 00-.084.298.325.325 0 01-.155.231 1.148 1.148 0 01.046-.727c.203-.478.721-.637 1.022-.278a.812.812 0 01.144.264c.05.145.069.298.056.45zm46.652 6.786c-.446-.194-1.031.312-1.506.67a3.913 3.913 0 01-2.807.796 11.1 11.1 0 00-1.172-.2 1.725 1.725 0 00-.566.077l-.011.005a1.26 1.26 0 00-.335.16c-.967.482-3.639 1.961-3.757 3.652-.026.213-.002.43.07.632.037.106.084.208.142.304.239.372.591.658 1.005.815-2.483 1.16-11.023 4.66-19.884 2.609 2.439.674 4.963.987 7.492.929-1.158.062-2.32.055-3.478-.02a22.85 22.85 0 01-13.507-5.181c.065.08.124.163.178.25a.933.933 0 00.109.136c.101.098.231.189.343.28a17.734 17.734 0 002.45 1.672 21.32 21.32 0 003.762 1.655c1.348.445 2.728.78 4.129 1.005a30.504 30.504 0 002.116.268c.228.034.459.053.689.057a30.17 30.17 0 008.261-.502c.86-.125 1.758-.285 2.678-.489a31.203 31.203 0 01-9.451 1.358 25.413 25.413 0 01-14.402-4.447 4.716 4.716 0 01-1.471-1.452 1.325 1.325 0 01-.104-1.208 1.071 1.071 0 01.867-.547c.096.079.183.17.257.27a.488.488 0 00-.432.03.208.208 0 00-.03.026c-.237.238.159.602.386.771.234.175.479.336.732.483h.005c.115.066.232.132.35.194.144.075.293.145.441.213 12.031 5.998 18.64-.837 18.64-.837a30.629 30.629 0 01-5.901 1.412l-3.348-1.53 1.005 1.764a21.58 21.58 0 01-4.244-.12 3.604 3.604 0 01-2.022-.757.379.379 0 00-.251-.139.097.097 0 00-.075.046.094.094 0 00-.004.087.792.792 0 00-.435-.022 5.26 5.26 0 01-1.491-2.715 4.11 4.11 0 00-.997 2.728c-.055-.017-.109-.037-.163-.056a16.048 16.048 0 00-5.031-7.101l-1.47 5.115-3.308 2.4c1.588.522 3.21.936 4.854 1.238 1.322.224 2.614.598 3.851 1.114.073.064.15.127.222.192a.385.385 0 00-.484.46c.02.087.071.165.143.22a2.6 2.6 0 001.255.407c1.395.355 2.728.916 3.957 1.664a22.351 22.351 0 004.204 1.719l-1.461 1.412a14.193 14.193 0 013.895 3.357 15.562 15.562 0 005.169-3.698 22.548 22.548 0 0012.283-3.508 21.375 21.375 0 007.683-8.917c.224-.447.376-1.033-.025-1.206zm-4.971 4.566a.646.646 0 01.144-.856c.075-.084.168-.151.246-.227.013-.009.034-.027.039-.026.02.009 0 .022-.01.032-.084.547.094.857.586.995.11.024.222.035.335.032-.532.324-1.158.33-1.34.049zm2.877-1.402a1.62 1.62 0 01-.51.67.785.785 0 00-.195-.838.186.186 0 00-.229-.036.467.467 0 01.228.366c-.11-.075-.307.023-.46.017a1.545 1.545 0 01-.196-.04.505.505 0 00-.442.153.348.348 0 00-.078.158.34.34 0 00.014.176.337.337 0 00.369.204 1.8 1.8 0 00.298-.091.334.334 0 01.28.005c-.17.184-.395.308-.642.354-.514.088-.928-.26-.786-.704a.832.832 0 01.147-.264 1.133 1.133 0 011.088-.392c.09.035.19.039.282.01a1.257 1.257 0 00-.471-.162c.202-.104.417-.182.639-.233a.81.81 0 01.543.018c.206.115.212.388.121.628zm9.932-12.145a17.356 17.356 0 01-1.271-3.777c.011-.097.019-.195.032-.29a.395.395 0 00.42.246.388.388 0 00.334-.355 2.569 2.569 0 00-.38-1.26 14.234 14.234 0 01-.877-4.178 22.047 22.047 0 00-.972-4.411l2.001.388a14.054 14.054 0 01.56-5.092 15.631 15.631 0 00-6.005-2.113 22.399 22.399 0 00-9.898-8.03 21.621 21.621 0 00-11.756-1.193c-.493.084-1.064.292-.981.717.093.475.845.665 1.408.847a3.886 3.886 0 012.26 1.842c.148.365.316.722.502 1.069.105.16.236.301.387.418l.01.006c.099.076.207.137.323.182.938.508 3.628 1.819 5.106 1.014.215-.1.4-.252.538-.444a1.62 1.62 0 00.168-.29 2.04 2.04 0 00.104-1.284c2.373 1.366 10.133 6.345 13.483 14.747a25.503 25.503 0 00-3.499-6.646c.712.91 1.368 1.862 1.965 2.85a22.483 22.483 0 013.405 13.979c.029-.098.065-.195.107-.288a.817.817 0 00.049-.167c.025-.138.026-.296.038-.439.027-.322.045-.646.053-.973a17.69 17.69 0 00-.066-1.98 20.962 20.962 0 00-.773-4.018 26.127 26.127 0 00-1.522-3.944 29.936 29.936 0 00-.982-1.88 5.433 5.433 0 00-.346-.596 29.842 29.842 0 00-5.117-6.459 38.8 38.8 0 00-1.93-1.908 30.86 30.86 0 016.506 6.942 25.003 25.003 0 014.52 14.291 4.68 4.68 0 01-.363 2.028 1.337 1.337 0 01-.94.772 1.072 1.072 0 01-.947-.396c.01-.124.036-.246.077-.364a.48.48 0 00.271.335.234.234 0 00.038.01c.335.057.408-.474.419-.754a7.461 7.461 0 00-.018-.872 8.869 8.869 0 00-.038-.397 8.774 8.774 0 00-.075-.481c-1.889-13.239-11.309-14.741-11.309-14.741a30.398 30.398 0 014.53 4.013l.64 3.606.887-1.825a21.326 21.326 0 012.318 3.532c.386.623.57 1.35.525 2.082a.368.368 0 00.026.282.097.097 0 00.081.035.095.095 0 00.043-.014.095.095 0 00.031-.032c.04.142.119.27.229.368a5.268 5.268 0 01-1.398 2.762c1 .103 2.004-.159 2.826-.737.017.053.031.108.046.161a15.958 15.958 0 00-3.013 8.151l5.07-1.713L190 39.289a36.413 36.413 0 00-1.731-4.668zm-22.181-27.89a.654.654 0 01-.79.37c-.109-.015-.219-.047-.328-.07-.015-.007-.042-.013-.044-.018-.004-.022.017-.014.033-.01.502-.247.655-.566.49-1.045-.044-.103-.1-.2-.167-.29.576.247.938.755.808 1.063h-.002zm-2.953-.643a.8.8 0 01-.295-.453c-.022-.23.2-.391.449-.453.281-.063.573-.052.848.033a.79.79 0 00-.58.634.182.182 0 00.1.208.456.456 0 01.039-.219.458.458 0 01.135-.176c0 .133.194.236.276.366.03.06.056.12.078.183a.51.51 0 00.378.274.321.321 0 00.337-.178.324.324 0 00-.067-.376 1.79 1.79 0 00-.245-.192c-.084-.063-.159-.149-.156-.23.249.032.48.145.659.32.367.37.314.906-.135 1.044a.825.825 0 01-.301.03 1.127 1.127 0 01-.947-.666.414.414 0 00-.153-.236c.013.166.059.328.135.476a2.707 2.707 0 01-.553-.39h-.002z" fill="#C7D4DB"/></svg>