<svg width="1022" height="704" fill="none" xmlns="http://www.w3.org/2000/svg"><path d="M847.288 50.571c-.713-1.175-1.26-2.445-2.016-3.632a41.334 41.334 0 00-8.322-9.4l.012-.044-.012.044a38.58 38.58 0 00-1.74-1.357c-4.229-3.057-8.379-6.233-12.675-9.215-4.534-3.139-9.442-5.583-14.807-7.026a3.294 3.294 0 01-1.421-.804c-2.157-1.89-4.259-3.814-6.404-5.748-1.987-1.658-4.33-2.335-6.893-2.37-3.265-.036-6.4.665-9.579 1.354-.143.009-.288.204-.324.334-.196.556-.572.736-1.13.726-.373-.007-.745-.013-1.054.09-.265.117-.49.43-.56.693-.035.13.31.41.516.513.683.418 1.445.716 2.072 1.166.27.213.394.62.586.953-.309.104-.618.208-.903.225-1.481.116-3.046.023-4.476.294-2.153.356-4.235.966-6.393 1.509-4.006.981-7.983 2.204-11.645 4.168-9.337 4.976-15.489 12.54-18.705 22.58a40.072 40.072 0 00-1.901 13.67c.034.571.166 1.122.354 1.64.356.938.557 1.929.255 2.877-.396 1.298-.923 2.56-1.481 3.767-.594 1.338-1.188 2.676-1.116 4.146.085 1.942.302 3.92.585 5.82.284 1.903 1.03 3.648 2.729 4.807.314.225.671.462.997.643l.349.094c.627-.768.642-.998.132-1.884-.191-.332-.469-.688-.605-1.052-.104-.309-.097-.681-.091-1.054-.02-.099.181-.326.269-.302.753.156.731-.459.848-.895.106-.393.188-.698.724-.601.13.035.387-.224.434-.398.226-1.016.416-1.199 1.505-1.42.022-.603.354-.794.944-.73.361.051.69.046.851-.379.035-.13.277-.16.431-.211l1.555-.565c1.654-.584 3.316-1.026 5.128-.632.131.035.341-.05.463-.157.368-.322.716-.228 1.007.084.473.502.929.718 1.419.288.619.307 1.194.602 1.726.886.52.327 1.206.558 1.548 1.025.493.6 1.112.908 1.731 1.215.25.114.658-.01.9-.04l-1.456-4.323c-.633-1.995-1.542-3.831-2.894-5.412-1.256-1.414-2.635-2.721-3.971-4.017-1.744-1.686-3.544-3.34-5.277-5.07-.366-.38-.597-.91-.741-1.417-.525-1.873-.492-3.736-.129-5.604.406-1.857.919-3.59 2.412-4.968 1.928-1.774 4.058-3.26 6.707-3.718.396-.08.768-.074 1.164-.154.054.67-.151 1.082-.574 1.437a1.371 1.371 0 00-.292.389c-.137.337-.263.631-.357.98-.07.262-.184.512-.2.742.079 1.098.213 2.164.324 3.317 2.495-.405 4.952-1.195 7.138-2.713.632-.438 1.213-1.031 1.845-1.47 1.574-.98 3.226-.863 4.88-.23 2.329.907 4.437 2.457 7.088 2.515-.039.317-.022.603-.081.82-.28 1.563-1.048 2.854-1.991 4.098-.146.195-.205.413-.295.576.063.111.182.19.246.3.146-.194.292-.389.47-.528.822-.622 1.612-1.298 2.509-1.852.843-.523 1.772-1.021 2.71-1.377.474-.2 1.097-.08 1.624-.125a876.61 876.61 0 01-.188 5.566c.458-.486.939-1.058 1.452-1.575.738-.831 1.465-1.619 2.278-2.383.202-.226.641-.295.958-.257 2.743.41 5.474.865 8.26 1.287 1.027.182 2.065.322 3.235.496-.494.616-.908 1.113-1.322 1.61-.797 1.049-1.638 2.086-2.403 3.191-.382.553-.526 1.263-1.191 1.645 0 0 .02.1.029.242.253-.072.495-.1.704-.185 1.072-.507 2.081-1.125 3.173-1.533 1.357-.524 2.821-.926 4.254-1.383.154-.052.308-.104.428-.025.587.252 1.03-.004 1.496-.346.288-.203.653-.34 1.048-.42.848-.194 1.715-.288 2.594-.426.198-.04.443-.255.501-.473.197-.556.546-.462.962-.444 3.016.438 5.915 1.311 8.825 2.141 2.55.78 5.135 1.429 7.764 2.09.697.187 1.462.3 2.219.269 1.973-.031 3.937-.205 5.886-.148 2.924.085 5.808-.029 8.453-1.517 1.384-.797 2.8-1.54 3.766-2.87.458-.486.804-1.423.143-2.443zM722.84 217.997c-3.553.682-7.522.227-11.984-.619-5.913 5.258-4.864 4.198-13.258 1.918-7.215 1.169-6.113 8.919-31.108 9.214-1.077 1.973 19.792 4.466 19.193 6.814-.615 2.41 5.725 28.422 14.101 12.259.251 4 3.785 7.355 4.457 11.268 1.157 6.728 6.742-6.19 8.221.424a148.95 148.95 0 003.095 11.695c1.429 4.6 2.044 9.511 3.6 14.067 3.685 10.785 7.89 21.809 14.896 29.926 4.298 4.978 9.919 7.606 15.53 9.568l.526.184c5.181 1.812 10.339 3.617 15.648 4.844 6.988 1.615 14.065 3.694 21.205 4.034 8.192.389 16.455.292 24.658-.195 20.234-1.202 40.025-7.116 59.465-14.124 9.732-3.509 19.195-7.07 28.173-13.115 6.234-4.196 12.584-8.885 17.962-14.648 9.766-10.465 18.07-22.755 23.983-36.934 3.536-8.478 23.653-6.497 22.201-15.876-1.648-10.653-.134-7.651-12.929-11.082-15.307.181-44.515-3.927-62.07-16.674-1.754-1.274-3.806-1.832-5.561-3.133-1.865-1.383-3.69-1.011-5.775-.419l-5.901 1.677c-1.625.462-5.009 1.28-6.251-.362-.561-.741-1.882-1.044-2.655-1.404-.862-.401-1.941-1.145-2.931-.93-1.598.348-3.223.932-4.14 2.682-2.24 4.27-.863 9.802-4.22 13.159-1.492 1.493-4.622-.684-5.641-1.526-1.785-1.475-4.513-2.148-6.032-3.989-1.43-1.732-3.073-3.169-4.388-5.169a22.006 22.006 0 00-2.467-3.042c-.392-.397-.551-1.383-1.019-1.591-.42-.188-.882-.132-1.29-.346-1.188-.624-3.753.63-5.015.989-1.876.533-3.744-.557-5.459-1.221-1.347-.522-3.27-3.025-3.728-4.723-.269-.995-.866-1.645-1.053-2.731-.15-.873-.613-2.359-1.049-3.088-1.07-1.791-.937-3.298-3.148-2.67-1.607.457-2.715 1.124-3.983 2.28-1.132 1.034-3.993 1.199-5.193.328-1.506-1.094-3.243-2.51-4.917-3.158-1.173-.454-2.928-.325-3.978-1.087-.42-.305-2.04-2.289-1.094-2.878.105-.065-.403.081-.651-.112-.328-.253-.559-.649-.948-.8-1.167-.451-2.659-3.592-2.894-4.96-.394-2.294-.876-4.463-1.168-6.797-.493-3.955 3.147-7.102 4.641-9.952.429-.819 1.558-2.006 1.568-3.04.011-1.207-.91-1.032-1.467-1.464-.94-.729-2.065-2.534-3.05-2.856-1.732-.566-3.042-1.326-4.241-2.993a9.499 9.499 0 00-2.029-2.097c-.85-.659-2.071.054-3.008.32-1.59.452-3.708 2.179-3.321 4.429.129.754.277 2.308.897 2.676.303.18 1.316 1.719 1.382 2.102.356 2.075.308 4.307-1.025 5.915-.962 1.161-2.399 3.161-2.743 4.78-.378 1.779-1.118 4.505-.892 6.313.199 1.593.238 5.336-.355 6.794-.687 1.687-1.435 3.183-2.691 4.329-1.192 1.087-2.957 1.276-4.44 1.697-1.132.322-3.966.523-4.681 1.607-.424.644-1.042.869-1.389 1.722-.341.838-.671 1.756-1.086 2.546-.818 1.561-1.662 4.178-2.17 6.042-.494 1.818-2.296 3.358-3.538 4.491-1.157 1.056-2.816 1.303-3.969 2.356-1.038.947-3.014 1.846-4.287 2.208-3.417.971-6.601 3.067-10.01 2.259-1.755-.415-3.769.673-5.556.945l-.027.004c-.736.112-3.033.461-5.529.94z" fill="#182B34"/><path d="M761.373 169.387c.569-.162 1.313-.666 1.893-.831.398-.113 1.306-.871 1.201-1.477-.097-.565-.133-1.716-.518-2.076-.314-.293-.467-.77-.827-1.049-.324-.251-.69-.362-1.024-.554-.659-.377-1.637-.468-2.35-.265-1.127.32-2.073.691-2.826 1.791-.558.814-.636 3.036.166 3.657.773.6 1.716 1.121 2.662 1.148.61.017 1.046-.18 1.623-.344zm-7.703-3.735c.68.527 1.487.023 2.143-.29.228-.109.366-.302.559-.477.283-.259.628-.81.554-1.244-.164-.952-.548-2.117-1.529-1.838-1.025.291-2.026 1.095-2.205 2.454-.063.484.143 1.135.478 1.395zm15.28-3.063c.26 1.514 1.909 1.622 2.96 1.181.396-.421.782-1.04.657-1.764-.164-.96-.539-2.163-1.535-1.88-1.087.309-2.385.702-2.082 2.463zm-12.291 12.093c.603 1.054 1.669.592 2.116.189.499-.372.233-1.063.053-1.547-.217-.58-.915-.579-1.328-.462-.612.174-1.293 1.03-.841 1.82zm-2.885 20.917c.319.955 1.721-.097 2.194-.371.468-.348.144-1.583-.246-1.906-.36-.298-.402-.38-.835-.257-.287.082-.533.19-.805.333-.781.412-.55 1.48-.308 2.201zm28.67-44.791c.353 2.054 1.619 2.578 2.643 1.17.45-.45.785-1.412.671-2.073-.143-.835-1.219-.872-1.834-.829-.686.048-1.652.732-1.48 1.732zm3.37-2.961c.247 1.21 1.516 2.239 2.392 1.362.466-.466.6-1.218.774-1.475.217-.32.298-.643.483-.995.312-.594.778-1.808 1.34-2.104.593-.312 1.802-1.253 1.608-2.142-.204-.938-.928-1.712-1.728-1.484-.847.24-1.275 1.226-1.872 1.959-.271.331-.613.74-.972.929-.329.173-.901.347-1.106.649-.139.205-.42.335-.54.565-.128.243-.223.557-.322.821-.258.695-.201 1.205-.057 1.915zm1.301 3.44c.579-1.104 3.135-1.428 3.435.132.176 1.021-.2 1.637-1.008 1.867-.66.188-1.645.184-2.257-.198-.556-.348-.452-1.264-.17-1.801zm10.342 2.96c.894.831 2.471.211 3.353-.508.739-.55 1.142-2.126.468-2.921-.378-.444-.981-.726-1.487-.861-.548-.147-1.206.364-1.726.512-.624.177-1.139 1.011-1.356 1.724-.082.271.091.915.163 1.183.116.431.302.608.585.871zm6.703.856c.531.653 1.282.345 1.897.01.491-.14.672-2.204.573-2.78-.177-1.031-.211-2.313-1.128-2.693-.559-.232-1.415.063-1.722.687-.271.548-.418 1.802-.314 2.411.128.744.235 1.801.694 2.365zm-1.701 2.119c.207 1.207.892 3.09 2.132 2.062.442-.565.508-1.278.379-2.029-.111-.646-.716-1.629-1.341-1.452-.704.2-1.352.363-1.17 1.419zm7.561 17.192c.229 1.333 1.663.935 2.433.516.379-.38.275-1.438.086-1.852-.373-.816-.71-.737-1.391-.543-.94.267-1.332.693-1.128 1.879zm.364 8.809c.476-.553 1.371-.738 1.899-.342.284.084.461 1.062.35 1.328-.243.581-.627 1.065-1.097 1.376-.257.17-.442.476-.697.648-.187.126-.412.241-.564.429-.25.31-.385.679-.51 1.084-.287.932-.86 1.825-1.668 2.054-.535.152-1.467.558-1.891-.055-.291-.423-.274-1.532-.032-1.967.421-.759 1.043-1.165 1.668-1.61.717-.511 1.335-1.002 1.861-1.813.243-.373.391-.793.681-1.132zm-33.602-44.197c.474-.069.849-.322 1.278-.555.784-.583.384-2.44-.142-2.973-.695-.705-1.61-.744-2.464-.436-.309.111-.884.977-.888 1.389-.005.455.002 1.021.277 1.403.26.362.53 1.113 1.027 1.041.288-.041.6.176.912.131zm-40.179 6.171c.823 1.144.168 2.829-.194 4.032-.343.343.556 2.797.782 3.175.592.992.659 2.564.466 3.707-.11.652-.321 1.53-.93 1.703l-1.259.357c-.572.163-1.045-.19-1.496-.555-.605-.49-.568-1.237-.891-1.939-.214-.463-.104-1.238-.368-1.639-.424-.645-1.029-1.242-1.526-1.807-.812-.923-1.977-2.68-1.42-4.095.522-1.328 1.749-2.047 2.272-3.377.239-.608-.072-1.034-.305-1.544-.228-.502-.354-1.547-.206-2.078.642-2.293 1.767-3.547 3.697-4.151 1.245-.391 2.463-.845 3.724-1.203.875-.249 1.75-.918 2.403-1.695.384-.457.697-.866 1.026-1.376.34-.528.544-1.294.947-1.755.376-.431.664-1.187 1.009-1.701.439-.654.582-.808 1.273-1.004 1.58-.449 3.143-.57 4.644-1.432.949-.545 1.936-2.056.742-3.023-.398-.322-1.035-.681-1.34-1.105-.289-.402-.299-1.49-.256-1.991.1-1.183-.162-3.891-1.579-3.488-.765.217-1.528.583-2.302.333-.471-.152-.355-.964-.364-1.391-.03-1.332 1.432-1.609 1.992-2.518.513-.832-.274-2.667-.427-3.558-.254-1.477.436-1.931 1.521-2.239.874-.249 2.196-.44 3.037.004.627.331.658 1.611.777 2.302.172 1.002.227 2.009.398 3.004.12.698.257 1.456.928 1.616 1.205.285 2.438 1.686 2.952 3.065.727 1.949 3.065 2 3.452 4.256.188 1.094.092 1.98-.134 3.043-.227 1.069-1.326 1.566-2.062 1.919-2.237 1.072-4.498 2.104-6.718 3.21-1.163.58-2.334 1.512-3.334 2.434-.716.659-1.566 1.594-2.425 1.918-.383.144-.65.474-1.055.589l-1.185.336c-.654.186-1.333.235-1.997.423-1.142.325-1.259 2.609-1.461 3.741-.325 1.833-2.212 2.26-2.935 3.726-.208.423-.131 1.412.127 1.771z" fill="#182B34"/><path d="M746.436 142.331c.732 1.113 1.477.446 2.239-.203.686-.51.509-1.477.046-2.182-.256-.389-.447-.726-.907-.61-.378.096-1.085.221-1.348.608-.436.645-.482 1.698-.03 2.387zm11.086-5.175c.463.337 1.204-.477 1.531-.724.585-.435.828-.655 1.258-1.289.429-.633 1.393-.474 1.908-.944l.001-.001c.527-.481.919-.839.77-1.704-.129-.752-.49-.945-1.08-.778-.788.224-1.414.981-2.217 1.209-.705.2-1.377.288-2.087.593-.612.263-.698 1.443-.593 2.056.068.393.227 1.378.509 1.582zm-31.964-5.633c-.468 1.286-.28 1.807.576 1.973 1.107.515 2.031-1.958 1.013-2.746-.527-.409-1.347.108-1.589.773zm16.439 32.699c.682.048 1.082.318 1.743.13 1.196-.89.612-1.942.393-3.22-.146-.849-1.741-2.129-2.435-2.12-1.041.012-2.667.686-2.757 2.044-.054.818.56 1.755 1.06 2.19.696.606 1.093.913 1.996.976zm61.294-30.577c.384 1.325 1.633 1.309 2.534 1.053l.019-.014c.676-.503 1.213-.902 1.027-1.981-.106-.618-.505-2.381-1.172-2.373-.913.011-2.025.519-2.524 1.472-.25.475-.032 1.334.116 1.843zm-13.811-9.203c.204 1.465.765 1.952 1.944 1.617.506-.144 1.463-.377 1.304-1.304-.107-.62-.403-1.815-1.074-1.807-.62.007-2.327.396-2.174 1.494zm-6.568 6.591c.362.866.608 1.006 1.311.806.692-.196 1.276-.455 1.503-1.36.097-.389-.269-1.847-.651-1.767-.618.129-1.719.248-2.142.872-.329.486-.239.928-.021 1.449zM0 228h1024v476H0z" fill="#182B34"/></svg>