<svg width="47" height="47" fill="none" xmlns="http://www.w3.org/2000/svg"><path d="M39.75 0H6.595C2.852 0 0 2.852 0 6.595V39.75c0 3.743 2.852 6.595 6.595 6.595H39.75c3.743 0 6.595-2.852 6.595-6.595V6.595C46.345 2.852 43.493 0 39.75 0zM23.173 37.076c7.664 0 13.903-6.06 13.903-13.369 0-1.247-.178-2.673-.535-3.743h3.922V38.86c0 .89-.713 1.782-1.783 1.782H7.665c-.891 0-1.783-.713-1.783-1.782V19.786h4.1a13.57 13.57 0 00-.535 3.743c-.178 7.487 6.06 13.547 13.726 13.547zm0-5.347c-4.991 0-8.913-3.922-8.913-8.735 0-4.812 3.922-8.734 8.913-8.734 4.99 0 8.912 3.922 8.912 8.734 0 4.991-3.921 8.735-8.912 8.735zm17.112-19.073c0 1.07-.892 1.96-1.961 1.96h-4.991c-1.07 0-1.96-.89-1.96-1.96V7.843c0-1.07.89-1.96 1.96-1.96h4.99c1.07 0 1.962.89 1.962 1.96v4.813z" fill="#3D5965"/></svg>