<svg width="97" height="32" fill="none" xmlns="http://www.w3.org/2000/svg"><path d="M6.393 12.526v-.086L2.73 8.597 6.11 4.95v-.043H4.329L1.435 8.129V4.907H0v7.621h1.435V9.151l3.185 3.376h1.773zm.804-3.756c0 2.003 1.239 3.928 3.913 3.928 2.674 0 3.88-1.97 3.903-3.942.021-1.992-1.283-4.006-3.903-4.006-2.63.002-3.913 2.016-3.913 4.02zm6.403.01c-.022 1.253-.696 2.603-2.49 2.603-1.794 0-2.468-1.339-2.5-2.59-.033-1.286.707-2.734 2.5-2.734 1.794 0 2.511 1.436 2.489 2.722zm8.902 2.418h-3.914V4.905h-1.435v7.621h5.349v-1.328zm3.521-.109H30l.641 1.437h1.566l-3.413-7.622H27.23l-3.414 7.622h1.555l.652-1.437zm1.989-4.584l1.413 3.244h-2.826l1.413-3.244zM6.855 24.317L4.55 21.715a2.26 2.26 0 001.925-2.395c0-1.318-.946-2.516-2.74-2.526-1.206 0-2.413-.011-3.62-.011v7.632h1.436v-2.547h1.381l2.218 2.547h1.705v-.098zM1.55 20.572v-2.44h2.185a1.222 1.222 0 110 2.44H1.55zm12.654-2.385v-1.393H8.51v7.621h5.695V23H9.932v-1.72h4.12v-1.34h-4.12v-1.753h4.272zm5.326 5.139c-.924 0-1.805-.37-2.142-1.209l-1.196.62c.565 1.394 1.761 1.873 3.316 1.873 1.696 0 3.195-.73 3.195-2.428 0-1.818-1.479-2.232-3.066-2.428-.913-.109-1.696-.294-1.696-.958 0-.566.512-1.013 1.577-1.013a2.179 2.179 0 011.804.85l1.141-.588c-.576-1.176-1.804-1.514-2.989-1.514-1.402.011-2.946.654-2.946 2.222 0 1.71 1.436 2.123 2.99 2.308 1.01.108 1.76.402 1.76 1.122.002.828-.846 1.143-1.748 1.143zm11.043-5.139v-1.393h-5.696v7.621h5.697V23h-4.275v-1.72h4.12v-1.34H26.3v-1.753h4.274zm7.239 6.228h1.707v-.098l-2.305-2.602a2.26 2.26 0 001.925-2.395c0-1.318-.946-2.516-2.74-2.526-1.206 0-2.413-.011-3.62-.011v7.632h1.436v-2.547h1.381l2.216 2.547zm-3.598-6.282H36.4a1.22 1.22 0 011.204 1.706 1.221 1.221 0 01-1.204.733h-2.185v-2.439zm10.358 4.594l-2.293-5.934H40.67l3.163 7.654h1.49l3.163-7.654h-1.609l-2.305 5.934zm5.858 1.688h5.696V23h-4.272v-1.72h4.12v-1.34h-4.12v-1.753h4.272v-1.393H50.43v7.62zm19.35-5.493c.146-.142.284-.291.413-.448a.873.873 0 00.124-.266v-.006a.653.653 0 00.023-.189c.058-.544.152-2.077-.527-2.616a.708.708 0 00-.32-.166.832.832 0 00-.172-.024 1.07 1.07 0 00-.636.206c.184-1.394 1.03-6.051 4.393-9.303a13.213 13.213 0 00-2.491 2.973c.295-.517.621-1.016.976-1.494a11.734 11.734 0 016.025-4.384 1.186 1.186 0 01-.16.007.38.38 0 00-.089.01c-.07.015-.147.046-.216.069a9.24 9.24 0 00-1.411.593c-.626.329-1.219.718-1.77 1.161-.57.457-1.1.96-1.588 1.502a15.653 15.653 0 00-.707.838c-.078.089-.15.183-.216.281a15.33 15.33 0 00-2.08 3.702c-.185.406-.364.836-.532 1.29a15.837 15.837 0 012.036-4.453 13.026 13.026 0 015.953-4.975c.327-.152.684-.23 1.044-.23a.69.69 0 01.557.292.542.542 0 010 .525.777.777 0 01-.19.037.25.25 0 00.108-.196.121.121 0 00-.003-.02c-.038-.168-.308-.098-.445-.048-.141.053-.28.113-.414.182h-.003a4.352 4.352 0 00-.398.226c-5.971 3.52-4.822 8.273-4.822 8.273a15.535 15.535 0 011.025-2.938l1.6-1.018-1.05-.058c.35-.638.763-1.24 1.233-1.797.223-.307.535-.538.894-.661a.189.189 0 00.13-.07.048.048 0 00-.015-.062.048.048 0 00-.022-.008.403.403 0 00.13-.181 2.754 2.754 0 011.601.112 2.124 2.124 0 00-.914-1.19l.069-.054a8.376 8.376 0 004.504-.193L79.6 2.095 79.47 0c-.67.54-1.301 1.124-1.892 1.749a9.03 9.03 0 01-1.558 1.35l-.146.044a.2.2 0 00-.202-.337 1.35 1.35 0 00-.53.432 7.445 7.445 0 01-1.828 1.243c-.684.379-1.328.826-1.921 1.335l-.21-1.023a7.378 7.378 0 01-2.553.746 7.923 7.923 0 00.179 3.259 11.436 11.436 0 00-1.885 6.274c.03 2.059.64 4.067 1.76 5.795.138.216.352.446.539.321.209-.138.15-.531.127-.833a1.987 1.987 0 01.43-1.433zm-1.172-1.149c.164 0 .28.095.334.303.014.054.02.112.031.169 0 .008.003.022 0 .024-.01.006-.01-.005-.011-.014a.398.398 0 00-.598-.024.718.718 0 00-.107.134c.006-.32.177-.592.351-.591zm.394.875a.562.562 0 01-.16.348.213.213 0 00-.082.12.649.649 0 00.201-.159c-.01.116-.036.23-.076.34a.412.412 0 01-.159.23c-.105.056-.227-.017-.305-.123a.831.831 0 01-.153-.407.411.411 0 00.419.148.095.095 0 00.08-.089.242.242 0 01-.224-.004c.064-.026.075-.138.12-.203a.789.789 0 01.073-.073.259.259 0 00.056-.233.173.173 0 00-.13-.12.176.176 0 00-.191.102.9.9 0 00-.043.153.168.168 0 01-.08.12.586.586 0 01.024-.376c.104-.246.371-.328.526-.143.034.04.059.087.075.137a.572.572 0 01.029.232zm24.063 3.5c-.23-.1-.532.16-.778.345-.411.319-.93.466-1.447.41a5.875 5.875 0 00-.605-.102.891.891 0 00-.292.04l-.005.002a.664.664 0 00-.173.082c-.499.249-1.877 1.012-1.938 1.884a.708.708 0 00.036.326.81.81 0 00.073.157c.123.192.305.34.518.42-1.28.599-5.685 2.404-10.255 1.346 1.258.347 2.56.509 3.864.479-.597.032-1.196.029-1.794-.01a11.784 11.784 0 01-6.967-2.673c.034.041.065.085.092.13a.454.454 0 00.057.07c.051.05.118.097.176.144a9.225 9.225 0 001.264.862c.618.347 1.268.633 1.94.854.695.23 1.408.403 2.13.518a15.46 15.46 0 001.092.139 3 3 0 00.355.03 15.57 15.57 0 004.26-.26c.444-.064.907-.147 1.382-.252-1.58.482-3.223.718-4.874.7a13.11 13.11 0 01-7.43-2.294 2.438 2.438 0 01-.758-.748.684.684 0 01-.053-.623.55.55 0 01.447-.283c.05.041.094.088.132.14a.253.253 0 00-.223.015.128.128 0 00-.015.013c-.122.123.082.311.2.398.12.09.246.174.377.25h.002a4.53 4.53 0 00.408.21c6.206 3.093 9.615-.432 9.615-.432-.988.343-2.008.587-3.044.728l-1.727-.79.518.91a11.2 11.2 0 01-2.189-.06 1.86 1.86 0 01-1.043-.392.188.188 0 00-.13-.071.048.048 0 00-.045.046c0 .007.002.015.005.022a.41.41 0 00-.224-.011 2.713 2.713 0 01-.77-1.4 2.12 2.12 0 00-.513 1.407c-.029-.009-.056-.02-.085-.03a8.273 8.273 0 00-2.594-3.662l-.758 2.638-1.707 1.238c.82.27 1.656.483 2.504.639a9.129 9.129 0 011.986.574c.038.033.078.066.115.1a.2.2 0 00-.25.236.2.2 0 00.074.114c.194.125.417.197.647.21a7.47 7.47 0 012.041.858c.69.369 1.418.666 2.169.887l-.754.728c.77.45 1.45 1.037 2.01 1.732a8.028 8.028 0 002.665-1.908 11.63 11.63 0 006.335-1.81 11.025 11.025 0 003.963-4.598c.116-.23.194-.533-.012-.622zM90.5 24.502a.334.334 0 01.074-.44c.038-.044.086-.079.126-.118.007-.005.018-.014.02-.013.01.004 0 .011-.005.016-.043.282.05.442.303.514a.732.732 0 00.172.016c-.274.167-.597.17-.69.025zm1.483-.723a.836.836 0 01-.263.346.404.404 0 00-.1-.432.096.096 0 00-.118-.019.239.239 0 01.117.189c-.057-.039-.158.012-.237.009a.808.808 0 01-.101-.02.262.262 0 00-.228.078.174.174 0 00-.033.173.174.174 0 00.19.104.913.913 0 00.154-.047.173.173 0 01.144.003.595.595 0 01-.33.183c-.266.046-.48-.134-.406-.363a.424.424 0 01.076-.136.583.583 0 01.56-.203c.047.019.099.02.146.005a.647.647 0 00-.243-.083c.105-.053.215-.094.33-.12a.418.418 0 01.28.01c.106.059.11.2.062.323zm3.872-6.264a8.96 8.96 0 01-.655-1.948l.016-.15a.202.202 0 00.335.066.2.2 0 00.054-.122 1.32 1.32 0 00-.196-.65 7.353 7.353 0 01-.453-2.155 11.349 11.349 0 00-.5-2.275l1.032.2a7.244 7.244 0 01.288-2.626 8.065 8.065 0 00-3.097-1.09 11.555 11.555 0 00-5.106-4.141 11.15 11.15 0 00-6.063-.616c-.254.043-.549.15-.506.37.048.245.436.343.727.437a2 2 0 011.165.95c.076.188.163.372.26.551a.885.885 0 00.199.216l.005.003c.05.04.107.07.166.094.484.262 1.872.938 2.634.523a.706.706 0 00.278-.23.824.824 0 00.086-.15 1.05 1.05 0 00.053-.661c1.225.705 5.228 3.272 6.955 7.606a13.152 13.152 0 00-1.804-3.428c.367.47.705.96 1.013 1.47a11.596 11.596 0 011.756 7.21c.015-.05.034-.1.055-.148a.448.448 0 00.026-.086c.012-.071.013-.153.02-.226a9.093 9.093 0 00-.007-1.524 10.792 10.792 0 00-.4-2.072 13.457 13.457 0 00-.784-2.034 15.556 15.556 0 00-.507-.97 2.752 2.752 0 00-.178-.307 15.38 15.38 0 00-2.64-3.332 20.075 20.075 0 00-.995-.984 15.929 15.929 0 013.356 3.58 12.899 12.899 0 012.331 7.372c.016.358-.048.715-.187 1.046a.69.69 0 01-.485.398.552.552 0 01-.488-.204.768.768 0 01.04-.188.251.251 0 00.139.173.123.123 0 00.02.004c.173.03.21-.243.216-.388a3.752 3.752 0 00-.03-.655 4.773 4.773 0 00-.038-.248c-.974-6.828-5.833-7.603-5.833-7.603.846.61 1.629 1.304 2.337 2.07l.33 1.86.457-.942c.458.567.859 1.177 1.196 1.822.2.322.294.697.27 1.074a.184.184 0 00.014.146.048.048 0 00.042.018.049.049 0 00.038-.024c.02.073.062.139.118.19a2.711 2.711 0 01-.721 1.425 2.15 2.15 0 001.458-.38c.009.027.016.055.024.082a8.227 8.227 0 00-1.555 4.205l2.615-.884 1.997.688a18.772 18.772 0 00-.893-2.408zM84.415 3.13a.338.338 0 01-.408.19c-.056-.007-.113-.024-.17-.036-.007-.003-.02-.006-.022-.009-.002-.011.009-.007.017-.005.26-.127.338-.291.253-.539a.724.724 0 00-.086-.15c.297.128.483.39.416.55zm-1.524-.332a.413.413 0 01-.152-.233c-.011-.12.103-.202.232-.234a.848.848 0 01.437.017.407.407 0 00-.299.327.094.094 0 00.052.107.24.24 0 01.09-.203c0 .068.1.122.142.188.015.03.029.062.04.095a.26.26 0 00.195.141.167.167 0 00.14-.286.916.916 0 00-.127-.099c-.043-.032-.082-.076-.08-.119a.596.596 0 01.34.166c.188.19.161.467-.07.538a.427.427 0 01-.156.016.581.581 0 01-.488-.344.213.213 0 00-.079-.122c.007.086.03.17.07.246a1.414 1.414 0 01-.287-.2z" fill="#fff"/></svg>