<svg width="105" height="105" fill="none" xmlns="http://www.w3.org/2000/svg"><path fill-rule="evenodd" clip-rule="evenodd" d="M52.202 97.881c25.228 0 45.678-20.45 45.678-45.678 0-25.227-20.45-45.678-45.678-45.678-25.227 0-45.678 20.451-45.678 45.678 0 25.228 20.451 45.678 45.678 45.678z" fill="#1FB6FF"/><path fill-rule="evenodd" clip-rule="evenodd" d="M47.65 42.158c3.346.036-2.543 17.4-1.911 24.947.638 7.615 9.064 5.423 8.53 1.039-.91-7.453 4.054-30.806 9.089-30.806 3.532 0-3.913 16.1-2.448 26.408.97 6.821 9.767 4.455 8.873.41-2.958-13.383 6.205-26.246 5.178-35.36-.449-3.988-2.847-5.938-5.245-5.957C61.316 22.775 54.829 40 54.829 40s.676-9.79-5.852-10.15C38.983 29.3 29.09 54.31 29.37 76.643c.09 7.125 8.957 5.912 8.49.231-.867-10.564 5.023-34.767 9.79-34.716z" fill="#fff"/></svg>