<svg width="105" height="105" fill="none" xmlns="http://www.w3.org/2000/svg"><path fill-rule="evenodd" clip-rule="evenodd" d="M20.61 65.803l-4.78 1.716-.256 13.976 16.544-5.941c-5.674-1.874-9.818-5.17-11.508-9.75z" fill="#FDBD39"/><path fill-rule="evenodd" clip-rule="evenodd" d="M23.11 51.022L6.526 56.977l9.302 10.542 4.78-1.716c-1.686-4.567-.647-9.73 2.5-14.78z" fill="#F69833"/><path fill-rule="evenodd" clip-rule="evenodd" d="M51.011 30.857c-21.116 7.582-34.729 23.228-30.406 34.947l76.467-27.459c-4.323-11.718-24.945-15.07-46.06-7.488z" fill="#FECF33"/><path fill-rule="evenodd" clip-rule="evenodd" d="M66.67 73.292c21.116-7.582 34.755-23.16 30.406-34.947L20.61 65.803c4.349 11.788 24.946 15.071 46.061 7.489z" fill="#EE6723"/><path fill-rule="evenodd" clip-rule="evenodd" d="M97.076 38.345L20.61 65.803c1.498 4.059 7.208 6.059 15.22 6.059 7.81 0 17.808-1.9 28.232-5.643 21.116-7.582 35.972-19.858 33.015-27.874z" fill="#F69833"/><path fill-rule="evenodd" clip-rule="evenodd" d="M81.852 32.287c-7.811 0-17.81 1.9-28.234 5.642-21.115 7.583-35.972 19.859-33.014 27.874L97.07 38.345c-1.497-4.058-7.207-6.058-15.218-6.058z" fill="#FDBD39"/><path fill-rule="evenodd" clip-rule="evenodd" d="M77.63 82.235h-.001c-2.25 0-5.569-1.998-9.865-5.937-5.083-4.661-10.906-11.488-16.395-19.222-5.49-7.735-10-15.467-12.701-21.774-2.943-6.872-3.363-11.098-1.248-12.56.464-.32 1.023-.482 1.662-.482 1.72 0 5.073 1.26 11.273 7.259l.136.13-.019.187a84.93 84.93 0 00-.116 1.293l-.07.847-.607-.602c-6.68-6.615-9.62-7.329-10.575-7.329-.272 0-.489.054-.644.162-.918.633-.977 3.737 1.876 10.4 2.653 6.194 7.098 13.81 12.517 21.443 5.419 7.635 11.152 14.361 16.144 18.938 5.383 4.936 7.809 5.47 8.602 5.47.274 0 .496-.058.661-.173.968-.668.97-3.993-2.213-11.164l-.145-.329.32-.172c.319-.172.628-.342.918-.504l.383-.214.177.398c2.256 5.081 4.365 11.539 1.6 13.45-.467.322-1.028.485-1.67.485zm-.001-.784v.392-.392z" fill="#EE6723"/><path fill-rule="evenodd" clip-rule="evenodd" d="M67.188 73.078l-.032.39c-.534 6.494-1.94 14.3-5.604 14.615-.074.007-.15.01-.227.01-2.49 0-4.845-3.506-7-10.421-2.04-6.543-3.623-15.327-4.457-24.735-.835-9.405-.822-18.327.035-25.121.934-7.404 2.712-11.27 5.285-11.492.076-.007.155-.01.233-.01 1.806 0 4.528 2.01 7.315 11.373l-1.82.345c-.93-3.129-1.944-5.674-2.95-7.422-.932-1.618-1.837-2.508-2.55-2.508-.024 0-.047 0-.07.003-1.116.096-2.74 2.755-3.645 9.932-.842 6.672-.852 15.46-.029 24.745.824 9.286 2.38 17.94 4.384 24.364.897 2.878 1.88 5.25 2.845 6.859.89 1.484 1.75 2.301 2.423 2.301a.84.84 0 00.07-.003c1.067-.092 3.078-2.859 3.924-12.594l1.87-.63z" fill="#EE6723"/></svg>